<svg xmlns="http://www.w3.org/2000/svg" width="18" height="8.3" viewBox="0 0 18 8.3">
    <g>
        <g>
            <path fill="#f47423" d="M17.6 0H.4a.43.43 0 0 0-.4.4v7.5a.43.43 0 0 0 .4.4h17.2a.43.43 0 0 0 .4-.4V.4a.43.43 0 0 0-.4-.4zM7.2 2a.446.446 0 0 1 .5 0l.9.9.9-.9a.454.454 0 0 1 .5 0 .283.283 0 0 1 0 .5l-.8.9.8.8a.446.446 0 0 1 0 .5.446.446 0 0 1-.5 0l-.9-.8-.8.9a.454.454 0 0 1-.5 0 .454.454 0 0 1 0-.5l.9-.9-1-.9a.446.446 0 0 1 0-.5zm-4.8.5c-.2-.1-.2-.3-.1-.5.2-.1.4-.2.6 0l1.1.9L5 2a.446.446 0 0 1 .5 0 .454.454 0 0 1 0 .5l-1 .8 1 .8c.1.1.2.4 0 .5-.1.3-.3.3-.5.2l-1.1-.9-1 .9a.446.446 0 0 1-.5 0 .446.446 0 0 1 0-.5l1-.8zm3.2 4.3h-3a.4.4 0 1 1 0-.8h3a.4.4 0 0 1 0 .8zm4.5 0h-3a.4.4 0 0 1 0-.8h3a.4.4 0 0 1 0 .8zm4.5 0h-3a.4.4 0 0 1 0-.8h3a.4.4 0 0 1 0 .8z" transform="translate(0 -81.25) translate(0 81.25)"/>
        </g>
    </g>
</svg>
