<svg xmlns="http://www.w3.org/2000/svg" width="18" height="8.25" viewBox="0 0 18 8.25">
    <defs>
        <style>
            .cls-1{fill:#fff}
        </style>
    </defs>
    <g id="password" transform="translate(0 -81.25)">
        <g id="그룹_74" transform="translate(0 81.25)">
            <g id="그룹_73">
                <path id="패스_38" d="M37.875 182h3a.375.375 0 0 0 0-.75h-3a.375.375 0 0 0 0 .75z" class="cls-1" transform="translate(-35.25 -175.25)"/>
                <path id="패스_39" d="M37.59 115.366a.373.373 0 0 0 .529.04l1.068-.916 1.069.916a.375.375 0 1 0 .488-.568l-.981-.838.981-.841a.375.375 0 0 0-.488-.568l-1.069.916-1.068-.916a.375.375 0 0 0-.488.568l.98.84-.98.84a.374.374 0 0 0-.041.527z" class="cls-1" transform="translate(-35.25 -110.623)"/>
                <path id="패스_40" d="M112.875 182h3a.375.375 0 0 0 0-.75h-3a.375.375 0 0 0 0 .75z" class="cls-1" transform="translate(-105.75 -175.25)"/>
                <path id="패스_41" d="M118.858 115.388a.375.375 0 0 0 .53 0l.86-.86.86.86a.375.375 0 1 0 .53-.53l-.86-.86.86-.86a.375.375 0 0 0-.53-.53l-.86.86-.86-.86a.375.375 0 1 0-.53.53l.86.86-.86.86a.375.375 0 0 0 0 .53z" class="cls-1" transform="translate(-111.623 -110.623)"/>
                <path id="패스_42" d="M187.875 182h3a.375.375 0 0 0 0-.75h-3a.375.375 0 0 0 0 .75z" class="cls-1" transform="translate(-176.25 -175.25)"/>
                <path id="패스_43" d="M17.625 81.25H.375a.375.375 0 0 0-.375.375v7.5a.375.375 0 0 0 .375.375h17.25a.375.375 0 0 0 .375-.375v-7.5a.375.375 0 0 0-.375-.375zm-.375 7.5H.75V82h16.5z" class="cls-1" transform="translate(0 -81.25)"/>
            </g>
        </g>
    </g>
</svg>
