<svg xmlns="http://www.w3.org/2000/svg" width="16" height="12.667" viewBox="0 0 16 12.667">
    <g>
        <g>
            <path fill="#f47423" d="M14.333 53.333H3A1.669 1.669 0 0 0 1.333 55v.367A1.669 1.669 0 0 0 0 57v7.333A1.669 1.669 0 0 0 1.667 66h12.666A1.669 1.669 0 0 0 16 64.333V55a1.669 1.669 0 0 0-1.667-1.667zm-13 11.939a1 1 0 0 1-.667-.939V57a1 1 0 0 1 .667-.939zm7.333-1.605a.333.333 0 0 1-.333.333H3a.333.333 0 0 1-.333-.333v-4A.333.333 0 0 1 3 59.333h5.333a.333.333 0 0 1 .333.333v4zm5.667.333H9.667a.333.333 0 0 1 0-.667h4.667a.333.333 0 0 1 0 .667zm0-2H9.667a.333.333 0 0 1 0-.667h4.667a.333.333 0 0 1 0 .667zm0-2H9.667a.333.333 0 0 1 0-.667h4.667a.333.333 0 0 1 0 .667zm0-2H3a.333.333 0 1 1 0-.667h11.333a.333.333 0 1 1 0 .667zm0-2H3a.333.333 0 1 1 0-.667h11.333a.333.333 0 1 1 0 .667z" transform="translate(0 -53.333) translate(0 53.333) translate(0 -53.333)"/>
        </g>
    </g>
</svg>
