<svg xmlns="http://www.w3.org/2000/svg" id="email" width="16" height="16" viewBox="0 0 16 16">
    <defs>
        <style>
            .cls-1{fill:#fff}
        </style>
    </defs>
    <g id="그룹_64" transform="translate(.177 10)">
        <g id="그룹_63">
            <path id="패스_33" d="M21.161 325.176l-6.707-4.861a1.663 1.663 0 0 0-1.96 0l-6.707 4.861a.333.333 0 0 0 .391.539l6.706-4.861a1 1 0 0 1 1.177 0l6.707 4.861a.333.333 0 1 0 .392-.539z" class="cls-1" transform="translate(-5.65 -319.995)"/>
        </g>
    </g>
    <g id="그룹_66" transform="translate(8.559 5.452)">
        <g id="그룹_65">
            <path id="패스_34" d="M281.223 174.606a.334.334 0 0 0-.465-.075l-6.744 4.881a.333.333 0 0 0 .2.6.329.329 0 0 0 .195-.063l6.744-4.881a.333.333 0 0 0 .07-.462z" class="cls-1" transform="translate(-273.875 -174.469)"/>
        </g>
    </g>
    <g id="그룹_68" transform="translate(.03 5.451)">
        <g id="그룹_67">
            <path id="패스_35" d="M8.244 179.383L1.5 174.5a.333.333 0 0 0-.391.54l6.745 4.881a.33.33 0 0 0 .195.063.333.333 0 0 0 .2-.6z" class="cls-1" transform="translate(-.972 -174.438)"/>
        </g>
    </g>
    <g id="그룹_70" transform="translate(0 4.222)">
        <g id="그룹_69">
            <path id="패스_36" d="M15.641 136.1l-1.093-.911a.334.334 0 1 0-.427.513l1.093.911a.331.331 0 0 1 .12.256v9.021a.333.333 0 0 1-.333.333H1a.333.333 0 0 1-.333-.333v-9.021a.331.331 0 0 1 .12-.256l1.093-.913a.333.333 0 1 0-.427-.513L.36 136.1a1 1 0 0 0-.36.768v9.021a1 1 0 0 0 1 1h14a1 1 0 0 0 1-1v-9.021a1 1 0 0 0-.359-.768z" class="cls-1" transform="translate(0 -135.113)"/>
        </g>
    </g>
    <g id="그룹_72" transform="translate(1.333)">
        <g id="그룹_71">
            <path id="패스_37" d="M55.666 0H43a.333.333 0 0 0-.333.333v6.392a.333.333 0 1 0 .667 0V.667h12v6.062a.333.333 0 0 0 .667 0V.333A.333.333 0 0 0 55.666 0z" class="cls-1" transform="translate(-42.666)"/>
        </g>
    </g>
</svg>
