<svg xmlns="http://www.w3.org/2000/svg" width="18" height="14.25" viewBox="0 0 18 14.25">
    <defs>
        <style>
            .cls-1{fill:#fff}
        </style>
    </defs>
    <g id="메뉴권한관리_off" transform="translate(0 -53.333)">
        <g id="그룹_12" transform="translate(5.25 54.833)">
            <g id="그룹_11">
                <path id="패스_7" d="M161.708 96h-12a.375.375 0 1 0 0 .75h12a.375.375 0 1 0 0-.75z" class="cls-1" transform="translate(-149.333 -96)"/>
            </g>
        </g>
        <g id="그룹_14" transform="translate(5.25 60.083)">
            <g id="그룹_13">
                <path id="패스_8" d="M161.708 245.333h-12a.375.375 0 1 0 0 .75h12a.375.375 0 1 0 0-.75z" class="cls-1" transform="translate(-149.333 -245.333)"/>
            </g>
        </g>
        <g id="그룹_16" transform="translate(5.25 65.333)">
            <g id="그룹_15">
                <path id="패스_9" d="M161.708 394.667h-12a.375.375 0 1 0 0 .75h12a.375.375 0 1 0 0-.75z" class="cls-1" transform="translate(-149.333 -394.667)"/>
            </g>
        </g>
        <g id="그룹_18" transform="translate(0 63.833)">
            <g id="그룹_17">
                <path id="패스_10" d="M1.875 352a1.875 1.875 0 1 0 1.875 1.875A1.877 1.877 0 0 0 1.875 352zm0 3A1.125 1.125 0 1 1 3 353.875 1.126 1.126 0 0 1 1.875 355z" class="cls-1" transform="translate(0 -352)"/>
            </g>
        </g>
        <g id="그룹_20" transform="translate(0 58.583)">
            <g id="그룹_19">
                <path id="패스_11" d="M1.875 202.667a1.875 1.875 0 1 0 1.875 1.875 1.877 1.877 0 0 0-1.875-1.875zm0 3A1.125 1.125 0 1 1 3 204.542a1.126 1.126 0 0 1-1.125 1.125z" class="cls-1" transform="translate(0 -202.667)"/>
            </g>
        </g>
        <g id="그룹_22" transform="translate(0 53.333)">
            <g id="그룹_21">
                <path id="패스_12" d="M1.875 53.333a1.875 1.875 0 1 0 1.875 1.875 1.877 1.877 0 0 0-1.875-1.875zm0 3A1.125 1.125 0 1 1 3 55.208a1.126 1.126 0 0 1-1.125 1.125z" class="cls-1" transform="translate(0 -53.333)"/>
            </g>
        </g>
    </g>
</svg>
