<svg xmlns="http://www.w3.org/2000/svg" width="16" height="15.988" viewBox="0 0 16 15.988">
    <defs>
        <style>
            .cls-1{fill:#fff}
        </style>
    </defs>
    <g id="inbox" transform="translate(0 -.192)">
        <g id="그룹_76" transform="translate(0 .192)">
            <g id="그룹_75">
                <path id="패스_44" d="M15.608 4.837L13.2 1.231A2.33 2.33 0 0 0 11.263.192H5.1a2.993 2.993 0 0 0-2.5 1.349L.447 4.807A2.315 2.315 0 0 0 0 6.18v7.667a2.336 2.336 0 0 0 2.333 2.333h11.334A2.336 2.336 0 0 0 16 13.847V6.131a2.327 2.327 0 0 0-.392-1.294zm-.275 9.01a1.668 1.668 0 0 1-1.667 1.667H2.333a1.668 1.668 0 0 1-1.666-1.667V6.18a1.651 1.651 0 0 1 .323-.985L1 5.181l2.154-3.272A2.33 2.33 0 0 1 5.1.859h6.16a1.664 1.664 0 0 1 1.39.741l2.4 3.605a1.669 1.669 0 0 1 .28.925v7.716z" class="cls-1" transform="translate(0 -.192)"/>
            </g>
        </g>
        <g id="그룹_78" transform="translate(.333 5.525)">
            <g id="그룹_77">
                <path id="패스_45" d="M25.666 170.859H24a1.668 1.668 0 0 0-1.667 1.667v3.321a1.668 1.668 0 0 1-1.667 1.667H16a1.668 1.668 0 0 1-1.667-1.667v-3.333a1.656 1.656 0 0 0-1.655-1.655H11a.333.333 0 1 0 0 .667h1.679a.989.989 0 0 1 .988.988v3.333A2.336 2.336 0 0 0 16 178.18h4.667A2.336 2.336 0 0 0 23 175.847v-3.321a1 1 0 0 1 1-1h1.667a.333.333 0 1 0 0-.667z" class="cls-1" transform="translate(-10.666 -170.859)"/>
            </g>
        </g>
        <g id="그룹_80" transform="translate(4.333 5.513)">
            <g id="그룹_79">
                <path id="패스_46" d="M145.666 170.475H139a.333.333 0 0 0 0 .667h6.667a.333.333 0 0 0 0-.667z" class="cls-1" transform="translate(-138.666 -170.475)"/>
            </g>
        </g>
        <g id="그룹_82" transform="translate(4.667 6.847)">
            <g id="그룹_81">
                <path id="패스_47" d="M155.666 213.141h-6a.333.333 0 1 0 0 .667h6a.333.333 0 1 0 0-.667z" class="cls-1" transform="translate(-149.333 -213.141)"/>
            </g>
        </g>
        <g id="그룹_84" transform="translate(4.667 8.18)">
            <g id="그룹_83">
                <path id="패스_48" d="M155.666 255.808h-6a.333.333 0 1 0 0 .667h6a.333.333 0 1 0 0-.667z" class="cls-1" transform="translate(-149.333 -255.808)"/>
            </g>
        </g>
        <g id="그룹_86" transform="translate(4.667 9.513)">
            <g id="그룹_85">
                <path id="패스_49" d="M155.666 298.475h-6a.333.333 0 1 0 0 .667h6a.333.333 0 0 0 0-.667z" class="cls-1" transform="translate(-149.333 -298.475)"/>
            </g>
        </g>
        <g id="그룹_88" transform="translate(5 10.847)">
            <g id="그룹_87">
                <path id="패스_50" d="M165.667 341.141h-5.333a.333.333 0 0 0 0 .667h5.333a.333.333 0 0 0 0-.667z" class="cls-1" transform="translate(-160 -341.141)"/>
            </g>
        </g>
    </g>
</svg>
