<svg xmlns="http://www.w3.org/2000/svg" width="16" height="15.988" viewBox="0 0 16 15.988">
    <defs>
        <style>
            .cls-1{fill:#f47423}
        </style>
    </defs>
    <g id="이력관리_on" transform="translate(0 -.192)">
        <g id="그룹_114" transform="translate(0 .192)">
            <g id="그룹_113">
                <path id="패스_60" d="M15.608 4.837L13.2 1.231A2.329 2.329 0 0 0 11.263.192H5.1a2.993 2.993 0 0 0-2.5 1.35L.446 4.807A2.318 2.318 0 0 0 0 6.18v7.667a2.336 2.336 0 0 0 2.333 2.333h11.334A2.336 2.336 0 0 0 16 13.847V6.131a2.327 2.327 0 0 0-.392-1.294zm-1.941.689A1.669 1.669 0 0 0 12 7.192v3.321a1.668 1.668 0 0 1-1.667 1.667H5.667A1.669 1.669 0 0 1 4 10.513V7.18a1.656 1.656 0 0 0-1.655-1.655H.806a1.646 1.646 0 0 1 .183-.331L1 5.181l2.155-3.272A2.328 2.328 0 0 1 5.1.859h6.16a1.663 1.663 0 0 1 1.39.741l2.4 3.605a1.681 1.681 0 0 1 .151.319z" class="cls-1" transform="translate(0 -.192)"/>
            </g>
        </g>
        <g id="그룹_116" transform="translate(4.333 5.513)">
            <g id="그룹_115">
                <path id="패스_61" d="M145.666 170.475H139a.333.333 0 0 0 0 .667h6.667a.333.333 0 0 0 0-.667z" class="cls-1" transform="translate(-138.666 -170.475)"/>
            </g>
        </g>
        <g id="그룹_118" transform="translate(4.667 6.847)">
            <g id="그룹_117">
                <path id="패스_62" d="M155.666 213.141h-6a.333.333 0 1 0 0 .667h6a.333.333 0 1 0 0-.667z" class="cls-1" transform="translate(-149.333 -213.141)"/>
            </g>
        </g>
        <g id="그룹_120" transform="translate(4.667 8.18)">
            <g id="그룹_119">
                <path id="패스_63" d="M155.666 255.808h-6a.333.333 0 1 0 0 .667h6a.333.333 0 1 0 0-.667z" class="cls-1" transform="translate(-149.333 -255.808)"/>
            </g>
        </g>
        <g id="그룹_122" transform="translate(4.667 9.513)">
            <g id="그룹_121">
                <path id="패스_64" d="M155.666 298.475h-6a.333.333 0 1 0 0 .667h6a.333.333 0 0 0 0-.667z" class="cls-1" transform="translate(-149.333 -298.475)"/>
            </g>
        </g>
        <g id="그룹_124" transform="translate(5 10.847)">
            <g id="그룹_123">
                <path id="패스_65" d="M165.667 341.141h-5.333a.333.333 0 0 0 0 .667h5.333a.333.333 0 1 0 0-.667z" class="cls-1" transform="translate(-160 -341.141)"/>
            </g>
        </g>
    </g>
</svg>
