<svg xmlns="http://www.w3.org/2000/svg" width="16" height="15.333" viewBox="0 0 16 15.333">
    <defs>
        <style>
            .cls-1{fill:#fff}
        </style>
    </defs>
    <g id="like" transform="translate(0 -10.667)">
        <g id="그룹_60" transform="translate(0 10.667)">
            <g id="그룹_59">
                <path id="패스_31" d="M16 19.834a1.481 1.481 0 0 0-.434-1.049 1.655 1.655 0 0 0 .427-1.273A1.723 1.723 0 0 0 14.254 16h-4.118a9.585 9.585 0 0 0 .531-2.667c0-1.446-1.229-2.667-2-2.667a2.094 2.094 0 0 0-1.208.406.334.334 0 0 0-.125.261v2.261l-1.921 4.16-.079.041v-.127A.333.333 0 0 0 5 17.334H1.667A1.668 1.668 0 0 0 0 19v5.333A1.668 1.668 0 0 0 1.667 26h2a1.67 1.67 0 0 0 1.569-1.1A4.346 4.346 0 0 0 7 25.334h6.119a1.534 1.534 0 0 0 1.511-1.164 1.5 1.5 0 0 0-.12-1 1.494 1.494 0 0 0 .667-2A1.494 1.494 0 0 0 16 19.834zm-1.406.823a.333.333 0 0 0-.191.574.826.826 0 0 1-.475 1.426.333.333 0 0 0-.191.574.824.824 0 0 1 .241.8.863.863 0 0 1-.859.641H7a3.16 3.16 0 0 1-1.764-.572.334.334 0 0 0-.569.236 1 1 0 0 1-1 1h-2a1 1 0 0 1-1-1V19a1 1 0 0 1 1-1h3v.333a.335.335 0 0 0 .159.284.341.341 0 0 0 .324.014l.667-.333a.333.333 0 0 0 .153-.158l2-4.333a.34.34 0 0 0 .03-.14v-2.153a1.406 1.406 0 0 1 .667-.181 2.2 2.2 0 0 1 1.333 2 10.381 10.381 0 0 1-.645 2.881.333.333 0 0 0 .311.452h4.587a1.053 1.053 0 0 1 1.075.906 1 1 0 0 1-.475.943.334.334 0 0 0 .023.581.825.825 0 0 1-.283 1.559z" class="cls-1" transform="translate(0 -10.667)"/>
            </g>
        </g>
        <g id="그룹_62" transform="translate(4.667 18)">
            <g id="그룹_61">
                <path id="패스_32" d="M149.666 245.333a.333.333 0 0 0-.333.333v6a.333.333 0 0 0 .667 0v-6a.333.333 0 0 0-.334-.333z" class="cls-1" transform="translate(-149.333 -245.333)"/>
            </g>
        </g>
    </g>
</svg>
