<svg xmlns="http://www.w3.org/2000/svg" width="16" height="15.333" viewBox="0 0 16 15.333">
    <defs>
        <style>
            .cls-1{fill:#f47423}
        </style>
    </defs>
    <g id="평가기준관리_on" transform="translate(0 -10.667)">
        <g id="그룹_129" transform="translate(0 17.334)">
            <g id="그룹_128">
                <path id="패스_69" d="M1.667 224A1.669 1.669 0 0 0 0 225.667V231a1.669 1.669 0 0 0 1.667 1.667h2a1.655 1.655 0 0 0 1-.337V224z" class="cls-1" transform="translate(0 -224)"/>
            </g>
        </g>
        <g id="그룹_131" transform="translate(5.333 10.667)">
            <g id="그룹_130">
                <path id="패스_70" d="M181.334 19.834a1.478 1.478 0 0 0-.434-1.049 1.655 1.655 0 0 0 .427-1.273A1.723 1.723 0 0 0 179.588 16h-4.118a9.585 9.585 0 0 0 .53-2.666c0-1.446-1.229-2.667-2-2.667a2.1 2.1 0 0 0-1.209.406.335.335 0 0 0-.125.261v2.261l-1.92 4.159-.08.041v7.145a4.368 4.368 0 0 0 1.667.394h6.119a1.533 1.533 0 0 0 1.511-1.165 1.5 1.5 0 0 0-.121-1 1.493 1.493 0 0 0 .667-2 1.492 1.492 0 0 0 .825-1.335z" class="cls-1" transform="translate(-170.667 -10.667)"/>
            </g>
        </g>
    </g>
</svg>
