<svg xmlns="http://www.w3.org/2000/svg" width="18" height="10.5" viewBox="0 0 18 10.5">
    <defs>
        <style>
            .cls-1{fill:#fff}
        </style>
    </defs>
    <g id="eye" transform="translate(0 -106.662)">
        <g id="그룹_8" transform="translate(0 106.662)">
            <g id="그룹_7">
                <path id="패스_5" d="M17.934 111.7c-.142-.206-3.548-5.037-8.933-5.037-4.621 0-8.738 4.8-8.912 5.008a.376.376 0 0 0 0 .484c.173.2 4.291 5.008 8.912 5.008s8.738-4.8 8.912-5.008a.375.375 0 0 0 .021-.455zM9 116.412c-3.7 0-7.226-3.533-8.121-4.5.893-.968 4.412-4.5 8.121-4.5 4.334 0 7.394 3.527 8.141 4.48-.863.937-4.405 4.52-8.141 4.52z" class="cls-1" transform="translate(0 -106.662)"/>
            </g>
        </g>
        <g id="그룹_10" transform="translate(6 108.912)">
            <g id="그룹_9">
                <path id="패스_6" d="M173.662 170.662a3 3 0 1 0 3 3 3 3 0 0 0-3-3zm0 5.25a2.25 2.25 0 1 1 2.25-2.25 2.253 2.253 0 0 1-2.25 2.25z" class="cls-1" transform="translate(-170.662 -170.662)"/>
            </g>
        </g>
    </g>
</svg>
