<svg xmlns="http://www.w3.org/2000/svg" width="16" height="14.944" viewBox="0 0 16 14.944">
    <g>
        <g>
            <path fill="#f47423" d="M15.935 22.661a1.321 1.321 0 0 0-.63-.968 1.3 1.3 0 0 0-1.136-.1.625.625 0 0 1-.781-.351 5.907 5.907 0 0 0-.594-1.034.623.623 0 0 1 .086-.853 1.292 1.292 0 0 0 .474-1.03 1.317 1.317 0 0 0-.527-1.03 8 8 0 0 0-1.725-1 1.325 1.325 0 0 0-1.159.058 1.291 1.291 0 0 0-.655.925.628.628 0 0 1-.7.5 5.706 5.706 0 0 0-1.184 0 .624.624 0 0 1-.7-.5 1.29 1.29 0 0 0-.655-.926 1.326 1.326 0 0 0-1.16-.059 8.02 8.02 0 0 0-1.725 1 1.318 1.318 0 0 0-.526 1.03 1.3 1.3 0 0 0 .474 1.032.621.621 0 0 1 .086.852 5.917 5.917 0 0 0-.594 1.033.627.627 0 0 1-.787.348 1.3 1.3 0 0 0-1.128.1 1.319 1.319 0 0 0-.63.968 7.806 7.806 0 0 0 0 2.006 1.32 1.32 0 0 0 .63.968 1.3 1.3 0 0 0 1.137.1.628.628 0 0 1 .78.351A5.918 5.918 0 0 0 3.2 27.12a.622.622 0 0 1-.087.853A1.294 1.294 0 0 0 2.644 29a1.321 1.321 0 0 0 .526 1.03 8.044 8.044 0 0 0 1.725 1 1.339 1.339 0 0 0 .521.106 1.313 1.313 0 0 0 .638-.165 1.292 1.292 0 0 0 .655-.925.625.625 0 0 1 .7-.5 5.706 5.706 0 0 0 1.184 0 .622.622 0 0 1 .7.5 1.293 1.293 0 0 0 .655.925 1.325 1.325 0 0 0 1.159.059 8.02 8.02 0 0 0 1.725-1 1.321 1.321 0 0 0 .523-1.03 1.294 1.294 0 0 0-.476-1.031.621.621 0 0 1-.086-.852 5.91 5.91 0 0 0 .594-1.033.63.63 0 0 1 .781-.351h.008a1.292 1.292 0 0 0 1.129-.1 1.319 1.319 0 0 0 .63-.968 7.674 7.674 0 0 0 .065-1 7.762 7.762 0 0 0-.065-1.004zM8 26.794a3.13 3.13 0 1 1 3.13-3.13A3.134 3.134 0 0 1 8 26.794z" transform="translate(0 -16.192) translate(0 16.192) translate(0 -16.192)"/>
        </g>
    </g>
</svg>
