<svg xmlns="http://www.w3.org/2000/svg" width="16" height="14.944" viewBox="0 0 16 14.944">
    <defs>
        <style>
            .cls-1{fill:#fff}
        </style>
    </defs>
    <g id="settings" transform="translate(0 -16.189)">
        <g id="그룹_36" transform="translate(0 16.189)">
            <g id="그룹_35">
                <path id="패스_19" d="M15.935 22.659a1.32 1.32 0 0 0-.63-.968 1.3 1.3 0 0 0-1.136-.1.626.626 0 0 1-.781-.351 5.813 5.813 0 0 0-.588-1.04.622.622 0 0 1 .086-.853 1.3 1.3 0 0 0 .475-1.032 1.319 1.319 0 0 0-.527-1.03 8 8 0 0 0-1.725-1 1.325 1.325 0 0 0-1.159.058 1.3 1.3 0 0 0-.655.925.624.624 0 0 1-.7.5 5.706 5.706 0 0 0-1.184 0 .623.623 0 0 1-.7-.5 1.291 1.291 0 0 0-.655-.925 1.327 1.327 0 0 0-1.156-.049 8 8 0 0 0-1.725 1 1.318 1.318 0 0 0-.527 1.03 1.3 1.3 0 0 0 .476 1.033.621.621 0 0 1 .086.851 5.841 5.841 0 0 0-.594 1.033.63.63 0 0 1-.788.349 1.3 1.3 0 0 0-1.129.1 1.321 1.321 0 0 0-.63.968 7.8 7.8 0 0 0 0 2 1.32 1.32 0 0 0 .63.968 1.3 1.3 0 0 0 1.136.1.625.625 0 0 1 .781.351 5.813 5.813 0 0 0 .584 1.04.622.622 0 0 1-.086.853A1.3 1.3 0 0 0 2.643 29a1.319 1.319 0 0 0 .527 1.03 8 8 0 0 0 1.725 1 1.352 1.352 0 0 0 .521.106 1.313 1.313 0 0 0 .638-.165 1.3 1.3 0 0 0 .655-.925.621.621 0 0 1 .7-.5 5.706 5.706 0 0 0 1.184 0 .621.621 0 0 1 .7.5 1.291 1.291 0 0 0 .655.925 1.327 1.327 0 0 0 1.159.058 8 8 0 0 0 1.725-1A1.318 1.318 0 0 0 13.356 29a1.3 1.3 0 0 0-.476-1.032.621.621 0 0 1-.086-.851 5.841 5.841 0 0 0 .594-1.033.626.626 0 0 1 .781-.351l.122-.326-.115.328a1.287 1.287 0 0 0 1.129-.1 1.321 1.321 0 0 0 .63-.968 7.8 7.8 0 0 0 0-2zm-.689 1.916a.627.627 0 0 1-.3.461.606.606 0 0 1-.529.047h-.006a1.327 1.327 0 0 0-1.658.719 5.157 5.157 0 0 1-.524.911 1.311 1.311 0 0 0 .21 1.8.6.6 0 0 1 .221.48.627.627 0 0 1-.25.49 7.285 7.285 0 0 1-1.575.909.633.633 0 0 1-.553-.027.594.594 0 0 1-.3-.431A1.309 1.309 0 0 0 8.52 28.85a5.081 5.081 0 0 1-1.039 0 1.3 1.3 0 0 0-1.458 1.078.592.592 0 0 1-.3.431.628.628 0 0 1-.553.027 7.268 7.268 0 0 1-1.575-.909.628.628 0 0 1-.25-.489.606.606 0 0 1 .221-.481 1.31 1.31 0 0 0 .209-1.8 5.183 5.183 0 0 1-.525-.912A1.339 1.339 0 0 0 2.031 25a1.3 1.3 0 0 0-.451.081.6.6 0 0 1-.525-.048.625.625 0 0 1-.3-.461 7.1 7.1 0 0 1 0-1.828.627.627 0 0 1 .3-.461.606.606 0 0 1 .533-.045 1.324 1.324 0 0 0 1.66-.719 5.157 5.157 0 0 1 .524-.911 1.31 1.31 0 0 0-.21-1.8.6.6 0 0 1-.221-.48.63.63 0 0 1 .25-.49 7.268 7.268 0 0 1 1.575-.909.63.63 0 0 1 .553.026.594.594 0 0 1 .3.431 1.311 1.311 0 0 0 1.461 1.086 5.081 5.081 0 0 1 1.039 0 1.308 1.308 0 0 0 1.458-1.078.592.592 0 0 1 .3-.431.628.628 0 0 1 .553-.027 7.268 7.268 0 0 1 1.575.909.628.628 0 0 1 .25.489.606.606 0 0 1-.221.481 1.31 1.31 0 0 0-.209 1.8 5.183 5.183 0 0 1 .525.912 1.325 1.325 0 0 0 1.667.715.6.6 0 0 1 .525.048.625.625 0 0 1 .3.461 7.009 7.009 0 0 1 .059.913 7.148 7.148 0 0 1-.055.911z" class="cls-1" transform="translate(0 -16.189)"/>
            </g>
        </g>
        <g id="그룹_38" transform="translate(4.87 20.53)">
            <g id="그룹_37">
                <path id="패스_20" d="M152.463 149.337a3.13 3.13 0 1 0 3.13 3.13 3.134 3.134 0 0 0-3.13-3.13zm0 5.565a2.435 2.435 0 1 1 2.435-2.435 2.437 2.437 0 0 1-2.435 2.433z" class="cls-1" transform="translate(-149.333 -149.337)"/>
            </g>
        </g>
    </g>
</svg>
