<?xml version="1.0" encoding="utf-8"?>
<!-- Generator: Adobe Illustrator 24.3.0, SVG Export Plug-In . SVG Version: 6.00 Build 0)  -->
<svg version="1.1" id="태그_on" xmlns="http://www.w3.org/2000/svg" xmlns:xlink="http://www.w3.org/1999/xlink" x="0px" y="0px"
	 viewBox="0 0 16 16" style="enable-background:new 0 0 16 16;" xml:space="preserve">
<style type="text/css">
	.st0{fill:#FFFFFF;}
</style>
<g id="그룹_40">
	<g id="그룹_39">
		<path id="패스_21" class="st0" d="M14.3,0h-4.2C9.3,0,8.5,0.3,8,0.9L0.6,8.3c-0.8,0.8-0.8,2,0,2.7L5,15.4c0.8,0.8,2,0.8,2.7,0
			L15.1,8C15.7,7.5,16,6.7,16,5.9V1.7C16,0.7,15.3,0,14.3,0z M13.6,4.3c0,0.6-0.8,0.3-1.2,0.7c-1.2,0-1.4-1.6-0.6-2.5
			c0.4-0.1,1.5-0.4,1.5,0.2L13.6,4.3L13.6,4.3z"/>
	</g>
</g>
<g id="그룹_42" transform="translate(10.667 2)">
	<g id="그룹_41">
		<path id="패스_22" class="st0" d="M1.7,0C0.7,0,0,0.7,0,1.7c0,0.9,0.7,1.7,1.7,1.7c0.9,0,1.7-0.7,1.7-1.7v0C3.3,0.7,2.6,0,1.7,0
			z M1.7,2.7c-0.6,0-1-0.4-1-1s0.4-1,1-1s1,0.4,1,1S2.2,2.7,1.7,2.7z"/>
	</g>
</g>
</svg>
