<svg xmlns="http://www.w3.org/2000/svg" id="태그_on" width="16" height="16" viewBox="0 0 16 16">
    <defs>
        <style>
            .cls-1{fill:#f47423}
        </style>
    </defs>
    <g id="그룹_40">
        <g id="그룹_39">
            <path id="패스_21" d="M14.333 0H10.1a2.98 2.98 0 0 0-2.117.879L.569 8.293a1.943 1.943 0 0 0 0 2.747l4.391 4.391a1.943 1.943 0 0 0 2.747 0l7.415-7.415A2.98 2.98 0 0 0 16 5.9V1.667A1.669 1.669 0 0 0 14.333 0zm-.771 4.281c0 .623-.763.294-1.2.734-1.2.031-1.437-1.562-.594-2.5.438-.078 1.531-.379 1.531.172l.266 1.594z" class="cls-1"/>
        </g>
    </g>
    <g id="그룹_42" transform="translate(10.667 2)">
        <g id="그룹_41">
            <path id="패스_22" d="M343 64a1.667 1.667 0 1 0 1.667 1.667A1.669 1.669 0 0 0 343 64zm0 2.667a1 1 0 1 1 1-1 1 1 0 0 1-1 1z" class="cls-1" transform="translate(-341.334 -64)"/>
        </g>
    </g>
</svg>
