<svg xmlns="http://www.w3.org/2000/svg" width="18" height="11.739" viewBox="0 0 18 11.739">
    <defs>
        <style>
            .cls-1{fill:#fff}
        </style>
    </defs>
    <g id="user" transform="translate(0 -85.333)">
        <g id="그룹_24" transform="translate(6.261 85.333)">
            <g id="그룹_23">
                <path id="패스_13" d="M173.405 85.333a2.739 2.739 0 1 0 2.739 2.739 2.742 2.742 0 0 0-2.739-2.739zm0 4.7a1.957 1.957 0 1 1 1.957-1.957 1.959 1.959 0 0 1-1.957 1.953z" class="cls-1" transform="translate(-170.666 -85.333)"/>
            </g>
        </g>
        <g id="그룹_26" transform="translate(12.522 88.463)">
            <g id="그룹_25">
                <path id="패스_14" d="M343.29 170.667a1.956 1.956 0 1 0 1.957 1.957 1.959 1.959 0 0 0-1.957-1.957zm0 3.13a1.174 1.174 0 1 1 1.174-1.174 1.175 1.175 0 0 1-1.174 1.177z" class="cls-1" transform="translate(-341.334 -170.667)"/>
            </g>
        </g>
        <g id="그룹_28" transform="translate(1.621 88.463)">
            <g id="그룹_27">
                <path id="패스_15" d="M46.139 170.667a1.956 1.956 0 1 0 1.957 1.957 1.959 1.959 0 0 0-1.957-1.957zm0 3.13a1.174 1.174 0 1 1 1.174-1.174 1.175 1.175 0 0 1-1.174 1.177z" class="cls-1" transform="translate(-44.182 -170.667)"/>
            </g>
        </g>
        <g id="그룹_30" transform="translate(3.913 91.594)">
            <g id="그룹_29">
                <path id="패스_16" d="M111.753 256a5.093 5.093 0 0 0-5.087 5.087.391.391 0 1 0 .783 0 4.3 4.3 0 0 1 8.609 0 .391.391 0 1 0 .783 0 5.093 5.093 0 0 0-5.088-5.087z" class="cls-1" transform="translate(-106.666 -256)"/>
            </g>
        </g>
        <g id="그룹_32" transform="translate(12.466 93.159)">
            <g id="그룹_31">
                <path id="패스_17" d="M341.825 298.667a3.522 3.522 0 0 0-1.824.509.391.391 0 1 0 .406.669 2.74 2.74 0 0 1 4.157 2.344.391.391 0 1 0 .783 0 3.526 3.526 0 0 0-3.522-3.522z" class="cls-1" transform="translate(-339.813 -298.667)"/>
            </g>
        </g>
        <g id="그룹_34" transform="translate(0 93.159)">
            <g id="그룹_33">
                <path id="패스_18" d="M5.345 299.175A3.523 3.523 0 0 0 0 302.189a.391.391 0 1 0 .783 0 2.74 2.74 0 0 1 4.156-2.345.391.391 0 1 0 .406-.669z" class="cls-1" transform="translate(0 -298.667)"/>
            </g>
        </g>
    </g>
</svg>
