<svg xmlns="http://www.w3.org/2000/svg" id="add" width="18" height="18" viewBox="0 0 18 18">
    <defs>
        <style>
            .cls-1{fill:#f47423}
        </style>
    </defs>
    <g id="그룹_110">
        <g id="그룹_109">
            <path id="패스_58" d="M9 0a9 9 0 1 0 9 9 9.01 9.01 0 0 0-9-9zm0 16.606A7.606 7.606 0 1 1 16.606 9 7.615 7.615 0 0 1 9 16.606z" class="cls-1"/>
        </g>
    </g>
    <g id="그룹_112" transform="translate(4.817 4.754)">
        <g id="그룹_111">
            <path id="패스_59" d="M144.69 138.724h-2.79v-2.789a.7.7 0 0 0-1.394 0v2.789h-2.789a.7.7 0 1 0 0 1.394h2.789v2.789a.7.7 0 0 0 1.394 0v-2.789h2.789a.7.7 0 1 0 0-1.394z" class="cls-1" transform="translate(-137.022 -135.238)"/>
        </g>
    </g>
</svg>
