<?xml version="1.0" encoding="utf-8"?>
<!-- Generator: Adobe Illustrator 24.3.0, SVG Export Plug-In . SVG Version: 6.00 Build 0)  -->
<svg version="1.1" id="Layer_1" xmlns="http://www.w3.org/2000/svg" xmlns:xlink="http://www.w3.org/1999/xlink" x="0px" y="0px"
	 viewBox="0 0 30 30" style="enable-background:new 0 0 30 30;" xml:space="preserve">
<style type="text/css">
	.st0{fill:none;stroke:#EE7427;stroke-miterlimit:10;}
	.st1{fill:#EE7427;}
</style>
<circle class="st0" cx="15" cy="15" r="14.2"/>
<g>
	<path class="st1" d="M14.5,20.3h1c0.3,0,0.6,0.1,0.8,0.3c0.2,0.2,0.3,0.5,0.3,0.7v0.9c0,0.3-0.1,0.5-0.3,0.8s-0.5,0.3-0.8,0.3h-1.1
		c-0.3,0-0.5-0.1-0.8-0.3s-0.3-0.5-0.3-0.8v-0.9c0-0.3,0.1-0.6,0.3-0.8S14.2,20.3,14.5,20.3z M16.6,7.7l-0.5,8.2
		c0,0.3-0.1,0.6-0.3,0.8S15.3,17,15,17c-0.3,0-0.6-0.1-0.8-0.3c-0.2-0.2-0.3-0.5-0.3-0.7l-0.5-8.3c0-0.3,0.1-0.5,0.3-0.7
		c0.2-0.2,0.5-0.3,0.8-0.3h1.1c0.3,0,0.6,0.1,0.8,0.3C16.5,7.2,16.6,7.4,16.6,7.7z"/>
</g>
</svg>
