<?xml version="1.0" encoding="utf-8"?>
<!-- Generator: Adobe Illustrator 24.3.0, SVG Export Plug-In . SVG Version: 6.00 Build 0)  -->
<svg version="1.1" id="Layer_1" xmlns="http://www.w3.org/2000/svg" xmlns:xlink="http://www.w3.org/1999/xlink" x="0px" y="0px"
	 viewBox="0 0 6.1 10.6" style="enable-background:new 0 0 6.1 10.6;" xml:space="preserve">
<style type="text/css">
	.st0{fill:none;stroke:#0B2239;stroke-linejoin:round;stroke-miterlimit:10;}
	.st1{fill:#152B41;}
</style>
<path class="st0" d="M3,5.5"/>
<path class="st0" d="M3,5.5"/>
<path class="st0" d="M3,5.5"/>
<path class="st0" d="M3,5.5"/>
<g>
	<path class="st1" d="M0.3,4.8l4.4-4.5C5,0,5.5,0,5.8,0.3c0.3,0.3,0.3,0.8,0,1.1L1.9,5.3l3.9,3.9c0.3,0.3,0.3,0.8,0,1.1
		c-0.3,0.3-0.8,0.3-1.1,0L0.3,5.9C0.2,5.7,0.1,5.6,0.1,5.4C0.1,5.2,0.2,5,0.3,4.8z"/>
</g>
<path class="st0" d="M3.1,5.5"/>
<path class="st0" d="M3.1,5.5"/>
<path class="st0" d="M3.1,5.5"/>
<path class="st0" d="M3.1,5.5"/>
</svg>
