<svg xmlns="http://www.w3.org/2000/svg" width="21" height="22.616" viewBox="0 0 21 22.616">
  <g id="달력" transform="translate(-18.276)">
    <path id="패스_79" data-name="패스 79" d="M38.8,3.71a1.552,1.552,0,0,0-1.136-.48H36.046V2.019A1.945,1.945,0,0,0,35.452.593,1.945,1.945,0,0,0,34.026,0h-.807a1.944,1.944,0,0,0-1.426.593A1.944,1.944,0,0,0,31.2,2.019V3.231H26.353V2.019A1.944,1.944,0,0,0,25.76.593,1.944,1.944,0,0,0,24.334,0h-.808A1.945,1.945,0,0,0,22.1.593a1.945,1.945,0,0,0-.593,1.426V3.231H19.891a1.552,1.552,0,0,0-1.136.48,1.553,1.553,0,0,0-.48,1.136V21a1.638,1.638,0,0,0,1.615,1.615H37.661A1.638,1.638,0,0,0,39.276,21V4.846A1.553,1.553,0,0,0,38.8,3.71ZM23.526,21H19.891V17.365h3.635Zm0-4.442H19.891V12.52h3.635Zm0-4.846H19.891V8.077h3.635Zm-.284-5.774a.388.388,0,0,1-.12-.284V2.019a.409.409,0,0,1,.4-.4h.808a.41.41,0,0,1,.4.4V5.654a.41.41,0,0,1-.4.4h-.808A.388.388,0,0,1,23.242,5.938ZM28.372,21H24.334V17.365h4.039V21Zm0-4.442H24.334V12.52h4.039v4.038Zm0-4.846H24.334V8.077h4.039v3.634ZM33.219,21H29.18V17.365h4.039Zm0-4.442H29.18V12.52h4.039Zm0-4.846H29.18V8.077h4.039Zm-.284-5.774a.388.388,0,0,1-.12-.284V2.019a.409.409,0,0,1,.4-.4h.807a.409.409,0,0,1,.4.4V5.654a.409.409,0,0,1-.4.4h-.807A.387.387,0,0,1,32.935,5.938ZM37.661,21H34.026V17.365h3.635Zm0-4.442H34.026V12.52h3.635Zm0-4.846H34.026V8.077h3.635Z" fill="#a2a2a2"/>
  </g>
</svg>
