<?xml version="1.0" encoding="utf-8"?>
<!-- Generator: Adobe Illustrator 24.3.0, SVG Export Plug-In . SVG Version: 6.00 Build 0)  -->
<svg version="1.1" id="add" xmlns="http://www.w3.org/2000/svg" xmlns:xlink="http://www.w3.org/1999/xlink" x="0px" y="0px"
	 viewBox="0 0 18 18" style="enable-background:new 0 0 18 18;" xml:space="preserve">
<style type="text/css">
	.st0{fill:#F47423;}
</style>
<g>
	<g id="그룹_110">
		<g id="그룹_109">
			<path id="패스_58" class="st0" d="M9,0C4,0,0,4,0,9s4,9,9,9s9-4,9-9C18,4,14,0,9,0z M9,16.6c-4.2,0-7.6-3.4-7.6-7.6
				c0-4.2,3.4-7.6,7.6-7.6c4.2,0,7.6,3.4,7.6,7.6C16.6,13.2,13.2,16.6,9,16.6z"/>
		</g>
	</g>
	<g id="그룹_112" transform="translate(4.817 4.754)">
		<g id="그룹_111">
			<path id="패스_59_1_" class="st0" d="M7.7,4.9c0.4,0,0.7-0.2,0.8-0.6c0-0.4-0.2-0.7-0.6-0.8c0,0-0.1,0-0.1,0h0h-7
				C0.3,3.5,0,3.8-0.1,4.2c0,0.4,0.2,0.7,0.6,0.8c0,0,0.1,0,0.1,0H7.7z"/>
		</g>
	</g>
</g>
</svg>
