<svg xmlns="http://www.w3.org/2000/svg" id="excel-file" width="16.412" height="16.412" viewBox="0 0 16.412 16.412">
    <defs>
        <style>
            .cls-1{fill:#fff}
        </style>
    </defs>
    <path id="패스_54" d="M21.783 3H16v1.884h1.913v1.282H16v1.253h1.894v1.262H16v1.262h1.894v1.262H16v1.262h1.894v1.262H16v1.894h5.783a.541.541 0 0 0 .529-.549V3.549A.541.541 0 0 0 21.783 3zm-.733 10.731h-2.525v-1.263h2.525zm0-2.525h-2.525V9.943h2.525zm0-2.525h-2.525V7.419h2.525zm0-2.525h-2.525V4.894h2.525z" class="cls-1" transform="translate(-5.9 -1.106)"/>
    <path id="패스_55" d="M0 1.824v12.765l9.468 1.823V0zm5.989 9.589L4.888 9.33a1.847 1.847 0 0 1-.13-.43h-.017a3.241 3.241 0 0 1-.148.446l-1.105 2.066H1.772l2.038-3.2-1.864-3.2H3.7l.914 1.917a3.349 3.349 0 0 1 .192.539h.018q.054-.187.2-.557l1.016-1.9h1.6L5.726 8.188 7.7 11.412z" class="cls-1"/>
</svg>
