<svg xmlns="http://www.w3.org/2000/svg" width="200" height="66" viewBox="0 0 200 66">
    <g>
        <g>
            <path fill="rgba(255,255,255,0)" d="M0 0H66V66H0z" transform="translate(-73.667 -1.678) translate(74 2) translate(-.333 -.322)"/>
            <g>
                <path fill="#fbb584" d="M413.221 295.78c-.626-5.7 5.342-10.267 13.331-10.2s14.976 4.728 15.6 10.417-5.339 10.263-13.33 10.2-14.975-4.723-15.6-10.412m30.419 1.765c-.722-7.062-8.762-12.846-17.957-12.923s-16.067 5.59-15.344 12.65 8.76 12.844 17.96 12.923 16.069-5.59 15.343-12.653" transform="translate(-73.667 -1.678) translate(74 2) translate(8.525 10.776) translate(-395.384 -273.323)"/>
                <path fill="#f89c6d" d="M429.37 312.024c-4.529 4.739-11.8 5.128-16.239.879s-4.363-11.528.17-16.259 11.8-5.124 16.238-.879 4.363 11.53-.169 16.259m-16.781-15.53c-5.265 5.5-5.35 13.962-.193 18.9s13.61 4.479 18.873-1.021 5.355-13.963.195-18.9-13.609-4.48-18.874 1.022" transform="translate(-73.667 -1.678) translate(74 2) translate(8.525 10.776) translate(-394.997 -275.012)"/>
                <path fill="#f47423" d="M409.073 273.767c9.421-3.528 18.736.042 20.807 7.976s-3.887 17.236-13.307 20.762-18.738-.039-20.808-7.974 3.888-17.229 13.308-20.764m-8.75 3.035c-9.774 7.738-12.261 18.953-5.559 25.043s20.062 4.756 29.837-2.981 12.263-18.948 5.558-25.041-20.064-4.761-29.837 2.979" transform="translate(-73.667 -1.678) translate(74 2) translate(8.525 10.776) translate(-391.001 -270)"/>
            </g>
        </g>
        <text fill="#f47423" font-family="NotoSansKR-Bold, Noto Sans KR" font-size="28px" font-weight="700" transform="translate(-73.667 -1.678) translate(142.667 46.678)">
            <tspan x="0" y="0">HEIS</tspan><tspan y="0" fill="#000">.DAP</tspan>
        </text>
    </g>
</svg>
