<svg xmlns="http://www.w3.org/2000/svg" width="142" height="46" viewBox="0 0 142 46">
    <g>
        <g>
            <path fill="rgba(255,255,255,0)" d="M0 0H46V46H0z" transform="translate(-74 -2) translate(-434.022 -238.166) translate(508.022 240.166)"/>
            <g>
                <path fill="#fbb584" d="M412.352 292.475c-.441-4.01 3.76-7.226 9.383-7.181s10.541 3.328 10.981 7.332-3.757 7.223-9.382 7.178-10.54-3.324-10.982-7.328m21.409 1.242c-.508-4.97-6.167-9.041-12.638-9.1s-11.308 3.934-10.8 8.9 6.167 9.044 12.639 9.1 11.31-3.934 10.8-8.905" transform="translate(-74 -2) translate(-434.022 -238.166) translate(123.021 -22.249) translate(-8.797 -6.67)"/>
                <path fill="#f89c6d" d="M423.213 306.108a7.844 7.844 0 1 1 .119-11.443 8.1 8.1 0 0 1-.119 11.443m-11.813-10.93c-3.706 3.869-3.766 9.827-.136 13.3s9.579 3.153 13.283-.718 3.769-9.827.137-13.3-9.578-3.153-13.284.719" transform="translate(-74 -2) translate(-434.022 -238.166) translate(123.021 -22.249) translate(-8.02 -10.058)"/>
                <path fill="#f47423" d="M403.721 272.651c6.631-2.483 13.187.03 14.645 5.613S415.63 290.4 409 292.878s-13.189-.027-14.645-5.612 2.737-12.126 9.367-14.614m-6.158 2.136c-6.879 5.446-8.63 13.34-3.912 17.626s14.12 3.347 21-2.1 8.631-13.336 3.912-17.624-14.121-3.351-21 2.1" transform="translate(-74 -2) translate(-434.022 -238.166) translate(123.021 -22.249)"/>
            </g>
        </g>
        <text fill="#f47423" font-family="NotoSansKR-Bold, Noto Sans KR" font-size="20px" font-weight="700" transform="translate(-74 -2) translate(122 34)">
            <tspan x="0" y="0">HEIS</tspan><tspan y="0" fill="#000">.DAP</tspan>
        </text>
    </g>
</svg>
