<svg xmlns="http://www.w3.org/2000/svg" width="208.385" height="168.854" viewBox="0 0 208.385 168.854">
    <defs>
        <style>
            .cls-1{fill:#fff}.cls-1,.cls-2,.cls-3{fill-rule:evenodd}.cls-2{fill:#b5c4cf}.cls-3{fill:#d7e7ec}.cls-6{fill:#9aafb7}
        </style>
    </defs>
    <g id="메뉴를_선택하세요" transform="translate(-1098.5 -441.453)">
        <g id="paper" transform="translate(1098.5 467.194)">
            <g id="그룹_113" transform="translate(0 13.67)">
                <path id="패스_60" d="M18.775 124.048L.084 72.073A1.475 1.475 0 0 1 .971 70.2c24.575-8.839 52.267-17.059 75.939-27.16 1.058-.667 1.888-.008 2.344 1.253l29.368 75.7 7.975 22.178a1.468 1.468 0 0 1-.879 1.872l-56.2 20.209-21.906 7.879a1.464 1.464 0 0 1-1.872-.879z" class="cls-1" transform="translate(0 -42.777)"/>
            </g>
            <g id="그룹_114" transform="translate(25.003 8.009)">
                <path id="패스_61" d="M99.508 92.051l-9.334-54.433a1.466 1.466 0 0 1 1.188-1.693l64.278-11.02 14.721-2.425c.806-.35 2.116.057 2.425 1.856l15.9 79.4 3.979 23.229a1.471 1.471 0 0 1-1.188 1.693l-58.858 10.092-22.948 3.939a1.482 1.482 0 0 1-1.693-1.2z" class="cls-1" transform="translate(-90.153 -22.365)"/>
            </g>
            <g id="그룹_115" transform="translate(52.367 2.499)">
                <path id="패스_62" d="M188.814 61.645v52.333a1.532 1.532 0 0 0 1.522 1.53h86.591a1.532 1.532 0 0 0 1.522-1.53V20.764h-15.462c-1.489 0-4.581.212-4.581-3.166l-.033-15.1h-68.037a1.525 1.525 0 0 0-1.522 1.522v57.625z" class="cls-1" transform="translate(-188.814 -2.5)"/>
            </g>
            <g id="그룹_116" transform="translate(0 32.288)">
                <path id="패스_63" d="M26.571 109.9c-8.707 2.93-17.333 5.836-25.6 8.806a1.475 1.475 0 0 0-.887 1.872l18.692 51.975 16.967 47.206a1.464 1.464 0 0 0 1.872.879l21.906-7.879 49.915-17.946z" class="cls-2" transform="translate(0 -109.905)"/>
            </g>
            <g id="그룹_117" transform="translate(25.003 17.084)">
                <path id="패스_64" d="M117.516 55.088l-26.154 4.484a1.466 1.466 0 0 0-1.188 1.693l1.546 9.026 7.788 45.409 8.471 49.444a1.482 1.482 0 0 0 1.693 1.2l22.948-3.939 41.965-7.195 9.871-1.693h-5.167z" class="cls-3" transform="translate(-90.153 -55.088)"/>
            </g>
            <g id="그룹_118" transform="translate(52.367 2.499)">
                <path id="패스_65" fill="#edf3f4" fill-rule="evenodd" d="M278.448 89.391V20.528c0-.44-.187-.513-.863-1.172L260.9 3.436c-.789-.749-.919-.936-1.383-.936h-69.181a1.525 1.525 0 0 0-1.522 1.522v109.956a1.532 1.532 0 0 0 1.522 1.53h86.591a1.532 1.532 0 0 0 1.522-1.53z" transform="translate(-188.814 -2.5)"/>
            </g>
            <g id="그룹_119" transform="translate(46.24 17.084)">
                <path id="패스_66" d="M172.849 55.088l-6.127 1.05v101.468a1.527 1.527 0 0 0 1.522 1.53h38.742l22.931-3.931 9.871-1.693h-65.417a1.532 1.532 0 0 1-1.522-1.53V55.088z" class="cls-2" transform="translate(-166.722 -55.088)"/>
            </g>
            <g id="그룹_120" transform="translate(20.273 32.288)">
                <path id="패스_67" fill="#9aafb7" fill-rule="evenodd" d="M87.181 155.312L79.394 109.9q-3.161 1.062-6.3 2.124l.968 5.64 7.788 45.407 8.48 49.449a1.47 1.47 0 0 0 1.684 1.2l22.948-3.939 10.888-1.864 32.794-11.8-.39-.61-18.928 3.247-19.033 3.264-22.948 3.939a1.482 1.482 0 0 1-1.693-1.2z" transform="translate(-73.095 -109.905)"/>
            </g>
            <g id="그룹_121" transform="translate(104.992 2.499)">
                <path id="패스_68" d="M415.568 89.391V20.764c0-.822-.268-.83-.863-1.408l-16.69-15.92c-.789-.749-.919-.936-1.383-.936h-18.073c20.694 27.7 21.873 77.645 6.518 108.817-.708 1.449-1.449 2.841-2.222 4.192h31.191a1.532 1.532 0 0 0 1.522-1.53z" class="cls-3" transform="translate(-378.559 -2.5)"/>
            </g>
            <g id="그룹_122" transform="translate(121.926 2.499)">
                <path id="패스_69" d="M439.649 17.6c0 3.378 3.092 3.166 4.581 3.166h15.461v-.236c0-.44-.187-.513-.863-1.172L442.14 3.435c-.789-.749-.919-.936-1.383-.936h-1.139z" class="cls-1" transform="translate(-439.617 -2.499)"/>
            </g>
            <g id="그룹_123" transform="translate(121.926 2.499)">
                <path id="패스_70" d="M458.83 19.356l-16.69-15.92c-.789-.749-.919-.936-1.383-.936h-1.139l.032 15.1c0 3.378 3.092 3.166 4.581 3.166h15.461v-.236c0-.442-.192-.515-.862-1.174z" class="cls-2" transform="translate(-439.617 -2.5)"/>
            </g>
            <g id="그룹_124" transform="translate(64.839 31.495)">
                <path id="패스_71" d="M297.193 111.335h-61.266a2.144 2.144 0 0 1 0-4.287h61.267a2.144 2.144 0 0 1 0 4.287z" class="cls-6" transform="translate(-233.784 -107.048)"/>
            </g>
            <g id="그룹_125" transform="translate(64.839 46.723)">
                <path id="패스_72" d="M297.193 166.24h-61.266a2.144 2.144 0 0 1 0-4.287h61.267a2.144 2.144 0 0 1 0 4.287z" class="cls-6" transform="translate(-233.784 -161.953)"/>
            </g>
            <g id="그룹_126" transform="translate(64.839 61.951)">
                <path id="패스_73" d="M297.193 221.146h-61.266a2.144 2.144 0 0 1 0-4.287h61.267a2.144 2.144 0 0 1 0 4.287z" class="cls-6" transform="translate(-233.784 -216.859)"/>
            </g>
            <g id="그룹_127" transform="translate(64.839 77.179)">
                <path id="패스_74" d="M297.193 276.052h-61.266a2.144 2.144 0 0 1 0-4.287h61.267a2.144 2.144 0 0 1 0 4.287z" class="cls-6" transform="translate(-233.784 -271.765)"/>
            </g>
            <g id="그룹_128" transform="translate(64.839 92.407)">
                <path id="패스_75" d="M297.193 330.958h-61.266a2.144 2.144 0 0 1 0-4.287h61.267a2.144 2.144 0 0 1 0 4.287z" class="cls-6" transform="translate(-233.784 -326.671)"/>
            </g>
        </g>
        <g id="chat" transform="translate(1247.351 441.453)">
            <g id="그룹_129" transform="translate(4.082)">
                <path id="패스_76" fill="#d7e7ec" d="M59.469 25.852A27.732 27.732 0 0 0 27.1.382a27.971 27.971 0 0 0-22.954 29.21 27.62 27.62 0 0 0 8.06 17.8 21.8 21.8 0 0 1-5.223 5.287 1.752 1.752 0 0 0-.645 1.87 1.905 1.905 0 0 0 1.29 1.483 13.64 13.64 0 0 0 4 .451 25.488 25.488 0 0 0 11.09-2.515 27.573 27.573 0 0 0 13.928 1.1 28 28 0 0 0 22.823-29.216zm-40.557 6.9a4.514 4.514 0 1 1 4.514-4.514 4.486 4.486 0 0 1-4.515 4.513zm12.9 0a4.514 4.514 0 1 1 4.514-4.514 4.486 4.486 0 0 1-4.519 4.513zm12.9 0a4.514 4.514 0 1 1 4.514-4.514 4.486 4.486 0 0 1-4.526 4.513z" transform="translate(-4.082)"/>
            </g>
        </g>
    </g>
</svg>
