<?xml version="1.0" encoding="utf-8"?>
<!-- Generator: Adobe Illustrator 24.3.0, SVG Export Plug-In . SVG Version: 6.00 Build 0)  -->
<svg version="1.1" id="Layer_1" xmlns="http://www.w3.org/2000/svg" xmlns:xlink="http://www.w3.org/1999/xlink" x="0px" y="0px"
	 viewBox="0 0 16.5 16.5" style="enable-background:new 0 0 16.5 16.5;" xml:space="preserve">
<style type="text/css">
	.st0{fill:#FFFFFF;}
</style>
<path class="st0" d="M16.2,10.4c-0.5-0.6-1.5-0.8-2.9-0.8c-0.8,0-1.7,0.1-2.5,0.2c-1-0.9-1.8-2-2.4-3.2c0.5-1.7,0.8-3.1,0.8-4.1
	C9.1,1.3,8.7,0,7.4,0C7,0,6.6,0.2,6.3,0.6C5.8,1.7,6,3.7,6.9,5.8c-0.7,2-1.5,3.9-2.4,5.7C2.9,12.3,0.2,13.6,0,15
	c-0.1,0.3,0,0.7,0.3,1c0.2,0.2,0.6,0.5,1.2,0.5c1.7,0,3.5-2.5,4.7-4.7c1.4-0.5,2.8-0.9,4.3-1.2c1.9,1.7,3.5,1.9,4.4,1.9
	c1.1,0,1.5-0.5,1.6-0.8C16.6,11.3,16.5,10.8,16.2,10.4z M15,10.9c0.1,0.2,0,0.4-0.1,0.5c-0.2,0.2-0.6,0.3-1,0.2
	c-0.9-0.2-1.7-0.7-2.3-1.2c1.4-0.2,2.4-0.1,2.8,0C14.7,10.5,14.9,10.7,15,10.9z M6.7,10.8c0.5-1,1-2.1,1.3-3.2
	C8.5,8.4,9.1,9.2,9.8,10C8.7,10.2,7.7,10.5,6.7,10.8z M7,1c0.1-0.2,0.3-0.2,0.4-0.2c0.2,0.1,0.4,0.3,0.4,0.9c0,0.7-0.2,1.7-0.5,2.9
	C6.7,2.8,6.8,1.5,7,1z M0.8,15.1c0.1-0.5,1.1-1.5,3.1-2.4c-1.2,2-2.2,2.9-2.7,2.9c-0.1,0-0.2,0-0.3-0.1C0.8,15.4,0.8,15.2,0.8,15.1z
	"/>
</svg>
