<svg xmlns="http://www.w3.org/2000/svg" width="16" height="15.983" viewBox="0 0 16 15.983">
    <defs>
        <style>
            .cls-1{fill:#fff}
        </style>
    </defs>
    <g id="pencil" transform="translate(0 -.27)">
        <g id="그룹_91" transform="translate(1.667 .27)">
            <g id="그룹_90">
                <path id="패스_52" d="M67.415 2.484c-.007-.011-.011-.024-.019-.035a1.675 1.675 0 0 0-.212-.26L65.736.742a1.707 1.707 0 0 0-2.357 0l-10.04 10.04 3.8 3.8L67.184 4.546a1.675 1.675 0 0 0 .212-.26c.007-.011.011-.023.019-.035a1.646 1.646 0 0 0 0-1.767zm-1.84.339l-9.333 9.333a.334.334 0 1 1-.472-.471l9.33-9.334a.334.334 0 0 1 .472.471z" class="cls-1" transform="translate(-53.339 -.27)"/>
            </g>
        </g>
        <g id="그룹_93" transform="translate(0 11.35)">
            <g id="그룹_92">
                <path id="패스_53" d="M1.292 354.83l-1.279 4.478a.334.334 0 0 0 .321.425.306.306 0 0 0 .091-.013l4.475-1.279z" class="cls-1" transform="translate(0 -354.83)"/>
            </g>
        </g>
    </g>
</svg>
