<?xml version="1.0" encoding="utf-8"?>
<!-- Generator: Adobe Illustrator 24.3.0, SVG Export Plug-In . SVG Version: 6.00 Build 0)  -->
<svg version="1.1" id="Layer_1" xmlns="http://www.w3.org/2000/svg" xmlns:xlink="http://www.w3.org/1999/xlink" x="0px" y="0px"
	 viewBox="0 0 21 20.2" style="enable-background:new 0 0 21 20.2;" xml:space="preserve">
<style type="text/css">
	.st0{fill:#FFFFFF;}
</style>
<g id="업로드" transform="translate(0 -9.136)">
	<g id="그룹_130" transform="translate(0 9.136)">
		<path id="패스_77" class="st0" d="M20.6,14.1c-0.2-0.2-0.5-0.4-0.9-0.4h-5.4c-0.2,0.5-0.5,0.9-0.9,1.2c-0.4,0.3-0.9,0.5-1.4,0.5
			H8.9c-0.5,0-1-0.2-1.4-0.5c-0.4-0.3-0.7-0.7-0.9-1.2H1.2c-0.3,0-0.6,0.1-0.9,0.4C0.1,14.3,0,14.6,0,14.9v4c0,0.3,0.1,0.6,0.4,0.9
			c0.2,0.2,0.5,0.4,0.9,0.4h18.6c0.7,0,1.2-0.5,1.2-1.2c0,0,0,0,0,0v-4C21,14.6,20.9,14.3,20.6,14.1z M15.9,18.3
			c-0.3,0.3-0.8,0.3-1.1,0c-0.3-0.3-0.3-0.8,0-1.1c0.3-0.3,0.8-0.3,1.1,0c0.1,0.1,0.2,0.3,0.2,0.6C16.2,18,16.1,18.2,15.9,18.3
			L15.9,18.3z M19.1,18.3c-0.3,0.3-0.8,0.3-1.1,0c-0.3-0.3-0.3-0.8,0-1.1c0.3-0.3,0.8-0.3,1.1,0c0.1,0.1,0.2,0.3,0.2,0.6
			C19.4,18,19.3,18.2,19.1,18.3L19.1,18.3z"/>
		<path id="패스_78" class="st0" d="M4.8,7.3h3.2v5.7c0,0.4,0.4,0.8,0.8,0.8h3.2c0.4,0,0.8-0.4,0.8-0.8V7.3h3.2
			c0.3,0,0.6-0.2,0.7-0.5c0.1-0.3,0.1-0.7-0.2-0.9l-5.7-5.7c-0.3-0.3-0.8-0.3-1.1,0c0,0,0,0,0,0L4.3,5.9C4,6.1,4,6.5,4.1,6.8
			C4.2,7.1,4.5,7.3,4.8,7.3z"/>
	</g>
</g>
</svg>
