<?xml version="1.0" encoding="utf-8"?><!DOCTYPE svg PUBLIC "-//W3C//DTD SVG 1.1//EN" "http://www.w3.org/Graphics/SVG/1.1/DTD/svg11.dtd"><svg width="636" height="215" viewBox="0 0 636 215" xmlns="http://www.w3.org/2000/svg" xmlns:xlink="http://www.w3.org/1999/xlink"><svg width="20" height="18" viewBox="0 0 20 18" id="shared_asset_images_Alert" x="605" y="75"><path d="M9.5 16A1.5 1.5 0 0 1 8 14.5H7a2.5 2.5 0 0 0 5 0h-1A1.5 1.5 0 0 1 9.5 16zM9 2.656V1.5a.5.5 0 0 1 1 0v1.156h1V1.5a1.5 1.5 0 0 0-3 0v1.156h1z" fill-rule="evenodd" clip-rule="evenodd" fill="#656565"/><path d="M16.993 12.82c0-1.03-.975-1.257-1.998-2.275-.733-.73-.725-1.474-1.147-4.136-.75-4.745-4.35-4.418-4.35-4.418h-.003S5.898 1.665 5.147 6.41C4.725 9.07 4.732 9.814 4 10.544c-1.024 1.018-2 1.245-2 2.275 0 .25.005 1.1.005 1.1s-.078 1.077 1.044 1.077h12.896c1.12 0 1.043-1.076 1.043-1.076l.003-1.1zm-1 .67c0 .273-.092.523-.482.523H3.484c-.39 0-.48-.25-.48-.523L3 13.003s-.006-.393.294-.615c.47-.348 1.005-.77 1.2-.937.17-.146 1.038-.873 1.247-2.406.386-2.83.497-5.743 3.644-6.013h.227c3.148.27 3.258 3.183 3.644 6.014.21 1.533 1.075 2.26 1.245 2.407.195.17.73.59 1.2.938.3.222.294.615.294.615l-.002.487z" fill-rule="evenodd" clip-rule="evenodd" fill="#656565"/></svg><svg width="12" height="12" viewBox="0 0 12 12" id="shared_asset_images_common-controls_chevron_left_12px-xsmall" x="270" y="95"><path fill="#666" fill-rule="evenodd" d="M7.707 10l-4-4 4-4L7 1.293 2.646 5.646a.5.5 0 0 0 0 .708L7 10.707 7.707 10z"/></svg><svg width="12" height="12" viewBox="0 0 12 12" id="shared_asset_images_common-controls_chevron_left_disabled_12px-xsmall" x="240" y="95"><path fill="#bfbfbf" fill-rule="evenodd" d="M7.707 10l-4-4 4-4L7 1.293 2.646 5.646a.5.5 0 0 0 0 .708L7 10.707 7.707 10z"/></svg><svg width="12" height="12" viewBox="0 0 12 12" id="shared_asset_images_common-controls_chevron_right_12px-xsmall" x="225" y="95"><path fill="#666" fill-rule="evenodd" d="M3.5 10l4-4-4-4 .707-.707L8.56 5.646a.5.5 0 0 1 0 .708l-4.353 4.353L3.5 10z"/></svg><svg width="12" height="12" viewBox="0 0 12 12" id="shared_asset_images_common-controls_chevron_right_disabled_12px-xsmall" x="210" y="95"><path fill="#bfbfbf" fill-rule="evenodd" d="M3.5 10l4-4-4-4 .707-.707L8.56 5.646a.5.5 0 0 1 0 .708l-4.353 4.353L3.5 10z"/></svg><svg width="14" height="14" viewBox="0 0 14 14" id="shared_asset_images_common-controls_clear_14px-small" x="345" y="95"><path fill="#666" fill-rule="evenodd" d="M12.314 1l.707.707L7.718 7.01l5.304 5.304-.706.707L7.01 7.718 1.707 13.02 1 12.315 6.303 7.01 1 1.707 1.707 1 7.01 6.303z"/></svg><svg width="12" height="12" viewBox="0 0 12 12" id="shared_asset_images_common-controls_triangle_down_12px-xsmall" x="195" y="95"><path fill="#666" fill-rule="evenodd" d="M5.727 8.658l-3.272-4.09A.35.35 0 0 1 2.728 4h6.544a.35.35 0 0 1 .273.57L6.273 8.657a.35.35 0 0 1-.546 0z"/></svg><svg width="12" height="12" viewBox="0 0 12 12" id="shared_asset_images_common-controls_triangle_down_disabled_12px-xsmall" x="255" y="95"><path fill="#bfbfbf" fill-rule="evenodd" d="M5.727 8.658l-3.272-4.09A.35.35 0 0 1 2.728 4h6.544a.35.35 0 0 1 .273.57L6.273 8.657a.35.35 0 0 1-.546 0z"/></svg><svg width="16" height="16" viewBox="0 0 16 16" id="shared_asset_images_components_dropdown_Dropdown_Arrow" x="390" y="120"><path d="M4.8 6.3l3.5 4.6c.1.1.2.1.3 0l3.6-4.6c.1-.2 0-.3-.2-.3H5c-.2 0-.3.1-.2.3z" fill="#666"/></svg><svg width="16" height="16" viewBox="0 0 16 16" id="shared_asset_images_components_dropdown_Dropdown_Arrow_Active" x="370" y="120"><path d="M4.8 6.3l3.5 4.6c.1.1.2.1.3 0l3.6-4.6c.1-.2 0-.3-.2-.3H5c-.2 0-.3.1-.2.3z" fill="#333"/></svg><svg id="shared_asset_images_components_toast_Toast_Close_X_Hover" width="19" height="19" viewBox="0 0 19 19" x="350" y="120"><style>.akst0{opacity:.6}</style><path id="akX" class="akst0" d="M10.9 9.5l3.8-3.8c.4-.4.4-1 0-1.4s-1-.4-1.4 0L9.5 8.1 5.7 4.3c-.4-.4-1-.4-1.4 0s-.4 1 0 1.4l3.8 3.8-3.8 3.8c-.4.4-.4 1 0 1.4s1 .4 1.4 0l3.8-3.8 3.8 3.8c.4.4 1 .4 1.4 0s.4-1 0-1.4l-3.8-3.8z"/></svg><svg id="shared_asset_images_components_toast_Toast_Close_X_Normal" width="19" height="19" viewBox="0 0 19 19" x="330" y="120"><style>.alst0{opacity:.3}</style><path id="alX" class="alst0" d="M10.9 9.5l3.8-3.8c.4-.4.4-1 0-1.4s-1-.4-1.4 0L9.5 8.1 5.7 4.3c-.4-.4-1-.4-1.4 0s-.4 1 0 1.4l3.8 3.8-3.8 3.8c-.4.4-.4 1 0 1.4s1 .4 1.4 0l3.8-3.8 3.8 3.8c.4.4 1 .4 1.4 0s.4-1 0-1.4l-3.8-3.8z"/></svg><svg width="15" height="15" viewBox="0 0 15 15" id="shared_asset_images_data-alerts_Public_Private_Info" x="510" y="120"><path fill-rule="evenodd" clip-rule="evenodd" fill="#666766" d="M7 6h1v5H7zM7 4h1v1H7z"/><path d="M7.5 1C3.9 1 1 3.9 1 7.5S3.9 14 7.5 14 14 11.1 14 7.5 11.1 1 7.5 1zm0 12C4.5 13 2 10.5 2 7.5S4.5 2 7.5 2 13 4.5 13 7.5 10.5 13 7.5 13z" fill-rule="evenodd" clip-rule="evenodd" fill="#666766"/></svg><svg id="shared_asset_images_dialog_status_alert" width="18" height="18" viewBox="0 0 18 18" x="450" y="120"><style>.anst0{fill:#ea4554}.anst1{fill-rule:evenodd;clip-rule:evenodd;fill:#333}.anst2{fill:#FFF}</style><g id="anExclamationMark_1_"><path id="anTriangle_2_" class="anst0" d="M1 14.4L8.1 1.6c.4-.8 1.3-.8 1.7 0L17 14.4c.4.7-.1 1.6-1 1.6H2c-.8 0-1.4-.9-1-1.6z"/><path id="anSquare_2_" class="anst1" d="M8 12h2v2H8z"/><path id="anLine_1_" class="anst1" d="M8 5h2v6H8z"/><path id="anBottomDot_1_" class="anst2" d="M8 12h2v2H8z"/><path id="anTopLine_1_" class="anst2" d="M8 5h2v6H8z"/></g></svg><svg width="16" height="16" viewBox="0 0 16 16" id="shared_asset_images_filters_QF_Categorical_CheckBox_Selected" x="505" y="75"><path d="M15 0H2c-.55 0-1 .45-1 1v13c0 .55.45 1 1 1h13c.55 0 1-.45 1-1V1c0-.55-.45-1-1-1zm0 14H2V1h13v13z" fill="#666"/><path fill="#FFF" d="M2 1h13v13H2z"/><path d="M7.7 11.8c-.2 0-.4-.1-.5-.2l-3-3 1.1-1.1 2.3 2.3 4-6.7 1.3.8-4.5 7.6c-.2.2-.4.3-.7.3z" fill="#666"/></svg><svg width="16" height="16" viewBox="0 0 16 16" id="shared_asset_images_filters_QF_Categorical_CheckBox_Selected_Active" x="525" y="75"><path d="M15 0H2c-.55 0-1 .45-1 1v13c0 .55.45 1 1 1h13c.55 0 1-.45 1-1V1c0-.55-.45-1-1-1zm0 14H2V1h13v13z" fill="#333"/><path fill="#FFF" d="M2 1h13v13H2z"/><path d="M7.7 11.8c-.2 0-.4-.1-.5-.2l-3-3 1.1-1.1 2.3 2.3 4-6.7 1.3.8-4.5 7.6c-.2.2-.4.3-.7.3z" fill="#333"/></svg><svg width="17" height="17" viewBox="0 0 17 17" id="shared_asset_images_filters_QF_Categorical_CheckBox_Selected_Disabled" x="470" y="120"><path d="M2 2v13h13V2H2z" opacity=".25" fill="#FFF"/><path d="M15 1H2c-.5 0-1 .5-1 1v13c0 .5.5 1 1 1h13c.5 0 1-.5 1-1V2c0-.5-.5-1-1-1zm0 14H2V2h13v13z" opacity=".25" fill="#333"/><path d="M7.7 12.8c-.2 0-.4-.1-.5-.2l-3-3 1.1-1.1 2.3 2.3 4-6.7 1.3.8-4.5 7.6c-.2.2-.4.3-.7.3z" opacity=".25" fill="#333"/></svg><svg width="16" height="16" viewBox="0 0 16 16" id="shared_asset_images_filters_QF_Categorical_CheckBox_Unselected" x="545" y="75"><path d="M15 0H2c-.55 0-1 .45-1 1v13c0 .55.45 1 1 1h13c.55 0 1-.45 1-1V1c0-.55-.45-1-1-1zm0 14H2V1h13v13z" fill="#cbcbcb"/><path fill="#FFF" d="M2 1h13v13H2z"/></svg><svg width="16" height="16" viewBox="0 0 16 16" id="shared_asset_images_filters_QF_Categorical_CheckBox_Unselected_Active" x="565" y="75"><path d="M15 0H2c-.55 0-1 .45-1 1v13c0 .55.45 1 1 1h13c.55 0 1-.45 1-1V1c0-.55-.45-1-1-1zm0 14H2V1h13v13z" fill="#333"/><path fill="#FFF" d="M2 1h13v13H2z"/></svg><svg width="16" height="16" viewBox="0 0 16 16" id="shared_asset_images_filters_QF_Categorical_CheckBox_Unselected_Disabled" x="585" y="75"><path d="M15 0H2c-.55 0-1 .45-1 1v13c0 .55.45 1 1 1h13c.55 0 1-.45 1-1V1c0-.55-.45-1-1-1zm0 14H2V1h13v13z" fill="#cbcbcb"/><path fill="#FFF" d="M2 1h13v13H2z"/></svg><svg viewBox="0 0 15 15" width="15" height="15" id="shared_asset_images_filters_QF_Categorical_RadioButton_Selected" x="250" y="120"><path d="M7.5 1C3.9 1 1 3.9 1 7.5S3.9 14 7.5 14 14 11.1 14 7.5 11.1 1 7.5 1z" fill="#FFF"/><path d="M7.5 2c3 0 5.5 2.5 5.5 5.5S10.5 13 7.5 13 2 10.5 2 7.5 4.5 2 7.5 2m0-1C3.9 1 1 3.9 1 7.5S3.9 14 7.5 14 14 11.1 14 7.5 11.1 1 7.5 1z" fill="#666766"/><circle cx="7.5" cy="7.5" r="2.5" fill="#666766"/></svg><svg viewBox="0 0 15 15" width="15" height="15" id="shared_asset_images_filters_QF_Categorical_RadioButton_Selected_Active" x="270" y="120"><path d="M7.5 1C3.9 1 1 3.9 1 7.5S3.9 14 7.5 14 14 11.1 14 7.5 11.1 1 7.5 1z" fill="#FFF"/><path d="M7.5 2c3 0 5.5 2.5 5.5 5.5S10.5 13 7.5 13 2 10.5 2 7.5 4.5 2 7.5 2m0-1C3.9 1 1 3.9 1 7.5S3.9 14 7.5 14 14 11.1 14 7.5 11.1 1 7.5 1z" fill="#333"/><circle cx="7.5" cy="7.5" r="2.5" fill="#333"/></svg><svg viewBox="0 0 15 15" width="15" height="15" id="shared_asset_images_filters_QF_Categorical_RadioButton_Unselected" x="290" y="120"><path d="M7.5 1C3.9 1 1 3.9 1 7.5S3.9 14 7.5 14 14 11.1 14 7.5 11.1 1 7.5 1z" fill="#FFF"/><path d="M7.5 2c3 0 5.5 2.5 5.5 5.5S10.5 13 7.5 13 2 10.5 2 7.5 4.5 2 7.5 2m0-1C3.9 1 1 3.9 1 7.5S3.9 14 7.5 14 14 11.1 14 7.5 11.1 1 7.5 1z" fill="#cbcbca"/><path d="M7.5 2c3 0 5.5 2.5 5.5 5.5S10.5 13 7.5 13 2 10.5 2 7.5 4.5 2 7.5 2m0-1C3.9 1 1 3.9 1 7.5S3.9 14 7.5 14 14 11.1 14 7.5 11.1 1 7.5 1z" fill="#cbcbca"/></svg><svg viewBox="0 0 15 15" width="15" height="15" id="shared_asset_images_filters_QF_Categorical_RadioButton_Unselected_Active" x="310" y="120"><path d="M7.5 1C3.9 1 1 3.9 1 7.5S3.9 14 7.5 14 14 11.1 14 7.5 11.1 1 7.5 1z" fill="#FFF"/><path d="M7.5 2c3 0 5.5 2.5 5.5 5.5S10.5 13 7.5 13 2 10.5 2 7.5 4.5 2 7.5 2m0-1C3.9 1 1 3.9 1 7.5S3.9 14 7.5 14 14 11.1 14 7.5 11.1 1 7.5 1z" fill="#333"/></svg><svg width="14" height="14" viewBox="0 0 14 14" id="shared_asset_images_filters_Set_Include_All" x="315" y="95"><style>.ayst0{fill-rule:evenodd;clip-rule:evenodd;fill:#c94639}.ayst1{fill:#666}</style><path id="ayX_9_" class="ayst0" d="M14 8.68L13.31 8 11.5 9.814 9.69 8 9 8.68l1.815 1.82L9 12.32l.69.68 1.81-1.814L13.31 13l.69-.68-1.815-1.82z"/><path id="ayCircles_1_" class="ayst1" d="M7.983 5.334A3.492 3.492 0 0 0 4.5 2 3.5 3.5 0 0 0 1 5.5c0 1.4.828 2.6 2.016 3.16A3.492 3.492 0 0 0 6.5 12c.54 0 1.044-.132 1.5-.35v-1.16c-.42.315-.934.51-1.5.51a2.497 2.497 0 0 1-2.454-2.046c.15.02.298.046.454.046a3.49 3.49 0 0 0 3.36-2.572c.238.16.456.344.63.572h1.16a3.528 3.528 0 0 0-1.667-1.666zM2 5.5a2.498 2.498 0 0 1 4.953-.467C6.803 5.013 6.653 5 6.5 5a3.49 3.49 0 0 0-3.365 2.59A2.495 2.495 0 0 1 2 5.5zM4.5 8c-.15 0-.294-.02-.437-.044A2.498 2.498 0 0 1 6.5 6c.15 0 .292.027.434.052A2.498 2.498 0 0 1 4.5 8z"/></svg><svg width="14" height="14" viewBox="0 0 14 14" id="shared_asset_images_filters_Set_Include_All_Active" x="300" y="95"><style>.azst0{fill-rule:evenodd;clip-rule:evenodd;fill:#c93a47}.azst1{fill:#333}</style><path id="azX_8_" class="azst0" d="M14 8.68L13.31 8 11.5 9.814 9.69 8 9 8.68l1.815 1.82L9 12.32l.69.68 1.81-1.814L13.31 13l.69-.68-1.815-1.82z"/><path id="azCircles_2_" class="azst1" d="M7.983 5.334A3.492 3.492 0 0 0 4.5 2 3.5 3.5 0 0 0 1 5.5c0 1.4.828 2.6 2.016 3.16A3.492 3.492 0 0 0 6.5 12c.54 0 1.044-.132 1.5-.35v-1.16c-.42.315-.934.51-1.5.51a2.497 2.497 0 0 1-2.454-2.046c.15.02.298.046.454.046a3.49 3.49 0 0 0 3.36-2.572c.238.16.456.344.63.572h1.16a3.528 3.528 0 0 0-1.667-1.666zM2 5.5a2.498 2.498 0 0 1 4.953-.467C6.803 5.013 6.653 5 6.5 5a3.49 3.49 0 0 0-3.365 2.59A2.495 2.495 0 0 1 2 5.5zM4.5 8c-.15 0-.294-.02-.437-.044A2.498 2.498 0 0 1 6.5 6c.15 0 .292.027.434.052A2.498 2.498 0 0 1 4.5 8z"/></svg><svg width="14" height="14" viewBox="0 0 14 14" id="shared_asset_images_filters_Set_Included_All" x="330" y="95"><style>.bast0{fill:#666}</style><path id="baCircles" class="bast0" d="M7.984 5.34A3.492 3.492 0 0 0 4.5 2 3.5 3.5 0 0 0 1 5.5c0 1.4.828 2.6 2.016 3.16A3.492 3.492 0 0 0 6.5 12 3.5 3.5 0 0 0 10 8.5c0-1.4-.828-2.6-2.016-3.16zM2 5.5a2.497 2.497 0 0 1 4.954-.454C6.804 5.026 6.656 5 6.5 5a3.49 3.49 0 0 0-3.365 2.59A2.495 2.495 0 0 1 2 5.5zm4.937.544A2.498 2.498 0 0 1 4.5 8c-.15 0-.294-.02-.437-.044A2.498 2.498 0 0 1 6.5 6c.15 0 .294.02.437.044zM6.5 11a2.497 2.497 0 0 1-2.454-2.046c.15.02.298.046.454.046a3.49 3.49 0 0 0 3.365-2.59A2.495 2.495 0 0 1 9 8.5 2.5 2.5 0 0 1 6.5 11z"/></svg><svg width="14" height="14" viewBox="0 0 14 14" id="shared_asset_images_filters_Set_Included_All_Active" x="285" y="95"><path d="M8 5.3C7.9 3.5 6.4 2 4.5 2S1 3.6 1 5.5c0 1.4.8 2.6 2 3.2.1 1.8 1.6 3.3 3.5 3.3S10 10.4 10 8.5c0-1.4-.8-2.6-2-3.2zm-6 .2C2 4.1 3.1 3 4.5 3c1.2 0 2.2.9 2.5 2h-.5c-1.6 0-3 1.1-3.4 2.6C2.5 7.1 2 6.4 2 5.5zm4.9.5c-.2 1.2-1.2 2-2.4 2h-.4c.2-1.1 1.2-2 2.4-2h.4zm-.4 5c-1.2 0-2.2-.9-2.5-2h.5c1.6 0 3-1.1 3.4-2.6.6.5 1.1 1.2 1.1 2.1C9 9.9 7.9 11 6.5 11z" fill="#333"/></svg><svg width="16" height="16" viewBox="0 0 16 16" id="shared_asset_images_legends_QF_LegendHighlight_Off" x="190" y="120"><path d="M3.2 11.5c-.1-.1-.1 0-.1.1v1.2c-.1.2 0 .2.1.2l1.2-.5c.1 0 .1-.1 0-.1l-1.2-.9zM3.5 9.5s-.1 0-.1.1v.9c0 .1 0 .1.1.1l2 1.2h.2l.9-.4c.1 0 0-.1 0-.1L3.5 9.5zM9.6 3.9l-1.4-.8c-.4-.3-1.1-.1-1.4.4L4.3 7.7c-.3.5-.1 1.1.4 1.4l1.5.9c.5.3 1.1.1 1.4-.4L10 5.3c.3-.5.1-1.1-.4-1.4zm-3 5.3l-1.5-.9L7.7 4l1.4.8-2.5 4.4z" fill-rule="evenodd" clip-rule="evenodd" fill="#666"/></svg><svg width="16" height="16" viewBox="0 0 16 16" id="shared_asset_images_legends_QF_LegendHighlight_Off_Active" x="210" y="120"><path d="M3.2 11.5c-.1-.1-.1 0-.1.1v1.2c-.1.2 0 .2.1.2l1.2-.5c.1 0 .1-.1 0-.1l-1.2-.9zM3.5 9.5s-.1 0-.1.1v.9c0 .1 0 .1.1.1l2 1.2h.2l.9-.4c.1 0 0-.1 0-.1L3.5 9.5zM9.6 3.9l-1.4-.8c-.4-.3-1.1-.1-1.4.4L4.3 7.7c-.3.5-.1 1.1.4 1.4l1.5.9c.5.3 1.1.1 1.4-.4L10 5.3c.3-.5.1-1.1-.4-1.4zm-3 5.3l-1.5-.9L7.7 4l1.4.8-2.5 4.4z" fill-rule="evenodd" clip-rule="evenodd" fill="#333"/></svg><svg width="16" height="16" viewBox="0 0 16 16" id="shared_asset_images_legends_QF_LegendHighlight_On" x="230" y="120"><path fill-rule="evenodd" clip-rule="evenodd" fill="#666" d="M7 12h7v1H7zM3.2 11.5c-.1-.1-.1 0-.1.1v1.2c-.1.2 0 .2.1.2l1.2-.5c.1 0 .1-.1 0-.1l-1.2-.9zM3.5 9.5s-.1 0-.1.1v.9c0 .1 0 .1.1.1l2 1.2h.2l.9-.4c.1 0 0-.1 0-.1L3.5 9.5zM9.6 3.9l-1.4-.8c-.4-.3-1.1-.1-1.4.4L4.3 7.7c-.3.5-.1 1.1.4 1.4l1.5.9c.5.3 1.1.1 1.4-.4L10 5.3c.3-.5.1-1.1-.4-1.4zm-3 5.3l-1.5-.9L7.7 4l1.4.8-2.5 4.4z"/></svg><svg width="16" height="16" viewBox="0 0 16 16" id="shared_asset_images_legends_QF_LegendHighlight_On_Active" x="170" y="120"><path fill-rule="evenodd" clip-rule="evenodd" fill="#333" d="M7 12h7v1H7zM3.2 11.5c-.1-.1-.1 0-.1.1v1.2c-.1.2 0 .2.1.2l1.2-.5c.1 0 .1-.1 0-.1l-1.2-.9zM3.5 9.5s-.1 0-.1.1v.9c0 .1 0 .1.1.1l2 1.2h.2l.9-.4c.1 0 0-.1 0-.1L3.5 9.5zM9.6 3.9l-1.4-.8c-.4-.3-1.1-.1-1.4.4L4.3 7.7c-.3.5-.1 1.1.4 1.4l1.5.9c.5.3 1.1.1 1.4-.4L10 5.3c.3-.5.1-1.1-.4-1.4zm-3 5.3l-1.5-.9L7.7 4l1.4.8-2.5 4.4z"/></svg><svg width="24" height="16" viewBox="0 0 24 16" id="shared_asset_images_marks-card_MarksCard_LineType_Jump" x="405" y="45"><circle cx="15.5" cy="3.5" r="1.5" fill-rule="evenodd" clip-rule="evenodd" fill="#666"/><circle cx="3.5" cy="6.5" r="1.5" fill-rule="evenodd" clip-rule="evenodd" fill="#666"/><circle cx="9.5" cy="12.5" r="1.5" fill-rule="evenodd" clip-rule="evenodd" fill="#666"/><path fill-rule="evenodd" clip-rule="evenodd" fill="#666" d="M15 3h6v1h-6zM3 6h7v1H3zM9 12h7v1H9z"/></svg><svg width="24" height="16" viewBox="0 0 24 16" id="shared_asset_images_marks-card_MarksCard_LineType_Jump_Active" x="430" y="45"><circle cx="15.5" cy="3.5" r="1.5" fill-rule="evenodd" clip-rule="evenodd" fill="#333"/><circle cx="3.5" cy="6.5" r="1.5" fill-rule="evenodd" clip-rule="evenodd" fill="#333"/><circle cx="9.5" cy="12.5" r="1.5" fill-rule="evenodd" clip-rule="evenodd" fill="#333"/><path fill-rule="evenodd" clip-rule="evenodd" fill="#333" d="M15 3h6v1h-6zM3 6h7v1H3zM9 12h7v1H9z"/></svg><svg width="24" height="16" viewBox="0 0 24 16" id="shared_asset_images_marks-card_MarksCard_LineType_Jump_Disabled" x="455" y="45"><path opacity=".35" fill="#333" d="M21 3h-4.1c-.2-.6-.8-1-1.4-1-.8 0-1.5.7-1.5 1.5S14.7 5 15.5 5c.7 0 1.2-.4 1.4-1H21V3zM10 6H4.9c-.2-.6-.7-1-1.4-1C2.7 5 2 5.7 2 6.5S2.7 8 3.5 8c.7 0 1.2-.4 1.4-1H10V6zM16 12h-5.1c-.2-.6-.8-1-1.4-1-.8 0-1.5.7-1.5 1.5S8.7 14 9.5 14c.7 0 1.2-.4 1.4-1H16v-1z"/></svg><svg width="24" height="16" viewBox="0 0 24 16" id="shared_asset_images_marks-card_MarksCard_LineType_Linear" x="480" y="45"><path fill-rule="evenodd" clip-rule="evenodd" fill="#666" d="M17.95 8.95L12 2.92 11.18 4l-.39-.8-6.07 8.2.98.98 5.75-7.85-.25-.5 6 5.93z"/><g fill-rule="evenodd" clip-rule="evenodd" fill="#666"><circle cx="5.5" cy="11.5" r="1.5"/><circle cx="17.5" cy="9.5" r="1.5"/><circle cx="11.5" cy="3.5" r="1.5"/></g></svg><svg width="24" height="16" viewBox="0 0 24 16" id="shared_asset_images_marks-card_MarksCard_LineType_Linear_Active" x="505" y="45"><path fill-rule="evenodd" clip-rule="evenodd" fill="#333" d="M17.95 8.95L12 2.92 11.18 4l-.39-.8-6.07 8.2.98.98 5.75-7.85-.25-.5 6 5.93z"/><g fill-rule="evenodd" clip-rule="evenodd" fill="#333"><circle cx="5.5" cy="11.5" r="1.5"/><circle cx="17.5" cy="9.5" r="1.5"/><circle cx="11.5" cy="3.5" r="1.5"/></g></svg><svg width="24" height="16" viewBox="0 0 24 16" id="shared_asset_images_marks-card_MarksCard_LineType_Linear_Disabled" x="530" y="45"><path d="M17.5 8c-.1 0-.3 0-.4.1L13 3.9v-.4c0-.8-.7-1.5-1.5-1.5S10 2.7 10 3.5c0 .2 0 .4.1.6L5.7 10h-.2c-.8 0-1.5.7-1.5 1.5S4.7 13 5.5 13 7 12.3 7 11.5c0-.2-.1-.5-.2-.7L11.1 5h.4c.2 0 .4 0 .6-.1l4.1 4c-.2.2-.2.4-.2.6 0 .8.7 1.5 1.5 1.5s1.5-.7 1.5-1.5S18.3 8 17.5 8z" opacity=".35" fill="#333"/></svg><svg width="24" height="16" viewBox="0 0 24 16" id="shared_asset_images_marks-card_MarksCard_LineType_Step" x="555" y="45"><circle cx="15.5" cy="3.5" r="1.5" fill-rule="evenodd" clip-rule="evenodd" fill="#666"/><circle cx="3.5" cy="6.5" r="1.5" fill-rule="evenodd" clip-rule="evenodd" fill="#666"/><circle cx="9.5" cy="12.5" r="1.5" fill-rule="evenodd" clip-rule="evenodd" fill="#666"/><path fill-rule="evenodd" clip-rule="evenodd" fill="#666" d="M21 3h-6v9h-5V6H3v1h6v6h7V4h5z"/></svg><svg width="24" height="16" viewBox="0 0 24 16" id="shared_asset_images_marks-card_MarksCard_LineType_Step_Active" x="605" y="45"><circle cx="15.5" cy="3.5" r="1.5" fill-rule="evenodd" clip-rule="evenodd" fill="#333"/><circle cx="3.5" cy="6.5" r="1.5" fill-rule="evenodd" clip-rule="evenodd" fill="#333"/><circle cx="9.5" cy="12.5" r="1.5" fill-rule="evenodd" clip-rule="evenodd" fill="#333"/><path fill-rule="evenodd" clip-rule="evenodd" fill="#333" d="M21 3h-6v9h-5V6H3v1h6v6h7V4h5z"/></svg><svg width="24" height="16" viewBox="0 0 24 16" id="shared_asset_images_marks-card_MarksCard_LineType_Step_Disabled" x="580" y="45"><path d="M21 3h-4.1c-.2-.6-.8-1-1.4-1-.8 0-1.5.7-1.5 1.5 0 .7.4 1.2 1 1.4V12h-4.1c-.2-.4-.5-.8-.9-.9V6H4.9c-.2-.6-.7-1-1.4-1C2.7 5 2 5.7 2 6.5S2.7 8 3.5 8c.7 0 1.2-.4 1.4-1H9v4.1c-.6.2-1 .8-1 1.4 0 .8.7 1.5 1.5 1.5.7 0 1.2-.4 1.4-1H16V4.9c.4-.2.8-.5.9-.9H21V3z" opacity=".35" fill="#333"/></svg><svg width="15" height="16" viewBox="0 0 15 16" id="shared_asset_images_schema-pane_SchemaViewer_DS_Broken" x="490" y="120"><path fill-rule="evenodd" clip-rule="evenodd" fill="#c93946" d="M6 11h2v2H6zM6 2h2v8H6z"/></svg><svg width="15" height="15" viewBox="0 0 15 15" id="shared_asset_images_sorting_Sort_Alphabetic_Ascending_Arrow" x="260" y="75"><path d="M13.4 7.7c-.2-.4-.6-.7-1.1-.7h-.8V5c0-.6-.4-1-1-1h-1c-.6 0-1 .4-1 1v2h-.8c-.2 0-.3 0-.5.1v-.4l-1.8-5c-.1-.4-.5-.7-.9-.7h-1c-.4 0-.8.3-.9.7l-1.8 5c-.1.3-.1.6.1.9.1 0 .1.1.2.1-.1.1-.1.2-.1.3v1c0 .6.4 1 1 1h.5l-1.2 1.3c-.2.2-.3.4-.3.7v1c0 .6.4 1 1 1h4c.6 0 1-.4 1-1v-1c0-.6-.4-1-1-1h-.5l1.2-1.3c.2-.2.3-.4.3-.6l2 2.4c.2.3.5.5 1 .5s.8-.2 1-.5l2.2-2.6c.3-.3.4-.8.2-1.2z" fill="#FFF"/><path d="M10.1 10.9l2.3-2.7c.1-.1 0-.2-.1-.2h-1.8V5h-1v3H7.7c-.1 0-.2.1-.1.2l2.3 2.7c0 .1.2.1.2 0zM2 13v-1l2.7-3H2V8h4v1l-2.7 3H6v1H2zM1.6 7l1.8-5h1.2l1.8 5h-1L5 5.8H3L2.6 7h-1zm1.7-2h1.4L4 3l-.7 2z" fill="#666766"/></svg><svg width="15" height="15" viewBox="0 0 15 15" id="shared_asset_images_sorting_Sort_Alphabetic_Ascending_Arrow_Active" y="75"><path d="M13.4 7.7c-.2-.4-.6-.7-1.1-.7h-.8V5c0-.6-.4-1-1-1h-1c-.6 0-1 .4-1 1v2h-.8c-.2 0-.3 0-.5.1v-.4l-1.8-5c-.1-.4-.5-.7-.9-.7h-1c-.4 0-.8.3-.9.7l-1.8 5c-.1.3-.1.6.1.9.1 0 .1.1.2.1-.1.1-.1.2-.1.3v1c0 .6.4 1 1 1h.5l-1.2 1.3c-.2.2-.3.5-.3.7v1c0 .6.4 1 1 1h4c.6 0 1-.4 1-1v-1c0-.6-.4-1-1-1h-.5l1.2-1.3c.2-.2.3-.4.3-.6l2 2.4c.2.3.5.5 1 .5s.8-.2 1-.5l2.2-2.6c.3-.3.4-.8.2-1.2z" fill="#FFF"/><path d="M10.1 10.9l2.3-2.7c.1-.1 0-.2-.1-.2h-1.8V5h-1v3H7.7c-.1 0-.2.1-.1.2l2.3 2.7c0 .1.2.1.2 0z" fill="#333"/><path d="M2 13v-1l2.7-3H2V8h4v1l-2.7 3H6v1H2zM1.6 7l1.8-5h1.2l1.8 5h-1L5 5.8H3L2.6 7h-1zm1.7-2h1.4L4 3l-.7 2z" fill="#231f20"/></svg><svg width="15" height="15" viewBox="0 0 15 15" id="shared_asset_images_sorting_Sort_Alphabetic_Descending_Arrow" x="240" y="75"><path d="M12.9 7.7c-.2-.4-.6-.7-1.1-.7H11V5c0-.6-.4-1-1-1H9c-.6 0-1 .4-1 1v2H7V6c0-.6-.4-1-1-1h-.5l1.2-1.3c.2-.2.3-.5.3-.7V2c0-.6-.4-1-1-1H2c-.5 0-1 .4-1 1v1c0 .6.4 1 1 1h.5L1.3 5.3c-.2.2-.3.4-.3.7v1c0 .6.4 1 1 1h.4L.8 12.7c-.1.3-.1.6.1.9s.5.4.8.4h.8c.4 0 .8-.3.9-.7l.2-.6h.5l.2.6c.3.4.7.7 1.1.7h.9c.3 0 .6-.2.8-.4.2-.3.2-.6.1-.9L5.6 8H6c0 .3.1.6.3.9l2.2 2.6c.2.3.5.5 1 .5s.8-.2 1-.5l2.2-2.6c.3-.3.4-.8.2-1.2z" fill="#FFF"/><path d="M2 7V6l2.7-3H2V2h4v1L3.3 6H6v1H2zM9.6 10.9l2.3-2.7c.1-.1 0-.2-.1-.2H10V5H9v3H7.2c-.1 0-.2.1-.1.2l2.3 2.7c0 .1.2.1.2 0zM1.6 13l1.8-5h1.2l1.8 5h-1L5 11.8H3L2.6 13h-1zm1.7-2h1.4L4 9l-.7 2z" fill="#666766"/></svg><svg width="15" height="15" viewBox="0 0 15 15" id="shared_asset_images_sorting_Sort_Alphabetic_Descending_Arrow_Active" x="220" y="75"><path d="M12.9 7.7c-.2-.4-.6-.7-1.1-.7H11V5c0-.6-.4-1-1-1H9c-.6 0-1 .4-1 1v2H7V6c0-.6-.4-1-1-1h-.5l1.2-1.3c.2-.2.3-.4.3-.7V2c0-.6-.4-1-1-1H2c-.5 0-1 .5-1 1v1c0 .6.4 1 1 1h.5L1.3 5.3c-.2.2-.3.5-.3.7v1c0 .6.4 1 1 1h.4L.8 12.7c-.1.3-.1.6.1.9s.5.4.8.4h.8c.4 0 .8-.3.9-.7l.2-.6h.5l.2.6c.3.4.7.7 1.1.7h.9c.3 0 .6-.2.8-.4.2-.3.2-.6.1-.9L5.6 8H6c0 .3.1.6.3.9l2.2 2.6c.2.3.5.5 1 .5s.8-.2 1-.5l2.2-2.6c.3-.3.4-.8.2-1.2z" fill="#FFF"/><path d="M2 7V6l2.7-3H2V2h4v1L3.3 6H6v1H2z" fill="#231f20"/><path d="M9.6 10.9l2.3-2.7c.1-.1 0-.2-.1-.2H10V5H9v3H7.2c-.1 0-.2.1-.1.2l2.3 2.7c0 .1.2.1.2 0zM1.6 13l1.8-5h1.2l1.8 5h-1L5 11.8H3L2.6 13h-1zm1.7-2h1.4L4 9l-.7 2z" fill="#333"/></svg><svg width="15" height="15" viewBox="0 0 15 15" id="shared_asset_images_sorting_Sort_Horiz_Left" x="200" y="75"><path d="M12 2h-2c-.5 0-1 .5-1 1v4c0-.5-.5-1-1-1H6c-.5 0-1 .5-1 1v3c0-.5-.5-1-1-1H2c-.5 0-1 .5-1 1v3c0 .5.5 1 1 1h2c.5 0 1-.5 1-1 0 .5.5 1 1 1h2c.5 0 1-.5 1-1 0 .5.5 1 1 1h2c.5 0 1-.5 1-1V3c0-.5-.5-1-1-1z" fill="#FFF"/><path fill="#666766" d="M10 3h2v10h-2zM6 7h2v6H6zM2 10h2v3H2z"/></svg><svg width="15" height="15" viewBox="0 0 15 15" id="shared_asset_images_sorting_Sort_Horiz_Left_Arrow" x="180" y="75"><path d="M12 2h-2c-.5 0-1 .5-1 1v4c0-.5-.5-1-1-1h-.1l.7-.6c.2-.2.4-.5.4-.9s-.2-.7-.4-.9L5.9 1.3l-.1-.1c-.2-.1-.4-.2-.6-.2C4.5 1 4 1.5 4 2.2V3H2c-.5 0-1 .5-1 1v1c0 .5.5 1 1 1h2v.8c0 .6.4 1.1 1 1.2v2c0-.5-.5-1-1-1H2c-.5 0-1 .5-1 1v3c0 .5.5 1 1 1h2c.5 0 1-.5 1-1 0 .5.5 1 1 1h2c.5 0 1-.5 1-1 0 .5.5 1 1 1h2c.5 0 1-.5 1-1V3c0-.5-.5-1-1-1z" fill="#FFF"/><path fill="#666766" d="M10 3h2v10h-2zM2 10h2v3H2zM7.9 4.4L5.2 2.1c-.1-.1-.2 0-.2.1V4H2v1h3v1.8c0 .1.1.2.2.1l2.7-2.3c.1 0 .1-.2 0-.2zM6 7h2v6H6z"/></svg><svg width="15" height="15" viewBox="0 0 15 15" id="shared_asset_images_sorting_Sort_Horiz_Left_Arrow_Active" x="160" y="75"><path d="M12 2h-2c-.5 0-1 .5-1 1v4c0-.5-.5-1-1-1h-.1l.7-.6c.2-.2.4-.5.4-.9s-.2-.7-.4-.9L5.9 1.3l-.1-.1c-.2-.1-.4-.2-.6-.2C4.5 1 4 1.5 4 2.2V3H2c-.5 0-1 .5-1 1v1c0 .5.5 1 1 1h2v.8c0 .6.4 1.1 1 1.2v2c0-.5-.5-1-1-1H2c-.5 0-1 .5-1 1v3c0 .5.5 1 1 1h2c.5 0 1-.5 1-1 0 .5.5 1 1 1h2c.5 0 1-.5 1-1 0 .5.5 1 1 1h2c.5 0 1-.5 1-1V3c0-.5-.5-1-1-1z" fill="#FFF"/><path fill="#333" d="M10 3h2v10h-2zM2 10h2v3H2zM7.9 4.4L5.2 2.1c-.1-.1-.2 0-.2.1V4H2v1h3v1.8c0 .1.1.2.2.1l2.7-2.3c.1 0 .1-.2 0-.2zM6 7h2v6H6z"/></svg><svg width="15" height="15" viewBox="0 0 15 15" id="shared_asset_images_sorting_Sort_Horiz_Right" x="140" y="75"><path d="M2 2h2c.5 0 1 .5 1 1v4c0-.5.5-1 1-1h2c.5 0 1 .5 1 1v3c0-.5.5-1 1-1h2c.5 0 1 .5 1 1v3c0 .5-.5 1-1 1h-2c-.5 0-1-.5-1-1 0 .5-.5 1-1 1H6c-.5 0-1-.5-1-1 0 .5-.5 1-1 1H2c-.5 0-1-.5-1-1V3c0-.5.5-1 1-1z" fill="#FFF"/><path fill="#666766" d="M2 3h2v10H2zM6 7h2v6H6zM10 10h2v3h-2z"/></svg><svg width="15" height="15" viewBox="0 0 15 15" id="shared_asset_images_sorting_Sort_Horiz_Right_Arrow" x="120" y="75"><path d="M10.2 8c.2 0 .5-.1.6-.2l.1-.1 2.7-2.3c.2-.2.4-.6.4-.9s-.2-.7-.4-.9l-2.7-2.3-.1-.1c-.2-.1-.4-.2-.6-.2C9.5 1 9 1.5 9 2.2V3H7c-.5 0-1 .4-1 1v1c0 .5.5 1 1 1H6c-.5 0-1 .5-1 1V3c0-.5-.5-1-1-1H2c-.5 0-1 .5-1 1v10c0 .5.5 1 1 1h2c.5 0 1-.5 1-1 0 .5.5 1 1 1h2c.5 0 1-.5 1-1 0 .5.5 1 1 1h2c.5 0 1-.5 1-1v-3c0-.5-.5-1-1-1h-2c-.5 0-1 .5-1 1V7c0-.5-.5-1-1-1h1v.8c0 .6.5 1.2 1.2 1.2z" fill="#FFF"/><path fill="#666766" d="M2 3h2v10H2zM6 7h2v6H6zM10 10h2v3h-2zM12.9 4.3L10.2 2c-.1 0-.2 0-.2.2V4H7v1h3v1.8c0 .1.1.2.2.1l2.7-2.3c.1-.1.1-.2 0-.3z"/></svg><svg width="15" height="15" viewBox="0 0 15 15" id="shared_asset_images_sorting_Sort_Horiz_Right_Arrow_Active" x="100" y="75"><path d="M10.2 8c.2 0 .5-.1.6-.2l.1-.1 2.7-2.3c.2-.2.4-.6.4-.9s-.2-.7-.4-.9l-2.7-2.3-.1-.1c-.2-.1-.4-.2-.6-.2C9.5 1 9 1.5 9 2.2V3H7c-.5 0-1 .4-1 1v1c0 .5.5 1 1 1H6c-.5 0-1 .5-1 1V3c0-.5-.5-1-1-1H2c-.5 0-1 .5-1 1v10c0 .5.5 1 1 1h2c.5 0 1-.5 1-1 0 .5.5 1 1 1h2c.5 0 1-.5 1-1 0 .5.5 1 1 1h2c.5 0 1-.5 1-1v-3c0-.5-.5-1-1-1h-2c-.5 0-1 .5-1 1V7c0-.5-.5-1-1-1h1v.8c0 .6.5 1.2 1.2 1.2z" fill="#FFF"/><path fill="#333" d="M2 3h2v10H2zM6 7h2v6H6zM10 10h2v3h-2zM12.9 4.3L10.2 2c-.1 0-.2 0-.2.2V4H7v1h3v1.8c0 .1.1.2.2.1l2.7-2.3c.1-.1.1-.2 0-.3z"/></svg><svg width="15" height="15" viewBox="0 0 15 15" id="shared_asset_images_sorting_Sort_Vert_Ascending_Arrow" x="80" y="75"><path d="M12.8 3H12V2c0-.5-.5-1-1-1h-1c-.5 0-1 .5-1 1v1h-.8C7.5 3 7 3.5 7 4.2c0 .2.1.5.2.6l.1.1.1.1H5c.5 0 1-.5 1-1V2c0-.5-.5-1-1-1H2c-.5 0-1 .5-1 1v2c0 .5.5 1 1 1-.5 0-1 .5-1 1v2c0 .5.5 1 1 1-.5 0-1 .5-1 1v2c0 .5.5 1 1 1h10c.5 0 1-.5 1-1v-2c0-.5-.5-1-1-1H8c.5 0 1-.5 1-1V6.9l.6.7c.2.3.6.4.9.4s.7-.2.9-.4l2.3-2.7.1-.1c.1-.2.2-.4.2-.6 0-.7-.5-1.2-1.2-1.2z" fill="#FFF"/><path fill="#666766" d="M2 10h10v2H2zM2 6h6v2H2zM2 2h3v2H2zM10.6 6.9l2.3-2.7c.1-.1 0-.2-.1-.2H11V2h-1v2H8.2c-.1 0-.2.1-.1.2l2.3 2.7c0 .1.2.1.2 0z"/></svg><svg width="15" height="15" viewBox="0 0 15 15" id="shared_asset_images_sorting_Sort_Vert_Ascending_Arrow_Active" x="60" y="75"><path d="M12.8 3H12V2c0-.5-.5-1-1-1h-1c-.5 0-1 .5-1 1v1h-.8C7.5 3 7 3.5 7 4.2c0 .2.1.5.2.6l.1.1.1.1H5c.5 0 1-.5 1-1V2c0-.5-.5-1-1-1H2c-.5 0-1 .5-1 1v2c0 .5.5 1 1 1-.5 0-1 .5-1 1v2c0 .5.5 1 1 1-.5 0-1 .5-1 1v2c0 .5.5 1 1 1h10c.5 0 1-.5 1-1v-2c0-.5-.5-1-1-1H8c.5 0 1-.5 1-1V6.9l.6.7c.2.3.6.4.9.4s.7-.2.9-.4l2.3-2.7.1-.1c.1-.2.2-.4.2-.6 0-.7-.5-1.2-1.2-1.2z" fill="#FFF"/><path fill="#333" d="M2 10h10v2H2zM2 6h6v2H2zM2 2h3v2H2zM10.6 6.9l2.3-2.7c.1-.1 0-.2-.1-.2H11V2h-1v2H8.2c-.1 0-.2.1-.1.2l2.3 2.7c0 .1.2.1.2 0z"/></svg><svg width="15" height="15" viewBox="0 0 15 15" id="shared_asset_images_sorting_Sort_Vert_Descending_Arrow" x="40" y="75"><path d="M13.8 8H13V6c0-.5-.5-1-1-1 .5 0 1-.5 1-1V2c0-.5-.5-1-1-1H2c-.5 0-1 .5-1 1v2c0 .5.5 1 1 1-.5 0-1 .5-1 1v2c0 .5.5 1 1 1-.5 0-1 .5-1 1v2c0 .5.5 1 1 1h3c.5 0 1-.5 1-1v-2c0-.5-.5-1-1-1h3v.2c0 .2.1.5.2.6l.1.1 2.3 2.7c.2.3.6.4.9.4s.7-.2.9-.4l2.3-2.7.1-.1c.1-.2.2-.4.2-.6 0-.6-.5-1.2-1.2-1.2zM10 6v2H9V6c0-.5-.5-1-1-1h3c-.5 0-1 .5-1 1z" fill="#FFF"/><path fill="#676767" d="M2 2h10v2H2zM2 6h6v2H2zM2 10h3v2H2zM11.6 11.9l2.3-2.7c.1-.1 0-.2-.1-.2H12V6h-1v3H9.2c-.1 0-.2.1-.1.2l2.3 2.7c0 .1.2.1.2 0z"/></svg><svg width="15" height="15" viewBox="0 0 15 15" id="shared_asset_images_sorting_Sort_Vert_Descending_Arrow_Active" x="20" y="75"><path d="M13.8 8H13V6c0-.5-.5-1-1-1 .5 0 1-.5 1-1V2c0-.5-.5-1-1-1H2c-.5 0-1 .5-1 1v2c0 .5.5 1 1 1-.5 0-1 .5-1 1v2c0 .5.5 1 1 1-.5 0-1 .5-1 1v2c0 .5.5 1 1 1h3c.5 0 1-.5 1-1v-2c0-.5-.5-1-1-1h3v.2c0 .2.1.5.2.6l.1.1 2.3 2.7c.2.3.6.4.9.4s.7-.2.9-.4l2.3-2.7.1-.1c.1-.2.2-.4.2-.6 0-.6-.5-1.2-1.2-1.2zM10 6v2H9V6c0-.5-.5-1-1-1h3c-.5 0-1 .5-1 1z" fill="#FFF"/><path fill="#333" d="M2 2h10v2H2zM2 6h6v2H2zM2 10h3v2H2zM11.6 11.9l2.3-2.7c.1-.1 0-.2-.1-.2H12V6h-1v3H9.2c-.1 0-.2.1-.1.2l2.3 2.7c0 .1.2.1.2 0z"/></svg><svg width="13" height="13" viewBox="0 0 13 13" id="shared_asset_images_story_Storypoints_Delete_Small" x="105" y="95"><path d="M6.2 5.5l3.6-3.6c.2-.2.2-.5 0-.7s-.5-.2-.7 0L5.5 4.8 1.8 1.1c-.2-.2-.5-.2-.7 0s-.2.5 0 .7l3.6 3.6-3.6 3.7c-.2.2-.2.5 0 .7.1.1.2.2.4.2s.3 0 .4-.1l3.6-3.6 3.6 3.6c.1 0 .2.1.4.1s.3 0 .4-.1c.2-.2.2-.5 0-.7L6.2 5.5z" fill="#666"/></svg><svg width="13" height="13" viewBox="0 0 13 13" id="shared_asset_images_story_Storypoints_Delete_Small_Active" x="120" y="95"><path d="M6.2 5.5l3.6-3.6c.2-.2.2-.5 0-.7s-.5-.2-.7 0L5.5 4.8 1.8 1.1c-.2-.2-.5-.2-.7 0s-.2.5 0 .7l3.6 3.6-3.6 3.7c-.2.2-.2.5 0 .7.1.1.2.2.4.2s.3 0 .4-.1l3.6-3.6 3.6 3.6c.1 0 .2.1.4.1s.3 0 .4-.1c.2-.2.2-.5 0-.7L6.2 5.5z" fill="#333"/></svg><svg width="16" height="32" viewBox="0 0 16 32" id="shared_asset_images_story_Storypoints_Nav_Left_Large" y="150"><path d="M4 16L14.6 5.1c.5-.5.5-1.3 0-1.8s-1.3-.5-1.8 0L1.4 15.1c-.3.2-.4.5-.4.9 0 .3.1.7.4.9l11.5 11.8c.5.5 1.3.5 1.8 0s.5-1.3 0-1.8L4 16z" fill-rule="evenodd" clip-rule="evenodd" fill="#666"/></svg><svg width="16" height="32" viewBox="0 0 16 32" id="shared_asset_images_story_Storypoints_Nav_Left_Large_Active" x="40" y="150"><path d="M4 16L14.6 5.1c.5-.5.5-1.3 0-1.8s-1.3-.5-1.8 0L1.4 15.1c-.3.2-.4.5-.4.9 0 .3.1.7.4.9l11.5 11.8c.5.5 1.3.5 1.8 0s.5-1.3 0-1.8L4 16z" fill-rule="evenodd" clip-rule="evenodd" fill="#333"/></svg><svg width="12" height="20" viewBox="0 0 12 20" id="shared_asset_images_story_Storypoints_Nav_Left_Small" x="590" y="20"><path d="M5 10l4.6-4.8c.5-.5.5-1.3 0-1.8s-1.3-.5-1.8 0L2.4 9.1c-.3.2-.4.5-.4.9 0 .3.1.7.4.9l5.5 5.8c.5.5 1.3.5 1.8 0s.5-1.3 0-1.8L5 10z" fill-rule="evenodd" clip-rule="evenodd" fill="#666"/></svg><svg width="12" height="20" viewBox="0 0 12 20" id="shared_asset_images_story_Storypoints_Nav_Left_Small_Active" x="605" y="20"><path d="M5 10l4.6-4.8c.5-.5.5-1.3 0-1.8s-1.3-.5-1.8 0L2.4 9.1c-.3.2-.4.5-.4.9 0 .3.1.7.4.9l5.5 5.8c.5.5 1.3.5 1.8 0s.5-1.3 0-1.8L5 10z" fill-rule="evenodd" clip-rule="evenodd" fill="#333"/></svg><svg width="16" height="32" viewBox="0 0 16 32" id="shared_asset_images_story_Storypoints_Nav_Right_Large" x="60" y="150"><path d="M12 16L1.4 5.1c-.5-.5-.5-1.3 0-1.8s1.3-.5 1.8 0L14.7 15c.2.2.4.6.4.9 0 .3-.1.7-.4.9L3.1 28.6c-.5.5-1.3.5-1.8 0s-.5-1.3 0-1.8L12 16z" fill-rule="evenodd" clip-rule="evenodd" fill="#666"/></svg><svg width="16" height="32" viewBox="0 0 16 32" id="shared_asset_images_story_Storypoints_Nav_Right_Large_Active" x="20" y="150"><path d="M12 16L1.4 5.1c-.5-.5-.5-1.3 0-1.8s1.3-.5 1.8 0L14.7 15c.2.2.4.6.4.9 0 .3-.1.7-.4.9L3.1 28.6c-.5.5-1.3.5-1.8 0s-.5-1.3 0-1.8L12 16z" fill-rule="evenodd" clip-rule="evenodd" fill="#333"/></svg><svg width="12" height="20" viewBox="0 0 12 20" id="shared_asset_images_story_Storypoints_Nav_Right_Small" x="620" y="20"><path d="M7 10L2.4 5.1c-.5-.5-.5-1.3 0-1.8s1.3-.5 1.8 0L9.7 9c.2.3.3.6.3 1 0 .3-.1.7-.4.9l-5.5 5.8c-.5.5-1.3.5-1.8 0s-.5-1.3 0-1.8L7 10z" fill-rule="evenodd" clip-rule="evenodd" fill="#666"/></svg><svg width="12" height="20" viewBox="0 0 12 20" id="shared_asset_images_story_Storypoints_Nav_Right_Small_Active" x="575" y="20"><path d="M7 10L2.4 5.1c-.5-.5-.5-1.3 0-1.8s1.3-.5 1.8 0L9.7 9c.2.3.3.6.3 1 0 .3-.1.7-.4.9l-5.5 5.8c-.5.5-1.3.5-1.8 0s-.5-1.3 0-1.8L7 10z" fill-rule="evenodd" clip-rule="evenodd" fill="#333"/></svg><svg width="13" height="13" viewBox="0 0 13 13" id="shared_asset_images_story_Storypoints_Uber_Refresh_Small" x="135" y="95"><g fill="#666"><path d="M12.1 3.2h-.2l-1 .5C10 2 8.3 1 6.3 1c-2.2 0-4.2 1.3-5 3.4-.1.2 0 .5.3.6.3.1.5 0 .7-.3.6-1.6 2.3-2.7 4-2.7 1.6 0 3 .8 3.8 2.2l-1 .5c-.1 0-.1.2 0 .2l2.7 1.7c.1.1.2 0 .2-.1l.2-3.2s0-.1-.1-.1zM11.3 8c-.3-.1-.6 0-.7.3C9.9 9.9 8.2 11 6.5 11c-1.5 0-2.9-.8-3.7-2.1l1-.5c.1 0 .1-.2 0-.2L1.1 6.4c-.1 0-.2 0-.2.1L.7 9.7s0 .1.1.1H1l.9-.4C2.8 11 4.6 12 6.5 12c2.2 0 4.2-1.3 5.1-3.3.1-.3 0-.6-.3-.7z"/></g></svg><svg width="13" height="13" viewBox="0 0 13 13" id="shared_asset_images_story_Storypoints_Uber_Refresh_Small_Active" x="150" y="95"><g fill="#333"><path d="M12.1 3.2h-.2l-1 .5C10 2 8.3 1 6.3 1c-2.2 0-4.2 1.3-5 3.4-.1.2 0 .5.3.6.3.1.5 0 .7-.3.6-1.6 2.3-2.7 4-2.7 1.6 0 3 .8 3.8 2.2l-1 .5c-.1 0-.1.2 0 .2l2.7 1.7c.1.1.2 0 .2-.1l.2-3.2s0-.1-.1-.1zM11.3 8c-.3-.1-.6 0-.7.3C9.9 9.9 8.2 11 6.5 11c-1.5 0-2.9-.8-3.7-2.1l1-.5c.1 0 .1-.2 0-.2L1.1 6.4c-.1 0-.2 0-.2.1L.7 9.7s0 .1.1.1H1l.9-.4C2.8 11 4.6 12 6.5 12c2.2 0 4.2-1.3 5.1-3.3.1-.3 0-.6-.3-.7z"/></g></svg><svg width="13" height="13" viewBox="0 0 13 13" id="shared_asset_images_story_Storypoints_Uber_Revert_Small" x="165" y="95"><path d="M7 2h-.5V.8c0-.1-.1-.2-.2-.1L3.5 2.3c-.1 0-.1.2 0 .2l2.8 1.7c.1.1.2 0 .2-.1V3H7c2.2 0 4 1.8 4 4s-1.8 4-4 4-4-1.8-4-4v-.1c0-.3-.2-.5-.5-.5s-.5.2-.5.5V7c0 2.8 2.2 5 5 5s5-2.2 5-5-2.2-5-5-5z" fill="#666"/></svg><svg width="13" height="13" viewBox="0 0 13 13" id="shared_asset_images_story_Storypoints_Uber_Revert_Small_Active" x="180" y="95"><path d="M7 2h-.5V.8c0-.1-.1-.2-.2-.1L3.5 2.3c-.1 0-.1.2 0 .2l2.8 1.7c.1.1.2 0 .2-.1V3H7c2.2 0 4 1.8 4 4s-1.8 4-4 4-4-1.8-4-4v-.1c0-.3-.2-.5-.5-.5s-.5.2-.5.5V7c0 2.8 2.2 5 5 5s5-2.2 5-5-2.2-5-5-5z" fill="#333"/></svg><svg width="16" height="16" viewBox="0 0 16 16" id="shared_asset_images_tooltip_Tooltip_Action_Down"><path fill-rule="evenodd" clip-rule="evenodd" fill="#666" d="M10 7H8V5H7v2H5v1h2v2h1V8h2z"/><path d="M12 2H3c-.5 0-1 .5-1 1v9c0 .5.5 1 1 1h9c.5 0 1-.5 1-1V3c0-.5-.5-1-1-1zm0 10H3V3h9v9z" fill-rule="evenodd" clip-rule="evenodd" fill="#666"/></svg><svg width="16" height="16" viewBox="0 0 16 16" id="shared_asset_images_tooltip_Tooltip_Action_Down_Active" x="20"><path fill-rule="evenodd" clip-rule="evenodd" fill="#333" d="M10 7H8V5H7v2H5v1h2v2h1V8h2z"/><path d="M12 2H3c-.5 0-1 .5-1 1v9c0 .5.5 1 1 1h9c.5 0 1-.5 1-1V3c0-.5-.5-1-1-1zm0 10H3V3h9v9z" fill-rule="evenodd" clip-rule="evenodd" fill="#333"/></svg><svg width="16" height="16" viewBox="0 0 16 16" id="shared_asset_images_tooltip_Tooltip_Action_Down_Disabled" x="40"><path fill-rule="evenodd" clip-rule="evenodd" fill="#CCC" d="M10 7H8V5H7v2H5v1h2v2h1V8h2z"/><path d="M12 2H3c-.5 0-1 .5-1 1v9c0 .5.5 1 1 1h9c.5 0 1-.5 1-1V3c0-.5-.5-1-1-1zm0 10H3V3h9v9z" fill-rule="evenodd" clip-rule="evenodd" fill="#CCC"/></svg><svg width="16" height="16" viewBox="0 0 16 16" id="shared_asset_images_tooltip_Tooltip_Action_Up" x="60"><path d="M12 2H3c-.5 0-1 .5-1 1v9c0 .5.5 1 1 1h9c.5 0 1-.5 1-1V3c0-.5-.5-1-1-1zm0 10H3V3h9v9z" fill-rule="evenodd" clip-rule="evenodd" fill="#666"/><path fill-rule="evenodd" clip-rule="evenodd" fill="#666" d="M5 7h5v1H5z"/></svg><svg width="16" height="16" viewBox="0 0 16 16" id="shared_asset_images_tooltip_Tooltip_Action_Up_Active" x="80"><path d="M12 2H3c-.5 0-1 .5-1 1v9c0 .5.5 1 1 1h9c.5 0 1-.5 1-1V3c0-.5-.5-1-1-1zm0 10H3V3h9v9z" fill-rule="evenodd" clip-rule="evenodd" fill="#333"/><path fill-rule="evenodd" clip-rule="evenodd" fill="#333" d="M5 7h5v1H5z"/></svg><svg width="16" height="16" viewBox="0 0 16 16" id="shared_asset_images_tooltip_Tooltip_Action_Up_Disabled" x="100"><path d="M12 2H3c-.5 0-1 .5-1 1v9c0 .5.5 1 1 1h9c.5 0 1-.5 1-1V3c0-.5-.5-1-1-1zm0 10H3V3h9v9z" fill-rule="evenodd" clip-rule="evenodd" fill="#CCC"/><path fill-rule="evenodd" clip-rule="evenodd" fill="#CCC" d="M5 7h5v1H5z"/></svg><svg id="shared_asset_images_tooltip_Tooltip_Exclude" width="16" height="16" viewBox="0 0 16 16" x="620"><style>.cyst0{fill:#666}</style><path id="cyExclude_1_" class="cyst0" d="M7.5 3C4.46 3 2 5.46 2 8.5S4.46 14 7.5 14 13 11.54 13 8.5 10.54 3 7.5 3zm0 1c1.06 0 2.02.38 2.79 1L4 11.29c-.62-.77-1-1.73-1-2.79C3 6.01 5.01 4 7.5 4zm0 9c-1.06 0-2.02-.38-2.79-1l6.3-6.3c.62.77 1 1.73 1 2.79A4.51 4.51 0 0 1 7.5 13z"/></svg><svg id="shared_asset_images_tooltip_Tooltip_Exclude_Active" width="16" height="16" viewBox="0 0 16 16" x="120"><style>.czst0{fill:#333}</style><path id="czExclude_2_" class="czst0" d="M7.5 3C4.46 3 2 5.46 2 8.5S4.46 14 7.5 14 13 11.54 13 8.5 10.54 3 7.5 3zm0 1c1.06 0 2.02.38 2.79 1L4 11.29c-.62-.77-1-1.73-1-2.79C3 6.01 5.01 4 7.5 4zm0 9c-1.06 0-2.02-.38-2.79-1l6.3-6.3c.62.77 1 1.73 1 2.79A4.51 4.51 0 0 1 7.5 13z"/></svg><svg id="shared_asset_images_tooltip_Tooltip_Exclude_Disabled" width="16" height="16" viewBox="0 0 16 16" x="140"><style>.dast0{opacity:.25;fill:#333}</style><path id="daExclude_3_" class="dast0" d="M7.5 3C4.46 3 2 5.46 2 8.5S4.46 14 7.5 14 13 11.54 13 8.5 10.54 3 7.5 3zm0 1c1.06 0 2.02.38 2.79 1L4 11.29c-.62-.77-1-1.73-1-2.79C3 6.01 5.01 4 7.5 4zm0 9c-1.06 0-2.02-.38-2.79-1l6.3-6.3c.62.77 1 1.73 1 2.79A4.51 4.51 0 0 1 7.5 13z"/></svg><svg width="16" height="16" viewBox="0 0 16 16" id="shared_asset_images_tooltip_Tooltip_ExplainData" x="160"><style>.dbOutline{fill-rule:evenodd;clip-rule:evenodd;fill:#666}</style><path id="dbThread2" class="dbOutline" d="M6.927 13h1.146a.5.5 0 0 1 0 1H6.927a.5.5 0 0 1 0-1z"/><path id="dbThread1" class="dbOutline" d="M6.12 11h2.76c.273 0 .495.224.495.5s-.222.5-.495.5H6.12c-.273 0-.495-.224-.495-.5s.222-.5.495-.5z"/><path id="dbBulb" class="dbOutline" d="M7.5 3c1.505 0 2.504 1.113 2.504 2.684 0 1.445-.23 2.086-.562 2.57-.38.555-.678.76-.99.764H6.548c-.312-.003-.633-.21-1.013-.764-.333-.484-.563-1.125-.563-2.57C4.973 4.114 5.995 3 7.5 3zm0-1C5.392 2 4 3.637 4 5.652c0 1.65.324 2.497.814 3.21.43.63.948 1.13 1.63 1.138h2.112c.682-.007 1.2-.51 1.63-1.137.49-.714.814-1.56.814-3.21C11 3.636 9.608 2 7.5 2z"/></svg><svg width="16" height="16" viewBox="0 0 16 16" id="shared_asset_images_tooltip_Tooltip_ExplainData_Active" x="180"><style>.dcst0{fill-rule:evenodd;clip-rule:evenodd;fill:#333}</style><path id="dcThread2_1_" class="dcst0" d="M6.927 13h1.146a.5.5 0 0 1 0 1H6.927a.5.5 0 0 1 0-1z"/><path id="dcThread1_1_" class="dcst0" d="M6.12 11h2.76c.273 0 .495.224.495.5s-.222.5-.495.5H6.12c-.273 0-.495-.224-.495-.5s.222-.5.495-.5z"/><path id="dcBulb_1_" class="dcst0" d="M7.5 3c1.505 0 2.504 1.113 2.504 2.684 0 1.445-.23 2.086-.562 2.57-.38.555-.678.76-.99.764H6.548c-.312-.003-.633-.21-1.013-.764-.333-.484-.563-1.125-.563-2.57C4.973 4.114 5.995 3 7.5 3zm0-1C5.392 2 4 3.637 4 5.652c0 1.65.324 2.497.814 3.21.43.63.948 1.13 1.63 1.138h2.112c.682-.007 1.2-.51 1.63-1.137.49-.714.814-1.56.814-3.21C11 3.636 9.608 2 7.5 2z"/></svg><svg width="16" height="16" viewBox="0 0 16 16" id="shared_asset_images_tooltip_Tooltip_Group" x="200"><path d="M7.6 6.6l-2.1 4.5c-.5.9-1.8 1.1-2.6.7-.7-.4-1.1-1.2-.7-2L5 4.4c.4-.8 1.3-1.3 2.3-1.3 1.4 0 2.6 1 2.6 2.4 0 .4-.1.8-.2 1.1l-1.9 3.8c-.1.2-.1.5.2.7.2.1.5 0 .7-.2L10.5 7c.2-.5.3-1 .3-1.5C10.9 3.6 9.2 2 7.2 2 5.9 2 4.6 2.8 4 3.9L1.3 9.4c-.7 1.3 0 2.8 1.3 3.4 1.2.6 3 .1 3.6-1.2L8.3 7c.4-.9.2-1.8-.6-2.2-.9-.3-1.8 0-2.2.8L3.9 8.8c-.1.2-.1.5.2.7.2.1.5 0 .6-.2L6.3 6c.2-.3.6-.5.9-.3.3.2.5.6.4.9z" fill-rule="evenodd" clip-rule="evenodd" fill="#666"/></svg><svg width="16" height="16" viewBox="0 0 16 16" id="shared_asset_images_tooltip_Tooltip_Group_Active" x="220"><path d="M7.6 6.6l-2.1 4.5c-.5.9-1.8 1.1-2.6.7-.7-.4-1.1-1.2-.7-2L5 4.4c.4-.8 1.3-1.3 2.3-1.3 1.4 0 2.6 1 2.6 2.4 0 .4-.1.8-.2 1.1l-1.9 3.8c-.1.2-.1.5.2.7.2.1.5 0 .7-.2L10.5 7c.2-.5.3-1 .3-1.5C10.9 3.6 9.2 2 7.2 2 5.9 2 4.6 2.8 4 3.9L1.3 9.4c-.7 1.3 0 2.8 1.3 3.4 1.2.6 3 .1 3.6-1.2L8.3 7c.4-.9.2-1.8-.6-2.2-.9-.3-1.8 0-2.2.8L3.9 8.8c-.1.2-.1.5.2.7.2.1.5 0 .6-.2L6.3 6c.2-.3.6-.5.9-.3.3.2.5.6.4.9z" fill-rule="evenodd" clip-rule="evenodd" fill="#333"/></svg><svg width="16" height="16" viewBox="0 0 16 16" id="shared_asset_images_tooltip_Tooltip_Group_Disabled" x="240"><path d="M7.6 6.6l-2.1 4.5c-.5.9-1.8 1.1-2.6.7-.7-.4-1.1-1.2-.7-2L5 4.4c.4-.8 1.3-1.3 2.3-1.3 1.4 0 2.6 1 2.6 2.4 0 .4-.1.8-.2 1.1l-1.9 3.8c-.1.2-.1.5.2.7.2.1.5 0 .7-.2L10.5 7c.2-.5.3-1 .3-1.5C10.9 3.6 9.2 2 7.2 2 5.9 2 4.6 2.8 4 3.9L1.3 9.4c-.7 1.3 0 2.8 1.3 3.4 1.2.6 3 .1 3.6-1.2L8.3 7c.4-.9.2-1.8-.6-2.2-.9-.3-1.8 0-2.2.8L3.9 8.8c-.1.2-.1.5.2.7.2.1.5 0 .6-.2L6.3 6c.2-.3.6-.5.9-.3.3.2.5.6.4.9z" fill-rule="evenodd" clip-rule="evenodd" fill="#CCC"/></svg><svg width="16" height="16" viewBox="0 0 16 16" id="shared_asset_images_tooltip_Tooltip_KeepOnly" x="260"><path d="M6.9 13.2c.3.2.8.1 1-.3l5-8.9c.2-.3.1-.8-.3-.9-.3-.2-.8-.1-.9.3L7 11.5 4 8.8c-.3-.3-.8-.2-1 0-.3.4-.3.8 0 1L6.7 13l.2.2z" fill-rule="evenodd" clip-rule="evenodd" fill="#666"/></svg><svg width="16" height="16" viewBox="0 0 16 16" id="shared_asset_images_tooltip_Tooltip_KeepOnly_Active" x="280"><path d="M6.9 13.2c.3.2.8.1 1-.3l5-8.9c.2-.3.1-.8-.3-.9-.3-.2-.8-.1-.9.3L7 11.5 4 8.8c-.3-.3-.8-.2-1 0-.3.4-.3.8 0 1L6.7 13l.2.2z" fill-rule="evenodd" clip-rule="evenodd" fill="#333"/></svg><svg width="16" height="16" viewBox="0 0 16 16" id="shared_asset_images_tooltip_Tooltip_KeepOnly_Disabled" x="300"><path d="M6.9 13.2c.3.2.8.1 1-.3l5-8.9c.2-.3.1-.8-.3-.9-.3-.2-.8-.1-.9.3L7 11.5 4 8.8c-.3-.3-.8-.2-1 0-.3.4-.3.8 0 1L6.7 13l.2.2z" fill-rule="evenodd" clip-rule="evenodd" fill="#CCC"/></svg><svg width="16" height="16" viewBox="0 0 16 16" id="shared_asset_images_tooltip_Tooltip_Set" x="320"><path d="M9.9 5.1C9.5 3.3 7.9 2 6 2 3.8 2 2 3.8 2 6c0 1.9 1.3 3.5 3.1 3.9.4 1.8 2 3.1 3.9 3.1 2.2 0 4-1.8 4-4 0-1.9-1.3-3.5-3.1-3.9zM6 9c0-1.7 1.3-3 3-3 0 1.7-1.3 3-3 3zM3 6c0-1.7 1.3-3 3-3 1.3 0 2.4.8 2.8 2-2 .1-3.7 1.8-3.8 3.8C3.8 8.4 3 7.3 3 6zm6 6c-1.3 0-2.4-.8-2.8-2 2-.1 3.7-1.8 3.8-3.8 1.2.4 2 1.5 2 2.8 0 1.7-1.3 3-3 3z" fill-rule="evenodd" clip-rule="evenodd" fill="#666"/></svg><svg width="16" height="16" viewBox="0 0 16 16" id="shared_asset_images_tooltip_Tooltip_Set_Active" x="340"><path d="M9.9 5.1C9.5 3.3 7.9 2 6 2 3.8 2 2 3.8 2 6c0 1.9 1.3 3.5 3.1 3.9.4 1.8 2 3.1 3.9 3.1 2.2 0 4-1.8 4-4 0-1.9-1.3-3.5-3.1-3.9zM6 9c0-1.7 1.3-3 3-3 0 1.7-1.3 3-3 3zM3 6c0-1.7 1.3-3 3-3 1.3 0 2.4.8 2.8 2-2 .1-3.7 1.8-3.8 3.8C3.8 8.4 3 7.3 3 6zm6 6c-1.3 0-2.4-.8-2.8-2 2-.1 3.7-1.8 3.8-3.8 1.2.4 2 1.5 2 2.8 0 1.7-1.3 3-3 3z" fill-rule="evenodd" clip-rule="evenodd" fill="#333"/></svg><svg width="16" height="16" viewBox="0 0 16 16" id="shared_asset_images_tooltip_Tooltip_Set_Disabled" x="360"><path d="M9.9 5.1C9.5 3.3 7.9 2 6 2 3.8 2 2 3.8 2 6c0 1.9 1.3 3.5 3.1 3.9.4 1.8 2 3.1 3.9 3.1 2.2 0 4-1.8 4-4 0-1.9-1.3-3.5-3.1-3.9zM6 9c0-1.7 1.3-3 3-3 0 1.7-1.3 3-3 3zM3 6c0-1.7 1.3-3 3-3 1.3 0 2.4.8 2.8 2-2 .1-3.7 1.8-3.8 3.8C3.8 8.4 3 7.3 3 6zm6 6c-1.3 0-2.4-.8-2.8-2 2-.1 3.7-1.8 3.8-3.8 1.2.4 2 1.5 2 2.8 0 1.7-1.3 3-3 3z" opacity=".25" fill-rule="evenodd" clip-rule="evenodd" fill="#333"/></svg><svg width="16" height="16" viewBox="0 0 16 16" id="shared_asset_images_tooltip_Tooltip_ShowData" x="380"><g fill-rule="evenodd" clip-rule="evenodd" fill="#666"><path d="M2 3h2v1H2zM5 3h4v1H5zM10 3h4v1h-4zM2 5h2v1H2zM5 5h4v1H5zM10 5h4v1h-4zM2 7h2v1H2zM5 7h4v1H5zM10 7h4v1h-4zM2 9h2v1H2zM5 9h4v1H5zM10 9h4v1h-4zM2 11h2v1H2zM5 11h4v1H5zM10 11h4v1h-4z"/></g></svg><svg width="16" height="16" viewBox="0 0 16 16" id="shared_asset_images_tooltip_Tooltip_ShowData_Active" x="400"><g fill-rule="evenodd" clip-rule="evenodd" fill="#333"><path d="M2 3h2v1H2zM5 3h4v1H5zM10 3h4v1h-4zM2 5h2v1H2zM5 5h4v1H5zM10 5h4v1h-4zM2 7h2v1H2zM5 7h4v1H5zM10 7h4v1h-4zM2 9h2v1H2zM5 9h4v1H5zM10 9h4v1h-4zM2 11h2v1H2zM5 11h4v1H5zM10 11h4v1h-4z"/></g></svg><svg width="16" height="16" viewBox="0 0 16 16" id="shared_asset_images_tooltip_Tooltip_ShowData_Disabled" x="420"><g fill-rule="evenodd" clip-rule="evenodd" fill="#CCC"><path d="M2 3h2v1H2zM5 3h4v1H5zM10 3h4v1h-4zM2 5h2v1H2zM5 5h4v1H5zM10 5h4v1h-4zM2 7h2v1H2zM5 7h4v1H5zM10 7h4v1h-4zM2 9h2v1H2zM5 9h4v1H5zM10 9h4v1h-4zM2 11h2v1H2zM5 11h4v1H5zM10 11h4v1h-4z"/></g></svg><svg width="16" height="16" viewBox="0 0 16 16" id="shared_asset_images_tooltip_Tooltip_Sort_Ascending" x="440"><g fill-rule="evenodd" clip-rule="evenodd" fill="#666"><path d="M2 3h3v2H2zM2 7h6v2H2zM2 11h10v2H2z"/></g><path d="M13.8 6H12V3h-1v3H9.2c-.1 0-.2.1-.1.2l2.3 3c.1.1.2.1.3 0l2.3-3c0-.1-.1-.2-.2-.2z" fill="#666"/></svg><svg width="16" height="16" viewBox="0 0 16 16" id="shared_asset_images_tooltip_Tooltip_Sort_Ascending_Active" x="460"><g fill-rule="evenodd" clip-rule="evenodd" fill="#333"><path d="M2 3h3v2H2zM2 7h6v2H2zM2 11h10v2H2z"/></g><path d="M13.8 6H12V3h-1v3H9.2c-.1 0-.2.1-.1.2l2.3 3c.1.1.2.1.3 0l2.3-3c0-.1-.1-.2-.2-.2z" fill="#333"/></svg><svg width="16" height="16" viewBox="0 0 16 16" id="shared_asset_images_tooltip_Tooltip_Sort_Ascending_Disabled" x="480"><g fill-rule="evenodd" clip-rule="evenodd" fill="#CCC"><path d="M2 3h3v2H2zM2 7h6v2H2zM2 11h10v2H2z"/></g><path d="M13.8 6H12V3h-1v3H9.2c-.1 0-.2.1-.1.2l2.3 3c.1.1.2.1.3 0l2.3-3c0-.1-.1-.2-.2-.2z" fill="#CCC"/></svg><svg width="16" height="16" viewBox="0 0 16 16" id="shared_asset_images_tooltip_Tooltip_Sort_Descending" x="500"><path d="M13.8 10H12V7h-1v3H9.2c-.2 0-.2.1-.2.2l2.3 3c.1.1.2.1.3 0l2.3-3c.1-.1 0-.2-.1-.2z" fill="#666"/><g fill-rule="evenodd" clip-rule="evenodd" fill="#666"><path d="M2 11h3v2H2zM2 7h6v2H2zM2 3h10v2H2z"/></g></svg><svg width="16" height="16" viewBox="0 0 16 16" id="shared_asset_images_tooltip_Tooltip_Sort_Descending_Active" x="520"><path d="M13.8 10H12V7h-1v3H9.2c-.2 0-.2.1-.2.2l2.3 3c.1.1.2.1.3 0l2.3-3c.1-.1 0-.2-.1-.2z" fill="#333"/><g fill-rule="evenodd" clip-rule="evenodd" fill="#333"><path d="M2 11h3v2H2zM2 7h6v2H2zM2 3h10v2H2z"/></g></svg><svg width="16" height="16" viewBox="0 0 16 16" id="shared_asset_images_tooltip_Tooltip_Sort_Descending_Disabled" x="540"><path d="M13.8 10H12V7h-1v3H9.2c-.2 0-.2.1-.2.2l2.3 3c.1.1.2.1.3 0l2.3-3c.1-.1 0-.2-.1-.2z" fill="#CCC"/><g fill-rule="evenodd" clip-rule="evenodd" fill="#CCC"><path d="M2 11h3v2H2zM2 7h6v2H2zM2 3h10v2H2z"/></g></svg><svg width="16" height="16" viewBox="0 0 16 16" id="shared_asset_images_tooltip_Tooltip_Split" x="560"><path d="M7.6 6.6l-2.1 4.5c-.5.9-1.8 1.1-2.6.7-.7-.4-1.1-1.2-.7-2L5 4.4c.4-.8 1.3-1.3 2.3-1.3 1.4 0 2.6 1 2.6 2.4 0 .4-.1.8-.2 1.1l-1.9 3.8c-.1.2-.1.5.2.7.2.1.5 0 .7-.2L10.5 7c.2-.5.3-1 .3-1.5C10.9 3.6 9.2 2 7.2 2 5.9 2 4.6 2.8 4 3.9L1.3 9.4c-.7 1.3 0 2.8 1.3 3.4 1.2.6 3 .1 3.6-1.2L8.3 7c.4-.9.2-1.8-.6-2.2-.9-.3-1.8 0-2.2.8L3.9 8.8c-.1.2-.1.5.2.7.2.1.5 0 .6-.2L6.3 6c.2-.3.6-.5.9-.3.3.2.5.6.4.9zM14.2 10.5l1.6-1.6c.2-.2.2-.5 0-.7-.2-.2-.5-.2-.7 0l-1.6 1.6-1.6-1.6c-.2-.2-.5-.2-.7 0-.2.2-.2.5 0 .7l1.6 1.6-1.6 1.6c-.2.2-.2.5 0 .7.2.2.5.2.7 0l1.6-1.6 1.6 1.6c.2.2.5.2.7 0 .2-.2.2-.5 0-.7l-1.6-1.6z" fill-rule="evenodd" clip-rule="evenodd" fill="#666"/></svg><svg width="16" height="16" viewBox="0 0 16 16" id="shared_asset_images_tooltip_Tooltip_Split_Active" x="580"><path d="M7.6 6.6l-2.1 4.5c-.5.9-1.8 1.1-2.6.7-.7-.4-1.1-1.2-.7-2L5 4.4c.4-.8 1.3-1.3 2.3-1.3 1.4 0 2.6 1 2.6 2.4 0 .4-.1.8-.2 1.1l-1.9 3.8c-.1.2-.1.5.2.7.2.1.5 0 .7-.2L10.5 7c.2-.5.3-1 .3-1.5C10.9 3.6 9.2 2 7.2 2 5.9 2 4.6 2.8 4 3.9L1.3 9.4c-.7 1.3 0 2.8 1.3 3.4 1.2.6 3 .1 3.6-1.2L8.3 7c.4-.9.2-1.8-.6-2.2-.9-.3-1.8 0-2.2.8L3.9 8.8c-.1.2-.1.5.2.7.2.1.5 0 .6-.2L6.3 6c.2-.3.6-.5.9-.3.3.2.5.6.4.9zM14.2 10.5l1.6-1.6c.2-.2.2-.5 0-.7-.2-.2-.5-.2-.7 0l-1.6 1.6-1.6-1.6c-.2-.2-.5-.2-.7 0-.2.2-.2.5 0 .7l1.6 1.6-1.6 1.6c-.2.2-.2.5 0 .7.2.2.5.2.7 0l1.6-1.6 1.6 1.6c.2.2.5.2.7 0 .2-.2.2-.5 0-.7l-1.6-1.6z" fill-rule="evenodd" clip-rule="evenodd" fill="#333"/></svg><svg width="16" height="16" viewBox="0 0 16 16" id="shared_asset_images_tooltip_Tooltip_Split_Disabled" x="600"><path d="M7.6 6.6l-2.1 4.5c-.5.9-1.8 1.1-2.6.7-.7-.4-1.1-1.2-.7-2L5 4.4c.4-.8 1.3-1.3 2.3-1.3 1.4 0 2.6 1 2.6 2.4 0 .4-.1.8-.2 1.1l-1.9 3.8c-.1.2-.1.5.2.7.2.1.5 0 .7-.2L10.5 7c.2-.5.3-1 .3-1.5C10.9 3.6 9.2 2 7.2 2 5.9 2 4.6 2.8 4 3.9L1.3 9.4c-.7 1.3 0 2.8 1.3 3.4 1.2.6 3 .1 3.6-1.2L8.3 7c.4-.9.2-1.8-.6-2.2-.9-.3-1.8 0-2.2.8L3.9 8.8c-.1.2-.1.5.2.7.2.1.5 0 .6-.2L6.3 6c.2-.3.6-.5.9-.3.3.2.5.6.4.9zM14.2 10.5l1.6-1.6c.2-.2.2-.5 0-.7-.2-.2-.5-.2-.7 0l-1.6 1.6-1.6-1.6c-.2-.2-.5-.2-.7 0-.2.2-.2.5 0 .7l1.6 1.6-1.6 1.6c-.2.2-.2.5 0 .7.2.2.5.2.7 0l1.6-1.6 1.6 1.6c.2.2.5.2.7 0 .2-.2.2-.5 0-.7l-1.6-1.6z" fill-rule="evenodd" clip-rule="evenodd" fill="#CCC"/></svg><svg viewBox="0 0 18 18" width="18" height="18" id="shared_asset_images_viz-toolbar_Apple_White" x="90" y="120"><path fill="#FFF" d="M8.1 4.1c1 0 2-.6 2.5-1.3.6-.8 1.1-1.8.9-2.8-.9.1-2 .6-2.6 1.4-.6.7-1 1.7-.8 2.7zm7 1.6C14.2 4.6 13 4 11.8 4c-1.5 0-2.2.7-3.2.7-1.1 0-1.9-.7-3.3-.7-1.3 0-2.7.8-3.5 2.1-1.2 1.9-1 5.5 1 8.5.7 1.2 1.6 2.4 2.9 2.4 1.1 0 1.4-.7 2.9-.7.7 0 1.2.2 1.6.4.4.2.7.4 1.3.4 1.3 0 2.3-1.4 3-2.5.5-.8.7-1.2 1.1-2.1-2.9-1.1-3.4-5.2-.5-6.8z"/></svg><svg width="20" height="18" viewBox="0 0 20 18" id="shared_asset_images_viz-toolbar_Clear" x="355" y="75"><path d="M3.156 1.922l11.938 11.943c.195.195.543.165.738-.03.194-.194.224-.542.03-.737L3.922 1.155C3.73.96 3.38.99 3.187 1.185c-.195.194-.225.542-.03.737z" fill="#333"/><path d="M15.862 1.922L3.922 13.865c-.193.195-.542.165-.736-.03-.195-.194-.225-.542-.03-.737L15.094 1.155c.195-.195.543-.165.738.03.194.194.224.542.03.737z" fill="#333"/></svg><svg viewBox="0 0 22 18" width="22" height="18" id="shared_asset_images_viz-toolbar_CustomView" x="480" y="75"><g fill="#333"><path d="M17 1H4c-.5 0-1 .4-1 1v13c0 .5.5 1 1 1h13c.5 0 1-.5 1-1V2c0-.6-.5-1-1-1zm0 14H4V2h13v13z"/><path d="M7 8h1v5H7zM10 4h1v9h-1zM13 6h1v7h-1z"/></g></svg><svg viewBox="0 0 22 18" width="22" height="18" id="shared_asset_images_viz-toolbar_CustomViewToggled" x="455" y="75"><path d="M17 2H4c-.5 0-1 .4-1 1v13c0 .5.5 1 1 1h13c.5 0 1-.5 1-1V3c0-.6-.5-1-1-1z" fill="#333"/><path fill="#FFF" d="M7 9h1v5H7zM10 5h1v9h-1zM13 7h1v7h-1z"/></svg><svg width="18" height="18" viewBox="0 0 18 18" id="shared_asset_images_viz-toolbar_Debug" x="110" y="120"><path d="M15.5 9H13c0-.8-.1-1.5-.2-2.2C14.1 6.3 15 5 15 3.6c0-.3-.2-.5-.5-.5s-.5.2-.5.5c0 1-.6 1.9-1.5 2.3-.7-2.3-2.2-3.9-4-3.9s-3.3 1.6-4 3.8C3.6 5.4 3 4.6 3 3.6c0-.3-.2-.5-.5-.5s-.5.2-.5.5c0 1.4.9 2.7 2.2 3.2C4.1 7.5 4 8.2 4 9H1.5c-.3 0-.5.2-.5.5s.2.5.5.5h2.6c.1.8.2 1.5.4 2.2-1.4.4-2.5 1.7-2.5 3.3 0 .3.2.5.5.5s.5-.2.5-.5c0-1.2.8-2.1 1.9-2.4C5.7 14.9 7 16 8.5 16s2.8-1.1 3.6-2.9c1.1.3 1.9 1.3 1.9 2.4 0 .3.2.5.5.5s.5-.2.5-.5c0-1.6-1.1-2.9-2.5-3.3.2-.7.4-1.4.4-2.2h2.6c.3 0 .5-.2.5-.5s-.2-.5-.5-.5zm-7-6c1.5 0 2.8 1.7 3.3 4H5.2C5.7 4.7 7 3 8.5 3zM5 9c0-.3 0-.7.1-1H8v6.9C6.3 14.5 5 12 5 9zm4 5.9V8h2.9c.1.3.1.7.1 1 0 3-1.3 5.5-3 5.9z" fill="#666"/><circle cx="9.5" cy="5.5" r=".5" fill="#666"/><circle cx="7.5" cy="5.5" r=".5" fill="#666"/></svg><svg width="18" height="18" viewBox="0 0 18 18" id="shared_asset_images_viz-toolbar_Debug_Active" x="130" y="120"><path d="M15.5 9H13c0-.8-.1-1.5-.2-2.2C14.1 6.3 15 5 15 3.6c0-.3-.2-.5-.5-.5s-.5.2-.5.5c0 1-.6 1.9-1.5 2.3-.7-2.3-2.2-3.9-4-3.9s-3.3 1.6-4 3.8C3.6 5.4 3 4.6 3 3.6c0-.3-.2-.5-.5-.5s-.5.2-.5.5c0 1.4.9 2.7 2.2 3.2C4.1 7.5 4 8.2 4 9H1.5c-.3 0-.5.2-.5.5s.2.5.5.5h2.6c.1.8.2 1.5.4 2.2-1.4.4-2.5 1.7-2.5 3.3 0 .3.2.5.5.5s.5-.2.5-.5c0-1.2.8-2.1 1.9-2.4C5.7 14.9 7 16 8.5 16s2.8-1.1 3.6-2.9c1.1.3 1.9 1.3 1.9 2.4 0 .3.2.5.5.5s.5-.2.5-.5c0-1.6-1.1-2.9-2.5-3.3.2-.7.4-1.4.4-2.2h2.6c.3 0 .5-.2.5-.5s-.2-.5-.5-.5zm-7-6c1.5 0 2.8 1.7 3.3 4H5.2C5.7 4.7 7 3 8.5 3zM5 9c0-.3 0-.7.1-1H8v6.9C6.3 14.5 5 12 5 9zm4 5.9V8h2.9c.1.3.1.7.1 1 0 3-1.3 5.5-3 5.9z" fill="#333"/><circle cx="9.5" cy="5.5" r=".5" fill="#333"/><circle cx="7.5" cy="5.5" r=".5" fill="#333"/></svg><svg width="20" height="18" viewBox="0 0 20 18" id="shared_asset_images_viz-toolbar_Delete" x="280" y="75"><path d="M12 6h-1v7h1V6zm-2 0H9v7h1V6zm4.02-4H12V1a1 1 0 0 0-1-1H8a1 1 0 0 0-1 1v1H3v1h1v13a1 1 0 0 0 1 1h9a1 1 0 0 0 1-1V3h1V2h-1.98zM8 1h3.02v1H8V1zm6 15H5V3h9v13zM8 6H7v7h1V6z" fill-rule="evenodd" clip-rule="evenodd" fill="#333"/></svg><svg width="30" height="30" viewBox="0 0 30 30" id="shared_asset_images_viz-toolbar_Dialogs_PDF_Export_Sheet" y="185"><path fill="#666" d="M18 10h2v12h-2zM14 8h2v14h-2zM10 14h2v8h-2z"/><path d="M27 2H3c-.5 0-1 .4-1 1v24c0 .5.5 1 1 1h24c.6 0 1-.5 1-1V3c0-.6-.5-1-1-1zm0 25H3V3h24v24z" fill="#666"/></svg><svg width="22" height="18" viewBox="0 0 22 18" id="shared_asset_images_viz-toolbar_Download_White" x="430" y="75"><g fill="#FFF"><path d="M13.6 12l-3 4.4L7.5 12zM17 2H4c-.6 0-1 .5-1 1v7c0 .5.4 1 1 1h3v-1H4V3h13v7h-3v1h3c.6 0 1-.5 1-1V3c0-.5-.4-1-1-1z"/><path d="M10 6h1v8h-1z"/></g></svg><svg width="30" height="22" viewBox="0 0 30 22" id="shared_asset_images_viz-toolbar_EmailLink" y="95"><path d="M25.6 19c.8 0 1.4-.4 1.4-1.5s-.5-1.5-1.4-1.5h-3.4c.3-.6.9-1 1.6-1H26c1.1 0 2 .9 2 2v1c0 1.1-.9 2-2 2h-2.1c-.7 0-1.2-.4-1.6-1h3.3zM17.4 19c-.8 0-1.4-.4-1.4-1.5s.5-1.5 1.4-1.5h3.4c-.3-.6-.9-1-1.6-1H17c-1.1 0-2 .9-2 2v1c0 1.1.9 2 2 2h2.1c.7 0 1.2-.4 1.6-1h-3.3z" fill="#666"/><path d="M18.5 17h6c.3 0 .5.2.5.5s-.2.5-.5.5h-6c-.3 0-.5-.2-.5-.5s.2-.5.5-.5zM22 4.6c0-.4-.2-.6-.6-.6-.1 0-.2 0-.3.1L13 9.3 4.8 4.1c0-.1-.1-.1-.2-.1-.4 0-.6.2-.6.6 0 .2.1.3.3.4l8.7 5.5L21.7 5c.2-.1.3-.3.3-.4z" fill="#666"/><path d="M14 16H3V3h20v11h1V3c0-.6-.4-1-1-1H3c-.6 0-1 .4-1 1v13c0 .6.4 1 1 1h11v-1z" fill="#666"/></svg><svg width="30" height="22" viewBox="0 0 30 22" id="shared_asset_images_viz-toolbar_Facebook" x="70" y="95"><path d="M23 2H6c-.6 0-1 .5-1 1v16c0 .6.4 1 1 1h9.4v-7H13v-2.7h2.4V8.1c0-2.4 1.4-3.6 3.4-3.6 1 0 1.8.1 2.2.1v2.7h-1.5c-1.1 0-1.5.6-1.5 1.3v1.7h2.7l-.4 2.7H18v7h5c.6 0 1-.4 1-1V3c0-.5-.4-1-1-1z" fill="#666"/></svg><svg width="20" height="18" viewBox="0 0 20 18" id="shared_asset_images_viz-toolbar_MakeView_Private" x="380" y="75"><path d="M9.5 3C4.898 3 1 8.48 1 8.48S4.898 14 9.5 14 18 8.526 18 8.526 14.102 3 9.5 3zm0 10.004c-3.626 0-7.17-4.525-7.17-4.525S5.88 4 9.5 3.995c3.564-.004 7.17 4.53 7.17 4.53s-3.482 4.478-7.17 4.478z" fill-rule="evenodd" clip-rule="evenodd" fill="#333"/><path d="M9.5 5a3.5 3.5 0 1 0 0 7 3.5 3.5 0 0 0 0-7zm0 6a2.5 2.5 0 1 1 0-5 2.5 2.5 0 0 1 0 5z" fill-rule="evenodd" clip-rule="evenodd" fill="#333"/><path d="M16.147 15.854l-14-14a.502.502 0 0 1 0-.708.502.502 0 0 1 .706 0l14 14a.5.5 0 1 1-.707.707z" fill-rule="evenodd" clip-rule="evenodd" fill="#333"/></svg><svg width="20" height="18" viewBox="0 0 20 18" id="shared_asset_images_viz-toolbar_MakeView_Public" x="330" y="75"><path d="M9.5 3C4.898 3 1 8.48 1 8.48S4.898 14 9.5 14 18 8.526 18 8.526 14.102 3 9.5 3zm0 10.004c-3.626 0-7.17-4.525-7.17-4.525S5.88 4 9.5 3.995c3.564-.004 7.17 4.53 7.17 4.53s-3.482 4.478-7.17 4.478z" fill-rule="evenodd" clip-rule="evenodd" fill="#333"/><path d="M9.5 5a3.5 3.5 0 1 0 0 7 3.5 3.5 0 0 0 0-7zm0 6a2.5 2.5 0 1 1 0-5 2.5 2.5 0 0 1 0 5z" fill-rule="evenodd" clip-rule="evenodd" fill="#333"/></svg><svg width="20" height="18" viewBox="0 0 20 18" id="shared_asset_images_viz-toolbar_Manage" x="305" y="75"><path d="M9.97 4.99a4 4 0 1 0 0 8 4 4 0 0 0 0-8zm0 7a3 3 0 1 1 0-6 3 3 0 0 1 0 6z" fill-rule="evenodd" clip-rule="evenodd" fill="#333"/><path d="M16.978 7.005l-1.13-.127a6.216 6.216 0 0 0-.213-.518l.714-.884a1 1 0 0 0 0-1.415l-1.415-1.413a1 1 0 0 0-1.414 0l-.876.7a6.192 6.192 0 0 0-.53-.223l-.12-1.113a1 1 0 0 0-1-1h-2a1 1 0 0 0-1 1l-.123 1.1c-.186.065-.368.14-.546.224l-.86-.694a1 1 0 0 0-1.413 0L3.637 4.054a1 1 0 0 0 0 1.415l.686.858c-.084.18-.16.363-.228.55L3 6.996a1 1 0 0 0-1 1v2a1 1 0 0 0 1 1l1.1.124c.07.184.144.364.227.54l-.698.864a1 1 0 0 0 0 1.414l1.413 1.415a1 1 0 0 0 1.415 0l.88-.702c.17.08.347.153.527.217l.12 1.122a1 1 0 0 0 1 1h2a1 1 0 0 0 1-1l.127-1.135c.174-.064.345-.135.512-.213l.89.718a1 1 0 0 0 1.414 0l1.414-1.414a1 1 0 0 0 0-1.415l-.715-.895c.078-.165.148-.335.21-.51l1.14-.12c.554 0 1.023-.453 1.023-1.005V8c0-.552-.47-.995-1.022-.995zM17 10l-1.935.208a5.206 5.206 0 0 1-.656 1.56l.667.816c.004-.005.008-.008.01-.013l.548.67-.012.01.002.004-1.414 1.414-1.493-1.223a5.2 5.2 0 0 1-1.564.65l-.105 1.045.02-.003-.084.852h-.02L11 16H9l-.228-1.91a5.2 5.2 0 0 1-1.535-.638l-1.485 1.216-1.415-1.414.01-.012-.01-.01.528-.647.01.012.666-.814a5.206 5.206 0 0 1-.663-1.577l-1.896-.19v-2L3 8.014v-.02l.82-.08c0 .005 0 .012-.003.02l1.043-.106a5.2 5.2 0 0 1 .656-1.587L4.31 4.77l1.415-1.414.014.012.018-.02.636.522c-.007.005-.012.012-.02.017l.816.667a5.205 5.205 0 0 1 1.583-.663l.19-1.892h2.06l.175 1.9c.564.136 1.092.36 1.568.662l.814-.667-.005-.005.653-.534.004.004.005-.004 1.414 1.414-1.216 1.488c.295.48.52 1.005.648 1.57l1.042.105v-.01l.854.085v.01L17 8v2z" fill-rule="evenodd" clip-rule="evenodd" fill="#333"/></svg><svg viewBox="0 0 132 26" width="132" height="26" id="shared_asset_images_viz-toolbar_Online_Tableau_Logo" x="135" y="45"><g fill="#231F20"><path d="M23.2 11.9h-2.4V9.4h-.9v2.5h-2.4v1h2.4v2.5h.9v-2.5h2.4zM18.4 16.1h-2.1v-2.3h-.8v2.3h-2.1v.7h2.1v2.3h.8v-2.3h2.1zM27.3 7.9h-2.1V5.6h-.8v2.3h-2.1v.7h2.1v2.3h.8V8.6h2.1zM22.1 18.7h-1.4v-1.6H20v1.6h-1.4v.6H20v1.6h.7v-1.6h1.4zM18.4 7.9h-2.1V5.6h-.8v2.3h-2.1v.7h2.1v2.3h.8V8.6h2.1zM28.9 12.1h-1.4v-1.6h-.7v1.6h-1.4v.6h1.4v1.6h.7v-1.6h1.4z"/><path fill-rule="evenodd" clip-rule="evenodd" d="M27.3 16.1h-2.1v-2.3h-.8v2.3h-2.1v.7h2.1v2.3h.8v-2.3h2.1z"/><path d="M22 5.5h-1.4V4h-.5v1.5h-1.4V6h1.4v1.6h.5V6H22zM15.1 12.2h-1.4v-1.6h-.5v1.6h-1.4v.5l1.4-.1v1.6h.5v-1.6h1.4z"/><path fill-rule="evenodd" clip-rule="evenodd" d="M67 10.4c.7-.3 1.4-.4 1.8-.4 2.1 0 3.5 1.5 3.5 3.8 0 2.4-1.5 3.8-4.1 3.8-.9 0-1.8-.2-2.7-.5V6.6H67v3.8zm1.4 5.8c1.5 0 2.3-.8 2.3-2.3 0-1.5-.8-2.3-2.2-2.3-.6 0-1.1.2-1.5.4v4c.5.1.9.2 1.4.2zM78.8 5.1h1.5v13.8h-1.5zM88.9 13h3.5c0-.9-.5-1.4-1.5-1.5-.8 0-1.7.5-2 1.5zm1.7 4.6c-2.4-.2-3.5-1.9-3.5-3.9.1-2.1 1.5-3.7 3.6-3.7 2.2 0 3.5 1.6 3.4 4.1h-5.3c.1 1.3.9 2 2 2.1.9.1 2.2-.1 2.9-.6v1.5c-.9.5-1.9.7-3.1.5zM117 16.4c1 0 1.6-.5 1.6-1.6v-4.6h1.6V15c0 1.6-1.2 2.6-3.2 2.6s-3.2-1-3.2-2.6v-4.8h1.6v4.6c0 1.1.7 1.6 1.6 1.6zM55.2 17.6c-2.6 0-4.1-1.4-4.1-3.8 0-2.3 1.4-3.8 3.5-3.8.7 0 1.3.2 1.8.5V10H58v7.1c-.8.3-1.9.5-2.8.5zm-.2-1.4c.4 0 .8 0 1.3-.2v-4c-.5-.3-1-.5-1.5-.5-1.3 0-2.2.9-2.2 2.3.1 1.5.9 2.4 2.4 2.4zM104.5 17.6c-2.6 0-4.1-1.4-4.1-3.8 0-2.3 1.4-3.8 3.5-3.8.7 0 1.3.2 1.8.5V10h1.6v7.1c-.7.3-1.8.5-2.8.5zm-.2-1.4c.3 0 .8 0 1.3-.2v-4c-.5-.3-1-.5-1.5-.5-1.3 0-2.2.9-2.2 2.3.1 1.5 1 2.4 2.4 2.4z"/><path d="M39.4 7.1H41v4.4h4.2v1.4H41v4.8h-1.6v-4.8h-4.1v-1.4h4.1z"/></g></svg><svg viewBox="0 0 26 26" width="26" height="26" id="shared_asset_images_viz-toolbar_Online_Tableau_Sparkle" x="60" y="120"><g fill="#231F20"><path d="M15.8 12.5h-2.3V9.9h-1v2.6h-2.3v.9h2.3V16h1v-2.6h2.3zM11.1 16.7H9v-2.3h-.8v2.3H6.1v.7h2.1v2.3H9v-2.3h2.1zM20 8.5h-2.2V6.2H17v2.3h-2.1v.7H17v2.3h.8V9.2H20zM14.8 19.2h-1.4v-1.6h-.7v1.6h-1.5v.7h1.5v1.6h.7v-1.6h1.4zM11.1 8.5H8.9V6.2h-.7v2.3H6.1v.7h2.1v2.3h.7V9.2h2.2zM21.6 12.7h-1.5v-1.6h-.6v1.6H18v.6h1.5v1.6h.6v-1.6h1.5z"/><path fill-rule="evenodd" clip-rule="evenodd" d="M20 16.7h-2.2v-2.3H17v2.3h-2.1v.7H17v2.3h.8v-2.3H20z"/><path d="M14.7 6.1h-1.4V4.5h-.5v1.6h-1.5v.5h1.5v1.6h.5V6.6h1.4zM7.8 12.7H6.3v-1.5h-.5v1.5H4.4v.5h1.4v1.6h.5v-1.6h1.5z"/></g></svg><svg width="132" height="26" viewBox="0 0 132 26" id="shared_asset_images_viz-toolbar_Public_Tableau_Logo" x="270" y="45"><g fill="#231f20"><path d="M23.2 11.9h-2.4V9.4h-.9v2.5h-2.4v1h2.4v2.5h.9v-2.5h2.4zM18.4 16.1h-2.1v-2.3h-.8v2.3h-2.1v.7h2.1v2.3h.8v-2.3h2.1zM27.3 7.9h-2.1V5.6h-.8v2.3h-2.1v.7h2.1v2.3h.8V8.6h2.1zM22.1 18.7h-1.4v-1.6H20v1.6h-1.4v.6H20v1.6h.7v-1.6h1.4zM18.4 7.9h-2.1V5.6h-.8v2.3h-2.1v.7h2.1v2.3h.8V8.6h2.1zM29.4 12.1H28v-1.6h-.7v1.6h-1.4v.6h1.4v1.6h.7v-1.6h1.4zM15 12.1h-1.4v-1.6h-.7v1.6h-1.4v.6h1.4v1.6h.7v-1.6H15zM27.3 16.1h-2.1v-2.3h-.8v2.3h-2.1v.7h2.1v2.3h.8v-2.3h2.1zM22 5.5h-1.4V4h-.5v1.5h-1.4V6h1.4v1.6h.5V6H22zM67 10.4c.7-.3 1.4-.4 1.8-.4 2.1 0 3.5 1.5 3.5 3.8 0 2.4-1.5 3.8-4.1 3.8-.9 0-1.8-.2-2.7-.5V6.6H67v3.8zm1.4 5.8c1.5 0 2.3-.8 2.3-2.3s-.8-2.3-2.2-2.3c-.6 0-1.1.2-1.5.4v4c.5.1.9.2 1.4.2zM78.8 5.1h1.5v13.8h-1.5zM88.9 13h3.5c0-.9-.5-1.4-1.5-1.5-.8 0-1.7.5-2 1.5zm1.7 4.6c-2.4-.2-3.5-1.9-3.5-3.9.1-2.1 1.5-3.7 3.6-3.7 2.2 0 3.5 1.6 3.4 4.1h-5.3c.1 1.3.9 2 2 2.1.9.1 2.2-.1 2.9-.6v1.5c-.9.5-1.9.7-3.1.5zM117 16.4c1 0 1.6-.5 1.6-1.6v-4.6h1.6V15c0 1.6-1.2 2.6-3.2 2.6s-3.2-1-3.2-2.6v-4.8h1.6v4.6c0 1.1.7 1.6 1.6 1.6zM55.2 17.6c-2.6 0-4.1-1.4-4.1-3.8 0-2.3 1.4-3.8 3.5-3.8.7 0 1.3.2 1.8.5V10H58v7.1c-.8.3-1.9.5-2.8.5zm-.2-1.4c.4 0 .8 0 1.3-.2v-4c-.5-.3-1-.5-1.5-.5-1.3 0-2.2.9-2.2 2.3.1 1.5.9 2.4 2.4 2.4zM104.5 17.6c-2.6 0-4.1-1.4-4.1-3.8 0-2.3 1.4-3.8 3.5-3.8.7 0 1.3.2 1.8.5V10h1.6v7.1c-.7.3-1.8.5-2.8.5zm-.2-1.4c.3 0 .8 0 1.3-.2v-4c-.5-.3-1-.5-1.5-.5-1.3 0-2.2.9-2.2 2.3.1 1.5 1 2.4 2.4 2.4zM39.4 7.1H41v4.4h4.2v1.4H41v4.8h-1.6v-4.8h-4.1v-1.4h4.1z"/></g></svg><svg width="132" height="26" viewBox="0 0 132 26" id="shared_asset_images_viz-toolbar_Public_Tableau_Logo_White" y="45"><g fill="#FFF"><path d="M23.2 11.9h-2.4V9.4h-.9v2.5h-2.4v1h2.4v2.5h.9v-2.5h2.4zM18.4 16.1h-2.1v-2.3h-.8v2.3h-2.1v.7h2.1v2.3h.8v-2.3h2.1zM27.3 7.9h-2.1V5.6h-.8v2.3h-2.1v.7h2.1v2.3h.8V8.6h2.1zM22.1 18.7h-1.4v-1.6H20v1.6h-1.4v.6H20v1.6h.7v-1.6h1.4zM18.4 7.9h-2.1V5.6h-.8v2.3h-2.1v.7h2.1v2.3h.8V8.6h2.1zM29.4 12.1H28v-1.6h-.7v1.6h-1.4v.6h1.4v1.6h.7v-1.6h1.4zM15 12.1h-1.4v-1.6h-.7v1.6h-1.4v.6h1.4v1.6h.7v-1.6H15zM27.3 16.1h-2.1v-2.3h-.8v2.3h-2.1v.7h2.1v2.3h.8v-2.3h2.1zM22 5.5h-1.4V4h-.5v1.5h-1.4V6h1.4v1.6h.5V6H22zM67 10.4c.7-.3 1.4-.4 1.8-.4 2.1 0 3.5 1.5 3.5 3.8 0 2.4-1.5 3.8-4.1 3.8-.9 0-1.8-.2-2.7-.5V6.6H67v3.8zm1.4 5.8c1.5 0 2.3-.8 2.3-2.3s-.8-2.3-2.2-2.3c-.6 0-1.1.2-1.5.4v4c.5.1.9.2 1.4.2zM78.8 5.1h1.5v13.8h-1.5zM88.9 13h3.5c0-.9-.5-1.4-1.5-1.5-.8 0-1.7.5-2 1.5zm1.7 4.6c-2.4-.2-3.5-1.9-3.5-3.9.1-2.1 1.5-3.7 3.6-3.7 2.2 0 3.5 1.6 3.4 4.1h-5.3c.1 1.3.9 2 2 2.1.9.1 2.2-.1 2.9-.6v1.5c-.9.5-1.9.7-3.1.5zM117 16.4c1 0 1.6-.5 1.6-1.6v-4.6h1.6V15c0 1.6-1.2 2.6-3.2 2.6s-3.2-1-3.2-2.6v-4.8h1.6v4.6c0 1.1.7 1.6 1.6 1.6zM55.2 17.6c-2.6 0-4.1-1.4-4.1-3.8 0-2.3 1.4-3.8 3.5-3.8.7 0 1.3.2 1.8.5V10H58v7.1c-.8.3-1.9.5-2.8.5zm-.2-1.4c.4 0 .8 0 1.3-.2v-4c-.5-.3-1-.5-1.5-.5-1.3 0-2.2.9-2.2 2.3.1 1.5.9 2.4 2.4 2.4zM104.5 17.6c-2.6 0-4.1-1.4-4.1-3.8 0-2.3 1.4-3.8 3.5-3.8.7 0 1.3.2 1.8.5V10h1.6v7.1c-.7.3-1.8.5-2.8.5zm-.2-1.4c.3 0 .8 0 1.3-.2v-4c-.5-.3-1-.5-1.5-.5-1.3 0-2.2.9-2.2 2.3.1 1.5 1 2.4 2.4 2.4zM39.4 7.1H41v4.4h4.2v1.4H41v4.8h-1.6v-4.8h-4.1v-1.4h4.1z"/></g></svg><svg viewBox="0 0 26 26" width="26" height="26" id="shared_asset_images_viz-toolbar_Public_Tableau_Sparkle" y="120"><g fill="#231F20"><path d="M15.8 12.5h-2.3V9.9h-1v2.6h-2.3v.9h2.3V16h1v-2.6h2.3zM11.1 16.7H9v-2.3h-.8v2.3H6.1v.7h2.1v2.3H9v-2.3h2.1zM20 8.5h-2.2V6.2H17v2.3h-2.1v.7H17v2.3h.8V9.2H20zM14.8 19.2h-1.4v-1.6h-.7v1.6h-1.5v.7h1.5v1.6h.7v-1.6h1.4zM11.1 8.5H8.9V6.2h-.7v2.3H6.1v.7h2.1v2.3h.7V9.2h2.2zM21.6 12.7h-1.5v-1.6h-.6v1.6H18v.6h1.5v1.6h.6v-1.6h1.5z"/><path fill-rule="evenodd" clip-rule="evenodd" d="M20 16.7h-2.2v-2.3H17v2.3h-2.1v.7H17v2.3h.8v-2.3H20z"/><path d="M14.7 6.1h-1.4V4.5h-.5v1.6h-1.5v.5h1.5v1.6h.5V6.6h1.4zM7.8 12.7H6.3v-1.5h-.5v1.5H4.4v.5h1.4v1.6h.5v-1.6h1.5z"/></g></svg><svg viewBox="0 0 26 26" width="26" height="26" id="shared_asset_images_viz-toolbar_Public_Tableau_Sparkle_White" x="30" y="120"><g fill="#FFF"><path d="M15.8 12.5h-2.3V9.9h-1v2.6h-2.3v.9h2.3V16h1v-2.6h2.3zM11.1 16.7H9v-2.3h-.8v2.3H6.1v.7h2.1v2.3H9v-2.3h2.1zM20 8.5h-2.2V6.2H17v2.3h-2.1v.7H17v2.3h.8V9.2H20zM14.8 19.2h-1.4v-1.6h-.7v1.6h-1.5v.7h1.5v1.6h.7v-1.6h1.4zM11.1 8.5H8.9V6.2h-.7v2.3H6.1v.7h2.1v2.3h.7V9.2h2.2zM21.6 12.7h-1.5v-1.6h-.6v1.6H18v.6h1.5v1.6h.6v-1.6h1.5z"/><path fill-rule="evenodd" clip-rule="evenodd" d="M20 16.7h-2.2v-2.3H17v2.3h-2.1v.7H17v2.3h.8v-2.3H20z"/><path d="M14.7 6.1h-1.4V4.5h-.5v1.6h-1.5v.5h1.5v1.6h.5V6.6h1.4zM7.8 12.7H6.3v-1.5h-.5v1.5H4.4v.5h1.4v1.6h.5v-1.6h1.5z"/></g></svg><svg width="22" height="18" viewBox="0 0 22 18" id="shared_asset_images_viz-toolbar_Share_White" x="405" y="75"><g fill="#FFF"><path d="M15 3c1.1 0 2 .9 2 2s-.9 2-2 2-2-.9-2-2 .9-2 2-2m0-1c-1.7 0-3 1.3-3 3s1.3 3 3 3 3-1.3 3-3-1.3-3-3-3zM7 7c1.1 0 2 .9 2 2s-.9 2-2 2-2-.9-2-2 .9-2 2-2m0-1C5.3 6 4 7.3 4 9s1.3 3 3 3 3-1.3 3-3-1.3-3-3-3zM15 11c1.1 0 2 .9 2 2s-.9 2-2 2-2-.9-2-2 .9-2 2-2m0-1c-1.7 0-3 1.3-3 3s1.3 3 3 3 3-1.3 3-3-1.3-3-3-3z"/><path d="M13.2 6.2L9.1 8.3l-.4-.8 4-2.2zM12.7 12.8l-4-2.2.4-.9 4.1 2.1z"/></g></svg><svg width="30" height="22" viewBox="0 0 30 22" id="shared_asset_images_viz-toolbar_Twitter" x="35" y="95"><path d="M27.4 3.3c-.8.4-1.8.7-2.7.8 1-.5 1.8-1.5 2.2-2.7-1.1.5-2.2.9-3.3 1.1-.8-.9-2-1.5-3.5-1.5-2.7 0-4.8 2.2-4.8 4.8 0 .4 0 .7.1 1.1-3.9-.1-7.6-2-9.9-5-.3.7-.6 1.5-.6 2.4 0 1.6.8 3.1 2.2 3.9-.8 0-1.5-.3-2.2-.5 0 2.3 1.6 4.2 3.8 4.7-.4.1-.8.1-1.2.1-.3 0-.7 0-1-.1.7 1.9 2.4 3.3 4.5 3.4-1.6 1.2-3.7 2-6 2H3.9c2.2 1.4 4.6 2.2 7.3 2.2C20.1 20 25 12.7 25 6.3v-.7c.9-.5 1.8-1.3 2.4-2.3z" fill="#666"/></svg><svg width="22" height="20" viewBox="0 0 22 20" id="shared_asset_images_viz-toolbar_VizToolbar_AskData" x="300" y="20"><title>Nlp Query Active_adj (1)</title><g fill="#333" fill-rule="nonzero"><path d="M13.296 5.54h1.108v5.54h-1.108zM9.972 3.324h1.108v7.756H9.972zM6.648 7.756h1.108v3.324H6.648z"/><path d="M21.053 7.756C21.053 3.436 16.288 0 10.526 0 4.766 0 0 3.435 0 7.756c0 3.435 2.992 6.316 7.202 7.313l4.986 4.653v-4.32c4.987-.555 8.865-3.77 8.865-7.647zm-9.973 6.648v2.77l-3.102-2.99c-3.99-.777-6.87-3.325-6.87-6.428 0-3.656 4.21-6.648 9.418-6.648 5.208 0 9.42 2.992 9.42 6.648 0 3.546-3.88 6.427-8.866 6.648z"/></g></svg><svg width="22" height="20" viewBox="0 0 22 20" id="shared_asset_images_viz-toolbar_VizToolbar_Comment_Active" x="275" y="20"><path d="M18 2H3c-.5 0-1 .5-1 1v10c0 .5.5 1 1 1h5v4.6l4.6-4.6H18c.6 0 1-.5 1-1V3c0-.6-.5-1-1-1zm0 11h-5.9L9 16.2V13H3V3h15v10z" fill="#333"/></svg><svg id="shared_asset_images_viz-toolbar_VizToolbar_CustomView_Asterix_Active" viewBox="0 0 24 20" width="24" height="20" x="80" y="150"><style>.ewst0{fill:#333}</style><path id="ewBar3_5_" class="ewst0" d="M17 7h1v7h-1z"/><path id="ewBar2_5_" class="ewst0" d="M14 5h1v9h-1z"/><path id="ewBar1_5_" class="ewst0" d="M11 9h1v5h-1z"/><path id="ewBorder_3_" class="ewst0" d="M21 2H8c-.5 0-1 .4-1 1v13c0 .5.5 1 1 1h13c.5 0 1-.5 1-1V3c0-.6-.5-1-1-1zm0 14H8V3h13v13z"/><path id="ewAsterisk" class="ewst0" d="M6 4H4.4l.9-1.3-.9-.5-.9 1.4-1-1.5-.8.6.9 1.3H1v1h1.6l-.9 1.3.8.6 1-1.5 1 1.5.8-.6L4.4 5H6z"/></svg><svg id="shared_asset_images_viz-toolbar_VizToolbar_CustomView_NoAsterix_Active" viewBox="0 0 24 20" width="24" height="20" x="105" y="150"><style>.exst0{fill:#333}</style><path id="exBar3_5_" class="exst0" d="M17 7h1v7h-1z"/><path id="exBar2_5_" class="exst0" d="M14 5h1v9h-1z"/><path id="exBar1_5_" class="exst0" d="M11 9h1v5h-1z"/><path id="exBorder_3_" class="exst0" d="M21 2H8c-.5 0-1 .4-1 1v13c0 .5.5 1 1 1h13c.5 0 1-.5 1-1V3c0-.6-.5-1-1-1zm0 14H8V3h13v13z"/></svg><svg id="shared_asset_images_viz-toolbar_VizToolbar_DS_Refresh_Active" viewBox="0 0 22 20" width="22" height="20" x="500" y="20"><style>.eyst0{fill:#333}</style><path id="eyLowerArrow_3_" class="eyst0" d="M17.5 15.1c-.3-.1-.5 0-.6.3-.1.1 0 .1-.1.1-.4.9-1.3 1.5-2.3 1.5-.6 0-1.2-.2-1.7-.6l.9-.6-2.7-1.1v3l1-.7c.6.7 1.5 1.1 2.5 1.1 1.4 0 2.6-.9 3.2-2.1 0 0 .1-.1.1-.2.1-.3-.1-.6-.3-.7z"/><path id="eyUpperArrow_4_" class="eyst0" d="M17 12.1c-.6-.7-1.5-1.1-2.5-1.1-1.4 0-2.6.9-3.2 2.1 0 0-.1.1-.1.2-.1.3 0 .5.3.6s.5 0 .6-.3c.1-.1 0-.1.1-.1.4-.9 1.3-1.5 2.3-1.5.6 0 1.2.2 1.7.6l-.9.6 2.7 1.1v-3l-1 .8z"/><path id="eyCan_5_" class="eyst0" d="M10.5 2C7.5 2 5 3.3 5 5V14.3c.1 1.2 1.8 2.2 4 2.5v-.9c-1.8-.3-3-1.1-3-1.7V6.7C7 7.5 8.7 8 10.5 8S14 7.5 15 6.7V9h1V5c0-1.7-2.5-3-5.5-3zm0 5C8 7 6 6.1 6 5s2-2 4.5-2 4.5.9 4.5 2-2 2-4.5 2z"/></svg><svg id="shared_asset_images_viz-toolbar_VizToolbar_Details_Active" width="22" height="20" viewBox="0 0 22 20" x="200" y="20"><style>.ezst0{fill:#333}</style><path class="ezst0" d="M14.5 5c.1 0 .2 0 .4.1.2.2.2.5 0 .7-.2.2-.3.2-.4.2s-.2 0-.4-.1c-.2-.2-.2-.5 0-.7.2-.2.3-.2.4-.2m0-1c-.4 0-.8.1-1.1.4-.6.6-.6 1.5 0 2.1.3.4.7.5 1.1.5s.8-.1 1.1-.4c.6-.6.6-1.5 0-2.1-.3-.4-.7-.5-1.1-.5z"/><path class="ezst0" d="M15.9 3L17 4.1v4.6l-7.7 7.7-5.7-5.7L11.3 3h4.6m0-1h-4.6c-.3 0-.5.1-.7.3L2.9 10c-.4.4-.4 1 0 1.4l5.7 5.7c.2.2.5.3.7.3.3 0 .5-.1.7-.3l7.7-7.7c.2-.2.3-.5.3-.7V4.1c0-.3-.1-.5-.3-.7l-1.1-1.1c-.1-.2-.4-.3-.7-.3z"/></svg><svg width="22" height="20" viewBox="0 0 22 20" id="shared_asset_images_viz-toolbar_VizToolbar_Details_Status_Active" x="175" y="20"><g fill="none" fill-rule="evenodd"><path fill="#333" d="M17.03 2a1 1 0 0 1 .994.872l.008.13-.014 5.67a1 1 0 0 1-.294.706L16.094 11h-1.417l2.34-2.33.015-5.67-5.672.014-8.31 8.278 5.657 5.657L11 14.663v1.412l-1.587 1.58a1 1 0 0 1-1.413 0L2.343 12a1 1 0 0 1-.078-1.328l.08-.09 8.31-8.277a1 1 0 0 1 .702-.29L17.03 2zm-2.936 3.145a1 1 0 1 1 0 2 1 1 0 0 1 0-2z"/><circle cx="15.45" cy="15.5" r="3.5" fill="#2A79AF"/></g></svg><svg width="22" height="20" viewBox="0 0 22 20" id="shared_asset_images_viz-toolbar_VizToolbar_Details_Status_Severe_Active" x="150" y="20"><g fill="none" fill-rule="evenodd"><path fill="#333" d="M17.03 2a1 1 0 0 1 .994.872l.008.13-.014 5.67a1 1 0 0 1-.294.706L16.094 11h-1.417l2.34-2.33.015-5.67-5.672.014-8.31 8.278 5.657 5.657L11 14.663v1.412l-1.587 1.58a1 1 0 0 1-1.413 0L2.343 12a1 1 0 0 1-.078-1.328l.08-.09 8.31-8.277a1 1 0 0 1 .702-.29L17.03 2zm-2.936 3.145a1 1 0 1 1 0 2 1 1 0 0 1 0-2z"/><circle cx="15.45" cy="15.5" r="3" fill="#FECA63" stroke="#333"/></g></svg><svg width="22" height="20" viewBox="0 0 22 20" id="shared_asset_images_viz-toolbar_VizToolbar_Download_Active" x="125" y="20"><path fill="#333" d="M11 13V6h-1v7H7.5l3.1 4.4 3-4.4z"/><path d="M17 2H4c-.6 0-1 .5-1 1v7c0 .5.4 1 1 1h3v-1H4V3h13v7h-3v1h3c.6 0 1-.5 1-1V3c0-.5-.4-1-1-1z" fill="#333"/></svg><svg width="22" height="20" viewBox="0 0 22 20" id="shared_asset_images_viz-toolbar_VizToolbar_Edit_Active" x="100" y="20"><path d="M14.7 3.6l.6.6 1-1 .9.9-1 1 .6.6L18 4.5c.3-.3.3-.7 0-1l-1.2-1.2c-.3-.3-.7-.3-1 0l-1.1 1.3zM15.2 6.2l-7.5 7.6-1-1 7.6-7.5-.6-.7-8.3 8.3 2.2 2.2 8.3-8.2zM6.4 16.3l-2.9.7.8-2.9z" fill-rule="evenodd" clip-rule="evenodd" fill="#323232"/></svg><svg width="22" height="20" viewBox="0 0 22 20" id="shared_asset_images_viz-toolbar_VizToolbar_Layout_Desktop_Active" x="75" y="20"><style>.fest0{fill:#333}</style><path id="feLine_5_" class="fest0" d="M1 15h20v1H1z"/><path id="feRectangle_1_" class="fest0" d="M18 2H4c-.5 0-1 .5-1 1v10c0 .5.5 1 1 1h14c.5 0 1-.5 1-1V3c0-.5-.5-1-1-1zm0 11H4V3h14v10z"/></svg><svg width="22" height="20" viewBox="0 0 22 20" id="shared_asset_images_viz-toolbar_VizToolbar_Layout_Phone_Active" x="425" y="20"><style>.ffst0{fill:#333}</style><circle id="ffButton_3_" class="ffst0" cx="11.5" cy="15.5" r=".5"/><path id="ffRectangle_5_" class="ffst0" d="M16 1H7c-.5 0-1 .5-1 1v15c0 .5.5 1 1 1h9c.5 0 1-.5 1-1V2c0-.5-.5-1-1-1zm0 16H7V2h9v15z"/></svg><svg width="22" height="20" viewBox="0 0 22 20" id="shared_asset_images_viz-toolbar_VizToolbar_Layout_Tablet_Active" x="400" y="20"><style>.fgst0{fill:#333}</style><circle id="fgButton_1_" class="fgst0" cx="18.5" cy="9.5" r=".5"/><path id="fgRectangle_3_" class="fgst0" d="M20 2H2c-.5 0-1 .5-1 1v13c0 .5.5 1 1 1h18c.5 0 1-.5 1-1V3c0-.5-.5-1-1-1zm0 14H2V3h18v13z"/></svg><svg width="22" height="20" viewBox="0 0 22 20" id="shared_asset_images_viz-toolbar_VizToolbar_Metrics_Active" x="375" y="20"><path d="M17 2H4c-.5 0-1 .4-1 1v13c0 .5.5 1 1 1h13c.5 0 1-.5 1-1V3c0-.6-.5-1-1-1zm0 14H4V3h13v13z" fill="#333"/><path fill="#333" d="M11 12L8.5 9.6l-1.8 2.3-.8-.7 2.5-3.1 2.6 2.5L14.3 7l.7.7z"/></svg><svg width="22" height="20" viewBox="0 0 22 20" id="shared_asset_images_viz-toolbar_VizToolbar_Notification_Active" x="350" y="20"><path d="M17.3 12.5c-.5-.3-.9-.7-1.1-.9-.6-.5-.9-1.3-1-2.1-.3-2.4-.5-4.4-2.6-5.1V4c0-.8-.7-1.5-1.5-1.5s-1.6.8-1.6 1.6v.3c-2.2.7-2.4 2.5-2.7 4.7l-.1.4c-.1.8-.5 1.5-1.1 2.1-.2.2-.7.6-1.1.8-.5.4-.5 1-.5 1.1V15c0 .6.4 1 1 1h3.7c.4.9 1.3 1.5 2.3 1.5 1.1 0 1.9-.6 2.3-1.5H17c.6 0 1-.4 1-1v-1.5c0-.1 0-.6-.7-1zm-6.8-8.4c0-.3.2-.5.5-.5s.5.2.5.5v.1c-.1 0-.3 0-.5-.1h-.5zm.5 12.4c-.4 0-.8-.2-1.1-.5h2.2c-.3.3-.7.5-1.1.5zm6-1.5H5v-1.5c0-.1 0-.2.1-.2.5-.3 1.1-.8 1.3-1 .7-.7 1.2-1.6 1.3-2.7l.1-.4c.4-2.6.5-3.9 3-4.1h.2c2.7.3 2.9 1.8 3.2 4.6.1 1 .6 2 1.3 2.7.2.2.8.7 1.3 1 .2.1.2.2.2.2V15z" fill="#333"/></svg><svg width="22" height="20" viewBox="0 0 22 20" id="shared_asset_images_viz-toolbar_VizToolbar_Performance_Active" x="325" y="20"><path d="M11 3V2h1V1H9v1h1v1c-3.9.3-7 3.5-7 7.5 0 4.1 3.4 7.5 7.5 7.5s7.5-3.4 7.5-7.5c0-3.9-3.1-7.2-7-7.5zm-.5 14C6.9 17 4 14.1 4 10.5S6.9 4 10.5 4 17 6.9 17 10.5 14.1 17 10.5 17z" fill="#333"/><path fill="#333" d="M11 10V6h-1v5h4v-1z"/></svg><svg width="22" height="20" viewBox="0 0 22 20" id="shared_asset_images_viz-toolbar_VizToolbar_PresMode_Fullscreen_Off_Active" x="250" y="20"><g fill="#333"><path d="M16 11v2h-2v1h2c.6 0 1-.4 1-1v-2h-1zM8 13H6v-2H5v2c0 .6.4 1 1 1h2v-1zM14 7h2v2h1V7c0-.6-.4-1-1-1h-2v1zM6 6c-.6 0-1 .4-1 1v2h1V7h2V6H6z"/><path d="M19 3H3c-.6 0-1 .4-1 1v12c0 .6.4 1 1 1h16c.6 0 1-.4 1-1V4c0-.6-.4-1-1-1zm0 13H3V4h16v12z"/></g></svg><svg width="22" height="20" viewBox="0 0 22 20" id="shared_asset_images_viz-toolbar_VizToolbar_PresMode_Fullscreen_On_Active" x="225" y="20"><g fill="#333"><path d="M16 6H6c-.6 0-1 .4-1 1v6c0 .6.4 1 1 1h10c.6 0 1-.4 1-1V7c0-.6-.4-1-1-1zm0 7H6V7h10v6zM19 13v3h-3v1h3c.6 0 1-.4 1-1v-3h-1zM6 16H3v-3H2v3c0 .6.4 1 1 1h3v-1zM19 3h-3v1h3v3h1V4c0-.6-.4-1-1-1zM6 3H3c-.6 0-1 .4-1 1v3h1V4h3V3z"/></g></svg><svg width="22" height="20" viewBox="0 0 22 20" id="shared_asset_images_viz-toolbar_VizToolbar_Redo_Active" x="50" y="20"><path d="M16.9 9.1l-5-5c-.2-.2-.5-.2-.7 0s-.2.5 0 .7L15.4 9h-11c-.2 0-.4.2-.4.5s.2.5.4.5h11l-4.2 4.2c-.2.2-.2.5 0 .7.2.2.5.2.7 0l5-5c.1-.1.2-.3.1-.4.1-.1 0-.3-.1-.4z" fill="#333"/></svg><svg width="22" height="20" viewBox="0 0 22 20" id="shared_asset_images_viz-toolbar_VizToolbar_Refresh_Pause_Active" x="550" y="20"><path fill="#333" d="M15 12h2v7h-2zM12 12h2v7h-2z"/><path d="M10.5 2C7.5 2 5 3.3 5 5V14.3c.1 1.4 2.3 2.5 5 2.6V16c-2.4-.1-4-1.1-4-1.8V6.7C7 7.5 8.7 8 10.5 8S14 7.5 15 6.7V10h1V5c0-1.7-2.5-3-5.5-3zm0 5C8 7 6 6.1 6 5s2-2 4.5-2 4.5.9 4.5 2-2 2-4.5 2z" fill="#333"/></svg><svg width="22" height="20" viewBox="0 0 22 20" id="shared_asset_images_viz-toolbar_VizToolbar_Refresh_Resume_Active" x="475" y="20"><path d="M18 14.5L13 18v-7l5 3.5z" fill="#333"/><path d="M10.5 2C7.5 2 5 3.3 5 5V14.3c.1 1.4 2.3 2.5 5 2.6V16c-2.4-.1-4-1.1-4-1.8V6.7C7 7.5 8.7 8 10.5 8S14 7.5 15 6.7V10h1V5c0-1.7-2.5-3-5.5-3zm0 5C8 7 6 6.1 6 5s2-2 4.5-2 4.5.9 4.5 2-2 2-4.5 2z" fill="#333"/></svg><svg width="22" height="20" viewBox="0 0 22 20" id="shared_asset_images_viz-toolbar_VizToolbar_Revert_Active" x="450" y="20"><path d="M4.5 17c.3 0 .5-.2.5-.5v-14c0-.3-.2-.5-.5-.5s-.5.2-.5.5v14c0 .3.2.5.5.5zM6.1 9.1l5-5c.2-.2.5-.2.7 0s.2.5 0 .7L7.6 9h11c.2 0 .4.2.4.5s-.2.5-.4.5h-11l4.2 4.2c.2.2.2.5 0 .7-.2.2-.5.2-.7 0l-5-5C6 9.8 6 9.6 6 9.5c0-.1 0-.3.1-.4z" fill="#333"/></svg><svg width="22" height="20" viewBox="0 0 22 20" id="shared_asset_images_viz-toolbar_VizToolbar_Share_Active" y="20"><path d="M15 12c-.9 0-1.7.4-2.2 1l-3-1.9c.1-.3.2-.7.2-1.1 0-.5-.1-.9-.3-1.3l2.9-1.9C13.2 7.5 14 8 15 8c1.7 0 3-1.3 3-3s-1.3-3-3-3-3 1.3-3 3c0 .3.1.6.1.9l-3 2C8.6 7.3 7.8 7 7 7c-1.7 0-3 1.3-3 3s1.3 3 3 3c.9 0 1.7-.4 2.3-1.1l3 1.9c-.2.4-.3.8-.3 1.2 0 1.7 1.3 3 3 3s3-1.3 3-3-1.3-3-3-3zm0-9c1.1 0 2 .9 2 2s-.9 2-2 2-2-.9-2-2 .9-2 2-2zm-8 9c-1.1 0-2-.9-2-2s.9-2 2-2 2 .9 2 2-.9 2-2 2zm8 5c-1.1 0-2-.9-2-2s.9-2 2-2 2 .9 2 2-.9 2-2 2z" fill="#333"/></svg><svg width="22" height="20" viewBox="0 0 22 20" id="shared_asset_images_viz-toolbar_VizToolbar_Subscribe_Active" x="525" y="20"><path fill="#333" d="M18 12V9h-2v3h-3v2h3v3h2v-3h3v-2z"/><path d="M3 4.8l7 5.5L17 5v3h1V4c0-.6-.4-1-1-1H3c-.6 0-1 .4-1 1v9c0 .6.4 1 1 1h9v-1H3V4.8zm.5-.8h13.2L10 9 3.5 4z" fill="#333"/></svg><svg width="22" height="20" viewBox="0 0 22 20" id="shared_asset_images_viz-toolbar_VizToolbar_Undo_Active" x="25" y="20"><path d="M4.1 9.1l5-5c.2-.2.5-.2.7 0s.2.5 0 .7L5.6 9h11c.2 0 .4.2.4.5s-.2.5-.4.5h-11l4.2 4.2c.2.2.2.5 0 .7-.2.2-.5.2-.7 0l-5-5C4 9.8 4 9.6 4 9.5c0-.1 0-.3.1-.4z" fill="#333"/></svg><svg viewBox="0 0 18 18" width="18" height="18" id="shared_asset_images_viz-toolbar_Windows_White" x="150" y="120"><path fill="#FFF" d="M8 14.8l-7-.9V9h7zM17 8H9V2.1L17 1zM8 8H1V3.1l7-.8zM17 16l-8-1.1V9h8z"/></svg><svg viewBox="0 0 15 15" width="15" height="15" id="shared_asset_images_viz-toolbar_checkbox_selected_hover" x="430" y="120"><path d="M1 14.5c-.3 0-.5-.2-.5-.5V1C.5.7.7.5 1 .5h13c.3 0 .5.2.5.5v13c0 .3-.2.5-.5.5H1z" fill="#FFF"/><path d="M14 1v13H1V1h13m0-1H1C.4 0 0 .4 0 1v13c0 .6.4 1 1 1h13c.6 0 1-.4 1-1V1c0-.6-.4-1-1-1z" fill="#333"/><path d="M6.7 11.9c-.2 0-.4-.1-.5-.2l-3-3 1.1-1.1 2.3 2.3 4-6.7 1.3.8-4.5 7.6c-.2.1-.4.2-.7.3z" fill="#333"/></svg><svg viewBox="0 0 15 15" width="15" height="15" id="shared_asset_images_viz-toolbar_checkbox_selected_normal" x="410" y="120"><path d="M1 14.5c-.3 0-.5-.2-.5-.5V1C.5.7.7.5 1 .5h13c.3 0 .5.2.5.5v13c0 .3-.2.5-.5.5H1z" fill="#FFF"/><path d="M14 1v13H1V1h13m0-1H1C.4 0 0 .4 0 1v13c0 .6.4 1 1 1h13c.6 0 1-.4 1-1V1c0-.6-.4-1-1-1z" fill="#b2b2b2"/><path d="M6.7 11.9c-.2 0-.4-.1-.5-.2l-3-3 1.1-1.1 2.3 2.3 4-6.7 1.3.8-4.5 7.6c-.2.1-.4.2-.7.3z" fill="#333"/></svg></svg>