<svg xmlns="http://www.w3.org/2000/svg" width="24" height="24" viewBox="0 0 24 24">
  <defs>
    <style>
      .cls-1 {
        fill: rgba(255,255,255,0);
      }

      .cls-2 {
        opacity: 0.64;
      }

      .cls-3 {
        fill: #fff;
      }
    </style>
  </defs>
  <g id="고객의소리" transform="translate(-467 8)">
    <rect id="사각형_5" data-name="사각형 5" class="cls-1" width="24" height="24" transform="translate(467 -8)"/>
    <g id="promotion" class="cls-2" transform="translate(470.511 -17.872)">
      <path id="패스_79" data-name="패스 79" class="cls-3" d="M14.1,40.768l.868-1.315a.527.527,0,0,0,.017-.557l-.851-1.472a.53.53,0,0,0-.494-.264l-1.57.094-1.536-2.664A1.37,1.37,0,0,0,9.353,33.9H9.332a1.378,1.378,0,0,0-1.162.634L2.63,41.594l-3.6,2.077A3.085,3.085,0,0,0-2.1,47.883a3.1,3.1,0,0,0,3.732,1.353l2.1,3.634a1.833,1.833,0,0,0,1.575.906,1.767,1.767,0,0,0,.9-.243,1.807,1.807,0,0,0,.66-2.472L5.638,48.943l1.013-.587a.535.535,0,0,0,.2-.728l-.481-.83c.4-.077,1.919-.374,7.928-1.553l.068-.013a1.385,1.385,0,0,0,1.115-2.072Zm-1.434-2.485.711-.043.523.906-.392.6Zm1.485,5.911c-.013,0-.021,0-.034.009L8.953,35.257a.317.317,0,0,0,.038-.051c.038-.051.051-.068.068-.094a.32.32,0,0,1,.549,0l4.949,8.575a.309.309,0,0,1,0,.315.313.313,0,0,1-.272.162A1.212,1.212,0,0,0,14.149,44.194ZM3.626,42.049l4.617-5.89,4.766,8.256-7.2,1.413ZM5.66,47.7l-.553.319-.319-.553.553-.319ZM3.868,48l2.051,3.553a.089.089,0,0,0,.017.026s0,0,0,.009h0v0h0a.746.746,0,0,1-1.294.745L2.57,48.747Zm-5.043-.651h0a2,2,0,0,1-.272-1.009A2.032,2.032,0,0,1-.434,44.59l3.226-1.864,2.021,3.5L1.587,48.092A2.024,2.024,0,0,1-1.175,47.352Z" transform="translate(0 -21.489)"/>
      <path id="패스_80" data-name="패스 80" class="cls-3" d="M437.193,54.3a.525.525,0,0,0-.319-.251.535.535,0,0,0-.4.047l-2.37,1.319a.525.525,0,0,0-.251.319.535.535,0,0,0,.047.4.525.525,0,0,0,.319.251.567.567,0,0,0,.145.021.515.515,0,0,0,.26-.068l2.37-1.319a.525.525,0,0,0,.251-.319A.535.535,0,0,0,437.193,54.3Z" transform="translate(-417.771 -40.761)"/>
      <path id="패스_81" data-name="패스 81" class="cls-3" d="M495.9,55.6Z" transform="translate(-477.202 -42.266)"/>
      <path id="패스_82" data-name="패스 82" class="cls-3" d="M439.88,148.529l-1.643-.443a.531.531,0,1,0-.277,1.026l1.643.443a.539.539,0,0,0,.4-.055.537.537,0,0,0,.2-.728A.524.524,0,0,0,439.88,148.529Z" transform="translate(-421.352 -130.799)"/>
      <path id="패스_83" data-name="패스 83" class="cls-3" d="M381.421,14.147a.519.519,0,0,0,.136.017.535.535,0,0,0,.515-.4l.443-1.643a.533.533,0,0,0-.779-.6.523.523,0,0,0-.247.323l-.443,1.643A.528.528,0,0,0,381.421,14.147Z" transform="translate(-367.217)"/>
    </g>
  </g>
</svg>
