<svg xmlns="http://www.w3.org/2000/svg" width="20" height="19.193" viewBox="0 0 20 19.193">
  <defs>
    <style>
      .cls-1 {
        opacity: 0.64;
      }

      .cls-2 {
        fill: #1d1d1d;
      }
    </style>
  </defs>
  <g id="infographic" class="cls-1" transform="translate(0 -41.042)">
    <path id="패스_53" data-name="패스 53" class="cls-2" d="M360.592,75.063h.586v1.563a.632.632,0,0,0,.586.67h2.344a.632.632,0,0,0,.586-.67V75.063h.586a.591.591,0,0,0,.541-.413.741.741,0,0,0-.127-.73l-2.344-2.679a.536.536,0,0,0-.829,0l-2.344,2.679a.741.741,0,0,0-.127.73A.591.591,0,0,0,360.592,75.063Z" transform="translate(-346.896 -28.664)"/>
    <path id="패스_54" data-name="패스 54" class="cls-2" d="M65.282,303.287H64.7V301.73a.632.632,0,0,0-.586-.67H61.767a.632.632,0,0,0-.586.67v1.558h-.586a.591.591,0,0,0-.541.413.741.741,0,0,0,.127.73l2.344,2.679a.536.536,0,0,0,.829,0l2.344-2.679a.741.741,0,0,0,.127-.73A.591.591,0,0,0,65.282,303.287Z" transform="translate(-56.712 -248.41)"/>
    <path id="패스_55" data-name="패스 55" class="cls-2" d="M19.414,49.971H11.133v-6.92a.632.632,0,0,0-.586-.67H9.961a.632.632,0,0,0-.586.67v6.92H8.2V45.283a.632.632,0,0,0-.586-.67H7.032a.632.632,0,0,0-.586.67v4.688H5.274V46.623a.632.632,0,0,0-.586-.67H4.1a.632.632,0,0,0-.586.67v3.348H1.172v-8.26a.632.632,0,0,0-.586-.67.632.632,0,0,0-.586.67V59.565a.632.632,0,0,0,.586.67.632.632,0,0,0,.586-.67V51.31h9.961v6.915a.632.632,0,0,0,.586.67h.586a.632.632,0,0,0,.586-.67V51.31h1.172v4.683a.632.632,0,0,0,.586.67h.586a.632.632,0,0,0,.586-.67V51.31h1.172v3.343a.632.632,0,0,0,.586.67h.586a.632.632,0,0,0,.586-.67V51.31h.664a.676.676,0,0,0,0-1.339Z"/>
  </g>
</svg>
