<svg id="그룹_35" data-name="그룹 35" xmlns="http://www.w3.org/2000/svg" width="20" height="20" viewBox="0 0 20 20">
  <defs>
    <style>
      .cls-1 {
        fill: #ff6027;
      }
    </style>
  </defs>
  <g id="그룹_12" data-name="그룹 12" transform="translate(0 19.167)">
    <g id="그룹_11" data-name="그룹 11">
      <path id="패스_9" data-name="패스 9" class="cls-1" d="M19.583,490.667H.417a.417.417,0,0,0,0,.833H19.583a.417.417,0,1,0,0-.833Z" transform="translate(0 -490.667)"/>
    </g>
  </g>
  <g id="그룹_14" data-name="그룹 14" transform="translate(0.833 14.167)">
    <g id="그룹_13" data-name="그룹 13">
      <path id="패스_10" data-name="패스 10" class="cls-1" d="M24.25,362.667h-2.5a.417.417,0,0,0-.417.417v5a.417.417,0,0,0,.417.417h2.5a.417.417,0,0,0,.417-.417v-5A.417.417,0,0,0,24.25,362.667Z" transform="translate(-21.333 -362.667)"/>
    </g>
  </g>
  <g id="그룹_16" data-name="그룹 16" transform="translate(5.833 10)">
    <g id="그룹_15" data-name="그룹 15">
      <path id="패스_11" data-name="패스 11" class="cls-1" d="M152.25,256h-2.5a.417.417,0,0,0-.417.417v9.167a.417.417,0,0,0,.417.417h2.5a.417.417,0,0,0,.417-.417v-9.167A.417.417,0,0,0,152.25,256Z" transform="translate(-149.333 -256)"/>
    </g>
  </g>
  <g id="그룹_18" data-name="그룹 18" transform="translate(10.833 11.667)">
    <g id="그룹_17" data-name="그룹 17">
      <path id="패스_12" data-name="패스 12" class="cls-1" d="M280.25,298.667h-2.5a.417.417,0,0,0-.417.417v7.5a.417.417,0,0,0,.417.417h2.5a.417.417,0,0,0,.417-.417v-7.5A.417.417,0,0,0,280.25,298.667Z" transform="translate(-277.333 -298.667)"/>
    </g>
  </g>
  <g id="그룹_20" data-name="그룹 20" transform="translate(15.833 6.667)">
    <g id="그룹_19" data-name="그룹 19">
      <path id="패스_13" data-name="패스 13" class="cls-1" d="M408.25,170.667h-2.5a.417.417,0,0,0-.417.417v12.5a.417.417,0,0,0,.417.417h2.5a.417.417,0,0,0,.417-.417v-12.5A.417.417,0,0,0,408.25,170.667Z" transform="translate(-405.333 -170.667)"/>
    </g>
  </g>
  <g id="그룹_22" data-name="그룹 22" transform="translate(0.833 7.5)">
    <g id="그룹_21" data-name="그룹 21">
      <path id="패스_14" data-name="패스 14" class="cls-1" d="M23,192a1.667,1.667,0,1,0,1.667,1.667A1.668,1.668,0,0,0,23,192Z" transform="translate(-21.333 -192)"/>
    </g>
  </g>
  <g id="그룹_24" data-name="그룹 24" transform="translate(5.833 3.333)">
    <g id="그룹_23" data-name="그룹 23">
      <path id="패스_15" data-name="패스 15" class="cls-1" d="M151,85.333A1.667,1.667,0,1,0,152.666,87,1.668,1.668,0,0,0,151,85.333Z" transform="translate(-149.333 -85.333)"/>
    </g>
  </g>
  <g id="그룹_26" data-name="그룹 26" transform="translate(10.833 5)">
    <g id="그룹_25" data-name="그룹 25">
      <path id="패스_16" data-name="패스 16" class="cls-1" d="M279,128a1.667,1.667,0,1,0,1.667,1.667A1.668,1.668,0,0,0,279,128Z" transform="translate(-277.333 -128)"/>
    </g>
  </g>
  <g id="그룹_28" data-name="그룹 28" transform="translate(15.833)">
    <g id="그룹_27" data-name="그룹 27">
      <path id="패스_17" data-name="패스 17" class="cls-1" d="M407,0a1.667,1.667,0,1,0,1.667,1.667A1.668,1.668,0,0,0,407,0Z" transform="translate(-405.333)"/>
    </g>
  </g>
  <g id="그룹_30" data-name="그룹 30" transform="translate(12.967 2.133)">
    <g id="그룹_29" data-name="그룹 29">
      <path id="패스_18" data-name="패스 18" class="cls-1" d="M335.907,54.73a.417.417,0,0,0-.589,0l-3.233,3.233a.417.417,0,0,0,.589.589l3.233-3.233A.417.417,0,0,0,335.907,54.73Z" transform="translate(-331.963 -54.608)"/>
    </g>
  </g>
  <g id="그룹_32" data-name="그룹 32" transform="translate(8.285 4.925)">
    <g id="그룹_31" data-name="그룹 31">
      <path id="패스_19" data-name="패스 19" class="cls-1" d="M215.315,126.858l-2.677-.763a.417.417,0,0,0-.228.8l2.677.763a.417.417,0,0,0,.228-.8Z" transform="translate(-212.108 -126.078)"/>
    </g>
  </g>
  <g id="그룹_34" data-name="그룹 34" transform="translate(2.966 5.362)">
    <g id="그룹_33" data-name="그룹 33">
      <path id="패스_20" data-name="패스 20" class="cls-1" d="M79.818,137.43a.417.417,0,0,0-.585-.067l-3.142,2.505a.417.417,0,0,0,.26.742.421.421,0,0,0,.259-.09l3.142-2.5A.416.416,0,0,0,79.818,137.43Z" transform="translate(-75.935 -137.273)"/>
    </g>
  </g>
</svg>
