<svg xmlns="http://www.w3.org/2000/svg" width="20" height="20" viewBox="0 0 20 20">
  <defs>
    <style>
      .cls-1 {
        fill: #ff6027;
      }
    </style>
  </defs>
  <g id="speedometer" transform="translate(0)">
    <path id="패스_64" data-name="패스 64" class="cls-1" d="M91.506,149.764a6.472,6.472,0,0,0,0,8.3l.832-.832a5.3,5.3,0,0,1,0-6.636Z" transform="translate(-86.484 -143.914)"/>
    <path id="패스_65" data-name="패스 65" class="cls-1" d="M153.914,90a6.455,6.455,0,0,0-4.15,1.506l.832.832a5.3,5.3,0,0,1,6.635,0l.832-.832A6.455,6.455,0,0,0,153.914,90Z" transform="translate(-143.914 -86.484)"/>
    <circle id="타원_11" data-name="타원 11" class="cls-1" cx="0.586" cy="0.586" r="0.586" transform="translate(9.414 9.414)"/>
    <path id="패스_66" data-name="패스 66" class="cls-1" d="M362.971,149.764l-.832.832a5.3,5.3,0,0,1,0,6.636l.832.832a6.472,6.472,0,0,0,0-8.3Z" transform="translate(-347.993 -143.914)"/>
    <path id="패스_67" data-name="패스 67" class="cls-1" d="M17.071,2.929A10,10,0,0,0,2.929,17.071,10,10,0,0,0,17.071,2.929ZM11.288,16.356a6.51,6.51,0,0,1-2.576,0,.586.586,0,1,1,.232-1.149,5.361,5.361,0,0,0,2.111,0,.586.586,0,0,1,.232,1.149Zm4.123-.944a.586.586,0,0,1-.829,0l-1.656-1.656a.586.586,0,0,1,0-.829,4.133,4.133,0,0,0,.385-5.409L11.586,9.243a1.758,1.758,0,1,1-.829-.829l1.726-1.726a4.138,4.138,0,0,0-5.409,6.238.586.586,0,0,1,0,.829L5.417,15.411a.586.586,0,0,1-.829,0A7.655,7.655,0,1,1,17.656,10a7.6,7.6,0,0,1-2.245,5.411Z"/>
  </g>
</svg>
