<svg xmlns="http://www.w3.org/2000/svg" width="15.848" height="20" viewBox="0 0 15.848 20">
  <defs>
    <style>
      .cls-1 {
        opacity: 0.64;
      }

      .cls-2 {
        fill: #1d1d1d;
      }
    </style>
  </defs>
  <g id="search" class="cls-1" transform="translate(0.001 0)">
    <path id="패스_71" data-name="패스 71" class="cls-2" d="M11.826,4.06a.648.648,0,0,1-.647-.648V0H.648A.648.648,0,0,0,0,.648V18.5l3.341-3.21a5.54,5.54,0,1,1,5.248,2.08,5.613,5.613,0,0,1-.878.069,5.5,5.5,0,0,1-3.244-1.059q-.11-.08-.216-.165L.373,19.938A.646.646,0,0,0,.648,20H15.2a.648.648,0,0,0,.648-.648V4.073Zm0,0"/>
    <path id="패스_72" data-name="패스 72" class="cls-2" d="M90.3,203.2l.009.009,0,0a4.3,4.3,0,0,0,.521.446,4.242,4.242,0,1,0,2.5-7.674,4.3,4.3,0,0,0-.672.053A4.243,4.243,0,0,0,90.3,203.2Zm2.433-6.733a3.808,3.808,0,1,1-3.166,4.356,3.812,3.812,0,0,1,3.166-4.356Zm0,0" transform="translate(-85.604 -188.326)"/>
    <path id="패스_73" data-name="패스 73" class="cls-2" d="M133.435,243.209a2.512,2.512,0,1,0,2.088-2.873,2.514,2.514,0,0,0-2.088,2.873Zm0,0" transform="translate(-128.193 -230.918)"/>
    <path id="패스_74" data-name="패스 74" class="cls-2" d="M321.609,15.96l2.236.007-2.236-2.236Zm0,0" transform="translate(-309.047 -13.194)"/>
  </g>
</svg>
