<svg xmlns="http://www.w3.org/2000/svg" width="21.328" height="18" viewBox="0 0 21.328 18">
  <defs>
    <style>
      .cls-1 {
        fill: #6e6e6e;
      }
    </style>
  </defs>
  <g id="audience" transform="translate(0 -38.823)">
    <path id="패스_56" data-name="패스 56" class="cls-1" d="M306.825,263.823A4.176,4.176,0,0,0,303.4,270.4a4.811,4.811,0,0,1,1.6-1.075,2.25,2.25,0,1,1,3.642,0,4.811,4.811,0,0,1,1.6,1.075,4.176,4.176,0,0,0-3.423-6.572Z" transform="translate(-289.676 -215.357)"/>
    <circle id="타원_9" data-name="타원 9" class="cls-1" cx="0.964" cy="0.964" r="0.964" transform="translate(16.185 51.68)"/>
    <path id="패스_57" data-name="패스 57" class="cls-1" d="M341.065,414.895a4.169,4.169,0,0,0,5.064,0,3.527,3.527,0,0,0-5.064,0Z" transform="translate(-326.448 -358.929)"/>
    <circle id="타원_10" data-name="타원 10" class="cls-1" cx="0.964" cy="0.964" r="0.964" transform="translate(16.185 42.037)"/>
    <path id="패스_58" data-name="패스 58" class="cls-1" d="M303.4,45.4a4.811,4.811,0,0,1,1.6-1.075,2.25,2.25,0,1,1,3.642,0,4.812,4.812,0,0,1,1.6,1.075,4.179,4.179,0,1,0-6.846,0Z" transform="translate(-289.675 0)"/>
    <path id="패스_59" data-name="패스 59" class="cls-1" d="M343.6,190.752a4.157,4.157,0,0,0,2.532-.857,3.527,3.527,0,0,0-5.064,0A4.157,4.157,0,0,0,343.6,190.752Z" transform="translate(-326.448 -143.571)"/>
    <path id="패스_60" data-name="패스 60" class="cls-1" d="M130,153.817h1.286v5.572H130Z" transform="translate(-124.43 -110.066)"/>
    <path id="패스_61" data-name="패스 61" class="cls-1" d="M70,213.82h1.286v3H70Z" transform="translate(-67.002 -167.497)"/>
    <path id="패스_62" data-name="패스 62" class="cls-1" d="M190,253.822h1.286v1.286H190Z" transform="translate(-181.859 -205.785)"/>
    <path id="패스_63" data-name="패스 63" class="cls-1" d="M11.685,52.644a5.469,5.469,0,0,1,2.9-4.821,5.46,5.46,0,0,1-.948-9H.643A.643.643,0,0,0,0,39.466V56.18a.643.643,0,0,0,.643.643H13.632A5.454,5.454,0,0,1,11.685,52.644Zm-2.9.536H3.643a.643.643,0,0,1,0-1.286H8.786a.643.643,0,0,1,0,1.286Zm1.929-3.214a.643.643,0,0,1-.643.643H2.357a.643.643,0,0,1-.643-.643V45.68a.643.643,0,0,1,.643-.643H4.286V43.108a.643.643,0,0,1,.643-.643H7.5a.643.643,0,0,1,.643.643v3.643h1.929a.643.643,0,0,1,.643.643Z" transform="translate(0 0)"/>
  </g>
</svg>
