<svg xmlns="http://www.w3.org/2000/svg" width="24" height="24" viewBox="0 0 24 24">
  <defs>
    <style>
      .cls-1 {
        fill: rgba(255,255,255,0);
      }

      .cls-2 {
        fill: rgba(255,255,255,0.64);
      }
    </style>
  </defs>
  <g id="user" transform="translate(-217 -12)">
    <rect id="사각형_4" data-name="사각형 4" class="cls-1" width="24" height="24" transform="translate(217 12)"/>
    <g id="user-2" data-name="user" transform="translate(112.334 -72.333)">
      <g id="그룹_4" data-name="그룹 4" transform="translate(111.281 85.333)">
        <g id="그룹_3" data-name="그룹 3" transform="translate(0 0)">
          <path id="패스_5" data-name="패스 5" class="cls-2" d="M176.051,85.333a5.139,5.139,0,1,0,5.385,5.133A5.269,5.269,0,0,0,176.051,85.333Zm0,8.8a3.671,3.671,0,1,1,3.846-3.667A3.765,3.765,0,0,1,176.051,94.133Z" transform="translate(-170.666 -85.333)"/>
        </g>
      </g>
      <g id="그룹_10" data-name="그룹 10" transform="translate(106.666 97.066)">
        <g id="그룹_9" data-name="그룹 9" transform="translate(0 0)">
          <path id="패스_8" data-name="패스 8" class="cls-2" d="M116.666,256a9.786,9.786,0,0,0-10,9.533.77.77,0,0,0,1.539,0,8.471,8.471,0,0,1,16.923,0,.77.77,0,0,0,1.539,0A9.786,9.786,0,0,0,116.666,256Z" transform="translate(-106.666 -256)"/>
        </g>
      </g>
    </g>
  </g>
</svg>
